<svg width="78" height="81" viewBox="0 0 78 81" fill="currentColor" xmlns="http://www.w3.org/2000/svg"><path d="M36.731 6.352c.32.093.32.093.454.227.368.02.732.034 1.1.041.165.006.165.006.333.01l1.059.025.716.017 1.759.041.135-.268.403.134v.402h.268v-.403h.268v.402l.94.134v-.269h.269v.403h.94l-.135-.67.671-.27c.402.772.402.772.402 1.074h.268v.269h.269l-.001-.403.267-.134v-.269h.269c.196.356.268.523.268.94h.537c.045.089.09.177.135.269h.671v.268l.638.134.359.076c.375.073.375.073.883.058l.268.135v.402l.503.05c.424.051.735.137 1.108.352h.268l.176.186c.282.27.525.348.897.46l.353.112c.353.09.353.09.72-.22l-.133.536c.494.33.494.33 1.074.403l-.134.267.327.092c.601.22 1.135.525 1.687.847l.268-.269c.285.05.285.05.537.135.076.26.076.26.134.536l-.135.134.378.184c.427.218.427.218.83.487h.269v.402l.251.06c.286.075.286.075.554.209v.268l.294.11c.378.159.378.159.739.377.288.208.288.208.578.185l.134.27v-.538l.537-.268-.135-.27.67-.268.043.293c.072.39.072.39.319.713.176.336.176.336.075.68l-.168.327a12.25 12.25 0 0 0-.134.537l.671.537.404-.27-.134-.402h.268v-.269h.269v.268l.67.134.135.403.268.134-.536.133.134.269h.67l-.402.134.134 1.074h-.268v-.269l-.268.001-.135-.267v.537h.268c.14.22.274.444.402.67.302.46.302.46.806.672.142.319.142.319.268.671l.269.403c.243.39.482.782.721 1.174l.196.32c.376.615.742 1.234 1.096 1.862l.269-.269-.135-.403h.403c-.01-.168-.022-.337-.034-.511-.003-.298-.003-.298.033-.563.269-.269.269-.269.537-.403l-.268-.537h-.269l.134-.805.806.268v-.268h.268l-.133.31c-.158.36-.158.36-.134.763l.402.135-.134.268-.401.134a11.99 11.99 0 0 0-.27.537l-.268.134c-.053.329-.053.329-.068.713-.027.505-.076.86-.335 1.3h.402l-.034.324c.046.656.293 1.153.57 1.74l.156.34.381.819.269-.001.134-.673h.134v1.074l-.268.001.067.446c.068.495.068.495.068.898h.269l.1-.32c.189-.395.303-.473.705-.62v-.403l.403.001v.27l.536.134-.401.268.133.403.805-.134.135.404-.26.1c-.302.143-.302.143-.378.453-.01.083-.022.166-.034.252l-.267-.001-.134-.404c-.046.133-.09.266-.135.403l-.269-.001-.134.402-.403.134c.193 1.263.4 2.543.805 3.758.027.274.049.548.067.822.05.714.117 1.421.201 2.131h.269c-.07.676-.149 1.345-.269 2.014h.269c.018.473.033.853-.136 1.299-.17.573-.152 1.085-.133 1.68.007.214.013.428.017.642l.01.285c-.027.255-.027.255-.295.658v.402l.67-.134-.133 1.074h-.269l-.134-.537c-.046.089-.09.177-.135.269l-.269-.001-.05.51c-.18 1.6-.523 3.142-1.142 4.63-.18.436-.35.877-.52 1.318l-.173.454-.127.335h.268l.001.268-.401.135.133.402h-.269c-.242.472-.482.945-.721 1.418l-.207.403c-.418.82-.418.82-.705 1.69l-.11.382-.403.134c-.362.563-.672 1.06-.672 1.744l-.536.134-.27.94h-.537l-.103.229c-.47.878-1.215 1.624-1.9 2.34-.092.095-.184.19-.278.29-.183.19-.368.378-.554.566l-.257.266-.231.234c-.218.26-.218.26-.167.772h.403l.134.671c-.537 0-.537 0-.94-.134l-.268-.403c-.347.233-.347.233-.671.537v.537h-.536c-.27.147-.27.147-.528.358l-.298.23-.307.243-.304.235c-.673.524-1.306 1.037-1.784 1.753l-.268-.268-.31.31-.764.763-.134-.268-.462.252-.26.141c-.24.132-.24.132-.352.412l.671.135-.134.805h-.538l-.134-1.074c-.493.248-.493.248-.806.68-.134.26-.134.26-.486.429l-.319.1-.134-.403c-.33.33-.403.631-.537 1.073l.671-.134.269.537h.268v.268l-.268.001v.404h-.403l-.134.537c-.134-.043-.267-.088-.404-.133l-.344.075-.327.06-.269-.27v-.268l-.268-.268-.134-.403h-.269l.269-.671-.344.184a6.224 6.224 0 0 1-1.108.407c-.545.149-1.082.322-1.62.49-.33.1-.657.192-.989.278l-.369.118-.134.269-.806-.134-.134.402-.805-.268-.134.537v-.403l-.94.135-.133.403-.671-.134-.135.805c.134.043.267.088.404.133v.537l-.268.135v.536c-.222.002-.443.002-.672.002l.27-.135v-.268l-.538-.001v-.807l-.537.135v.268h-.27c-.316-.355-.52-.62-.67-1.074l-.269-.134.135.671-.805.133v.403h.268l.135.537-1.074-.403-.135.672h-.269c.1-.638.1-.638.403-.94h.402v-.269h-.27l-.133-.402c-.763-.1-1.39-.163-2.149 0-.043.134-.088.267-.133.403l-.403-.134.269-.538-.537.134v-.268l-.537.134-.001-.268-.404.134-.134.403h.537c.087.09.176.178.267.27l.403-.135v.268h-.268l.134.269h.537l.134.94c-.458 0-.89-.066-1.342-.135l-.269-.805h-.268l-.269.537-.135-.807c-.355 0-.615.132-.94.269-.083-.319-.083-.319-.134-.671l.27-.268v.269l.268-.268c-.292-.292-.416-.317-.805-.402l-.269-.135v.403h-.268l-.134-.403a363.048 363.048 0 0 1-.996-.131c-.377-.002-.566.072-.884.267l-.134-.672-.461-.05a16.605 16.605 0 0 1-1.82-.352l.133 1.074h-.402v-.269l-.269.001v-.67l-.403-.134v-.537l-.506-.094c-.8-.178-1.524-.503-2.27-.838-.135-.06-.27-.12-.41-.18a29.072 29.072 0 0 1-1.581-.744c-.333-.188-.333-.188-.737-.159l-.235-.243c-.386-.376-.74-.504-1.241-.696v-.269l-.269-.088c-.54-.243-.996-.568-1.476-.911l-.305-.218a33.805 33.805 0 0 1-2.648-2.14l-.336-.29c-1.594-1.4-3.068-2.89-4.334-4.594a33.31 33.31 0 0 0-.47-.608c-1.325-1.7-2.4-3.568-3.318-5.515l-.268.134c-.196-.356-.269-.524-.269-.94h-.402l.2.377c.202.428.202.428.202.83l-.402.134c-.09-.087-.178-.176-.269-.267h-.403l-.133-.671h-.402l.134-.806.401.135c.046-.088.09-.176.136-.268h.805l-.1-.296c-1.39-4.137-2.26-8.19-2.233-12.575.002-.425 0-.851-.003-1.278-.003-2.426.236-4.795.835-7.15l.102-.418c.322-1.28.71-2.535 1.13-3.785l-.268-.001v-.27h.269v-.671l.536-.001v-.94h.402v-.27h-.268v-.268h.537l.11-.335c.176-.52.367-1.03.562-1.544h.268l.1-.28c.196-.455.448-.863.714-1.28.385-.602.385-.602.663-1.259h.268v-.402c.15-.154.3-.306.456-.453.261-.265.483-.548.711-.84a31.85 31.85 0 0 1 2.594-2.87l.292-.296.286-.29.284-.29a29.212 29.212 0 0 1 2.493-2.119l.293-.226a22.936 22.936 0 0 1 2.39-1.579c.454-.266.773-.456.94-.971.103.001.205.004.31.007.375.01.375.01.764-.143v-.268l.405-.17c.626-.269 1.24-.563 1.855-.858.664-.314.664-.314.962-.314l-.135-.672.402-.134.277-.277c.086-.084.172-.17.26-.259l.269.001-.135.538h.27v-.67h.402l.134.536.262-.073a99.346 99.346 0 0 1 2.934-.757l.445-.11.43-.105.385-.095c.401-.072.775-.079 1.181-.067l.001-.537h.27v.402c.394-.06.789-.122 1.183-.185l.339-.051.326-.053c.1-.015.198-.03.3-.047.425-.107.564-.348 1.023-.294zm8.91.227.135.402-.134-.403zm-5.662 1.719-.25.183a8.5 8.5 0 0 0-1.067.915c.574-.21 1.093-.493 1.62-.797l.249-.14c.426-.246.832-.5 1.218-.807-.792-.094-1.17.186-1.77.646zM34.5 7.92l-.135.27.403-.134-.268-.135zm-7.383.538.134.269-.133-.269zm20.134.94-.343.36c-.348.331-.527.405-.998.445.215.187.215.187.536.269.32-.154.583-.305.873-.504.961-.633.961-.633 1.408-.839-.712-.368-.805-.21-1.477.268zm-19.118.109-.288.125c-.96.443-1.704 1.057-2.472 1.78.468 0 .653-.11 1.06-.334l.389-.213.406-.226.4-.22c.656-.36 1.294-.728 1.907-1.156-.553-.185-.892.02-1.4.243zm10.26-.11-.402.404.67-.268a866.95 866.95 0 0 1-.268-.134zm-.67.404-.135.27h.268l-.134-.27zm12.885 0-.134.27h.268c-.043-.09-.087-.178-.133-.27zm-.403.27-.134.267.403-.134-.269-.134zm-.67.402-.135.268.402-.134-.269-.134zm-5.149.622-.346.227-.362.242-.352.232c-.348.23-.695.46-1.041.691l-.356.238c-.285.189-.57.378-.853.568l.268.135c.357-.189.697-.385 1.04-.596l.619-.373.315-.19c.458-.275.923-.54 1.39-.805l.466-.266.33-.187-.134-.27c-.47 0-.6.098-.987.354zm7.578-.05-.296.195-.305.205-.302.2-.856.572-.475.316-.33.22.267.135c.313-.14.313-.14.659-.355l.395-.234.416-.251c.136-.082.272-.162.413-.245.792-.46.792-.46 1.473-1.065-.544 0-.637.022-1.06.304zm2.265.801-.286.248c-.61.503-1.243.902-1.925 1.298a62.825 62.825 0 0 0-2.517 1.553c-.93.609-1.868 1.2-2.81 1.787a215.66 215.66 0 0 0-3.465 2.198l.268.134c.34-.153.34-.153.726-.385l.455-.264.496-.29.513-.297c.352-.203.703-.408 1.055-.612.47-.274.94-.545 1.412-.815a404.394 404.394 0 0 0 5.52-3.221c.128-.077.256-.153.388-.23.334-.213.533-.378.71-.733l-.134-.269.403-.134c-.354-.14-.475-.172-.81.031zm-5.366 1.177-.134.268.403-.134-.268-.134zm8.054 0-.134.268h.268l-.134.537.403-.268-.27-.538h-.134zm-.403.268c-.303.148-.303.148-.64.371l-.4.253-.428.275-.442.28-.893.569a297.12 297.12 0 0 1-1.998 1.265c-.725.459-1.452.913-2.18 1.367-1.44.897-2.873 1.806-4.294 2.735l.268.134c.31-.14.31-.14.658-.353l.416-.243.453-.27a323.636 323.636 0 0 1 1.212-.71c.711-.417 1.427-.826 2.144-1.233.543-.308 1.086-.62 1.629-.931.516-.298 1.035-.592 1.555-.884.364-.206.727-.413 1.09-.621.174-.1.348-.198.524-.296.242-.137.484-.276.725-.415l.42-.238c.343-.227.343-.227.425-.617l.022-.305-.269-.135zm-15.705.135-.134.268.403-.134c-.089-.045-.177-.09-.269-.135zm-.67.402-.135.269.403-.134-.269-.135zm18.791.672c-.34.182-.34.182-.739.46a90.626 90.626 0 0 1-2.818 1.779 223.69 223.69 0 0 0-3.665 2.292c-.908.58-1.82 1.154-2.736 1.725l-.803.502-1.165.726-1.068.667-.32.2-.295.184-.256.16a4.14 4.14 0 0 0-.631.563c.83-.218 1.518-.663 2.248-1.098a1530.81 1530.81 0 0 1 1.326-.783c.725-.427 1.453-.846 2.182-1.265l.88-.508.44-.254c.873-.502 1.745-1.005 2.616-1.509a767.973 767.973 0 0 1 3.695-2.123l.416-.239c.121-.068.243-.137.367-.21.304-.184.584-.382.863-.6-.175-.42-.175-.42-.537-.671zm1.132 1.876-.286.176-.31.195-.326.202c-.849.527-1.693 1.062-2.537 1.598a228.09 228.09 0 0 1-2.774 1.722 262.1 262.1 0 0 0-3.34 2.08c-.859.544-1.721 1.083-2.584 1.62a215.554 215.554 0 0 0-3.876 2.475l.268.134c.292-.13.292-.13.618-.333l.387-.228.421-.254.889-.526.46-.274a280.718 280.718 0 0 1 2.422-1.42 389.45 389.45 0 0 1 3.366-1.936c1.223-.696 2.44-1.4 3.654-2.111a581.6 581.6 0 0 1 3.154-1.83l.236-.137c.436-.25.872-.502 1.307-.753l.001-.402-.267-.269c-.43 0-.53.047-.881.266zm5.176.673-.402.267.536.672c.18-.39.18-.39.009-.698l-.142-.243zm.671.536.133.268-.134-.268zm-3.893.134-.135.269c.133-.046.266-.09.403-.136l-.268-.134zm-.403.269-.134.267.402-.134-.268-.134zM42.956 19.06l-.134.269.403-.133-.269-.135zm20.552 1.234-.288.183c-.099.063-.196.127-.297.193l-.303.194c-.247.158-.493.317-.738.477l.135.671.402-.134.134-.267c.343-.084.343-.084.67-.134l.135-.673.267.403 1.074-.67-.133-.538c-.538 0-.637.021-1.06.294zm-18.538.243-.403.402.67-.269-.267-.134zm15.852 1.503-.325.195c-.116.07-.232.14-.351.214l-.366.221c-.891.54-1.774 1.094-2.654 1.654a192.71 192.71 0 0 1-2.752 1.707c-1.497.917-2.973 1.86-4.438 2.827l.268.135c.314-.14.314-.14.667-.356l.421-.246.458-.27c.158-.094.316-.186.474-.278l.984-.578c.742-.435 1.488-.864 2.233-1.293a2449.05 2449.05 0 0 0 2.454-1.415l.71-.41.89-.51c.846-.488 1.687-.984 2.523-1.49a956.97 956.97 0 0 0-.403-.135v-.268c-.347 0-.496.117-.792.296zm4.668.98-.295.188c-.074.05-.149.098-.225.148l.268.268c.18-.105.359-.211.537-.318l.302-.18.235-.173v-.268c-.36 0-.522.142-.822.335zm-21.326.737-.134.27.403-.135-.269-.135zm20.269 0c-.395.195-.395.195-.822.462l-.445.268-.343.21.269.134c.396-.195.396-.195.823-.461l.445-.268.343-.21-.267-.135zm-20.94.403-.134.269.401-.135-.267-.134zm23.356 0-.404.403.671-.269-.268-.134zm-.672.403-.403.403.671-.27-.268-.134zm-.671.403-.135.267.403-.134a683.98 683.98 0 0 0-.268-.134zm1.971 2.023-.433.268-.465.292-.478.298a375.666 375.666 0 0 0-3.004 1.892c-.824.522-1.656 1.03-2.49 1.535a206.742 206.742 0 0 0-3.777 2.35l-1.014.64-.348.22-.657.414c-.556.351-1.107.708-1.653 1.075l.27.135c.313-.14.313-.14.666-.357l.42-.245a321.45 321.45 0 0 1 .93-.548l.985-.577c.741-.436 1.487-.864 2.233-1.293l.873-.504 2.182-1.258.867-.501c.674-.39 1.348-.777 2.023-1.163l.711-.406c.296-.17.592-.338.888-.506a27.466 27.466 0 0 0 2.524-1.636l-.134-.537c-.502 0-.691.148-1.116.413zm-53.515 1.466-.135.267.403-.134-.267-.134zm-.672.401c-.337.155-.337.155-.717.386l-.444.258a739.044 739.044 0 0 0-.952.56l-.712.42c-.444.262-.89.52-1.339.77l-.284.162c-.24.137-.482.272-.724.408-.362.232-.362.232-.45.627l-.016.304.238-.154a97.745 97.745 0 0 1 2.105-1.312 80.77 80.77 0 0 0 3.563-2.292c-.089-.045-.177-.09-.269-.135zm36.377.135-.402.403.67-.268-.268-.134zM68.88 30.33a64.168 64.168 0 0 1-3.03 1.912c-1.246.753-2.49 1.51-3.724 2.282a78.632 78.632 0 0 0-2.66 1.72l.269.134c.344-.156.344-.156.735-.39l.46-.266.5-.292.513-.297c.435-.252.87-.505 1.304-.759l1.099-.64c.524-.304 1.047-.61 1.57-.917.568-.332 1.139-.66 1.71-.986l.453-.259.863-.49.389-.224.344-.196c.3-.179.3-.179.394-.59l-.134-.27c-.427 0-.717.293-1.057.53zm4.278-.53-.269.404h.402l-.134-.403zm-.269.806-.135.403.269-.001-.135-.404zm-55.706 2.685-.403.403.672-.268-.268-.134zm52.905.31-.318.203a847.8 847.8 0 0 0-.34.218c-.17.11-.17.11-.344.22-.344.22-.688.44-1.03.662l-.588.376c-.431.276-.862.554-1.292.832l.268.134c.384-.178.384-.178.82-.438l.246-.141.516-.3.783-.452c.749-.431 1.486-.869 2.2-1.354l-.134-.27c-.35 0-.492.122-.787.31zm-53.577.094c-.316.142-.316.142-.672.36l-.421.248-.46.272c-.318.188-.638.375-.958.562l-.247.145c-.81.475-1.63.93-2.452 1.383-2.43 1.213-2.43 1.213-4.589 2.802-.005.224-.006.448 0 .672a95.788 95.788 0 0 0 3.163-1.905l.422-.265 1.246-.784.682-.427a304.19 304.19 0 0 0 4.553-2.928l-.267-.134zM7.25 34.767l.135.269.403-.403c-.279-.02-.279-.02-.537.134zm63.894.269c-1.773 1.032-3.523 2.089-5.235 3.221.088.045.176.09.268.135.375-.174.375-.174.8-.429l.243-.14a505.28 505.28 0 0 1 1.274-.74c.935-.538 1.862-1.086 2.785-1.645l-.136-.402zm-52.886.268-.403.403.671-.269-.268-.134zm-.671.403c-.34.153-.34.153-.726.386l-.456.264-.495.29-.512.295-1.053.612a263.1 263.1 0 0 1-1.439.83c-1.54.885-3.075 1.778-4.601 2.688l-.344.204-.298.178c-.277.16-.277.16-.574.298-.264.111-.264.111-.357.398l-.016.268.269.27c.06-.044.121-.086.184-.13.666-.456 1.349-.869 2.047-1.272 1.083-.628 2.127-1.308 3.172-1.997a74.13 74.13 0 0 1 2.942-1.826 43.355 43.355 0 0 0 2.527-1.623l-.268-.133zm-8.59.134-.135.27.402-.135-.268-.134zm-.672.404c-.334.149-.334.149-.688.37l-.37.215c-.094.072-.188.144-.284.22v.402l1.61-1.074-.268-.134zm57.584 0-.403.403c.221-.09.443-.178.67-.269l-.268-.134zm-6.712.134-.403.403.671-.268-.268-.134zm11.367.95-.433.269-.464.291-.478.297c-1.01.628-2.015 1.261-3.019 1.9-.566.36-1.137.715-1.71 1.066l-.395.243c-.254.155-.507.31-.762.463l-.344.211-.307.186c-.253.152-.253.152-.368.434.659-.19 1.214-.485 1.795-.84l.61-.363.331-.199c.642-.381 1.286-.756 1.93-1.132l.41-.24c.683-.398 1.369-.794 2.057-1.185l.394-.223.74-.418.333-.188c.096-.055.192-.11.292-.165.258-.15.258-.15.506-.417l.001-.403c-.5 0-.69.149-1.115.413zm-51.502.124-.134.268.402-.134-.269-.134zm-.67.403-.135.268.403-.134-.268-.135zm-.404.268c-.34.154-.34.154-.726.386l-.457.263-.495.29-.512.296c-.351.202-.702.406-1.053.61-.475.278-.952.552-1.428.826-1.6.92-3.195 1.845-4.786 2.778l-.38.223c-.11.064-.22.13-.333.195-.275.157-.553.301-.837.44l.134.805c.72-.403 1.418-.832 2.114-1.275.23-.144.457-.289.685-.434l.35-.222 1.575-.997.312-.198c.884-.558 1.77-1.112 2.658-1.665 1.155-.72 2.306-1.448 3.448-2.19l-.269-.134zm47.65.269-.402.402.671-.268a635.03 635.03 0 0 0-.27-.134zm5.222 2.558-.4.257-.417.272-.421.27-1.03.668.268.135c.414-.167.796-.402 1.183-.621l.329-.179c.617-.345 1.105-.685 1.576-1.214-.499 0-.673.141-1.088.41zm-53.41-.008-.288.241c-.368.285-.73.506-1.137.727l-.443.243-.233.127c-.408.223-.816.448-1.223.673l-.25.138c-1.122.622-2.22 1.283-3.322 1.94-.595.352-1.194.7-1.794 1.046l-.326.19c-.744.43-.744.43-1.049.582l.134.671c.78-.31 1.48-.706 2.197-1.142.12-.071.238-.143.36-.217a81.37 81.37 0 0 0 2.425-1.535c.598-.39 1.203-.77 1.813-1.142l.237-.144c.389-.239.778-.475 1.168-.71.711-.434 1.383-.86 2-1.42l-.267-.268zm6.31 2.282c-.32.143-.32.143-.677.361l-.424.247-.46.273-.475.278c-.408.238-.815.478-1.221.717-.608.358-1.217.713-1.827 1.069-.13.075-.26.15-.394.23a361.86 361.86 0 0 1-3.35 1.926c-1.273.725-2.54 1.458-3.803 2.2-.75.44-1.505.87-2.268 1.289l.134.67c.582-.124 1.046-.409 1.552-.712l.305-.182c.835-.498 1.657-1.015 2.477-1.537.907-.576 1.822-1.14 2.738-1.703a523.63 523.63 0 0 0 7.962-4.992l-.269-.134zm47.65 1.074-.268.537h.403l.134-.537h-.267zm-.805.537c-.255.11-.255.11-.533.287l-.329.198-.354.22-.365.222c-.953.583-1.892 1.187-2.828 1.799-.892.583-1.799 1.143-2.704 1.704l.269.134c.35-.153.35-.153.748-.384l.462-.258.493-.28.499-.28a100.27 100.27 0 0 0 3.034-1.776 37.33 37.33 0 0 1 1.61-.914v-.403l.268-.134a635.03 635.03 0 0 0-.269-.135zm.269 2.013-.403.403.671-.268-.268-.134zm-62.148 1.61-.135.27.403-.135-.268-.134zm-.403.27-.134.268.403-.134a614.97 614.97 0 0 1-.268-.135zm20.403.536c-.354.167-.354.167-.755.416l-.232.137-.496.297c-.264.159-.528.316-.792.472l-.816.485c-.853.508-1.71 1.005-2.571 1.5l-.43.248-.86.494-2.175 1.254-.866.5-1.574.909c-3.153 1.82-3.153 1.82-4.674 2.685l.268.672c.687-.28 1.319-.603 1.955-.982l.295-.175c1.062-.635 2.103-1.303 3.145-1.97a291.51 291.51 0 0 1 5.97-3.71 170.74 170.74 0 0 0 2.51-1.553l.302-.19c.695-.44 1.381-.895 2.064-1.354l-.268-.134zm39.698 3.91a111.72 111.72 0 0 1-3.073 1.997c-.761.482-1.515.973-2.262 1.477l.269.134c.35-.153.35-.153.747-.384l.462-.258a811.544 811.544 0 0 0 .99-.56c.475-.268.95-.54 1.423-.81l.36-.204c.28-.16.56-.321.84-.484l.448-.261c.387-.275.638-.542.904-.931v-.27c-.441 0-.755.31-1.108.554zm-55.522.155-.233.134-.738.431-.5.291-1.228.716.268.268a452.778 452.778 0 0 0 1.912-1.133l.697-.413.425-.252c.336-.185.336-.185.457-.484-.42 0-.697.23-1.058.44zm-6.056.9.135.27-.135-.27zm19.598.538-.403.402.671-.268-.268-.134zm-.671.402c-.314.14-.314.14-.667.357l-.42.245c-.15.09-.302.179-.457.27l-.472.278-.985.578c-.742.435-1.488.864-2.233 1.293l-.862.498a413.67 413.67 0 0 1-2.573 1.476l-.678.386-.416.239-.364.207c-.36.226-.685.479-1.012.75l.402.403.204-.126c1.452-.9 2.905-1.798 4.36-2.692 3.239-1.987 3.239-1.987 6.443-4.027l-.268-.135zm-13.02.135-.403.402.67-.268c-.088-.045-.176-.09-.268-.135zm-.672.402-.805.537.268.135.806-.539-.269-.133zm55.571.269c-.353.179-.353.179-.733.45l-.218.147c-.237.16-.473.323-.709.485l-.488.331c-.331.223-.662.448-.992.674-.703.478-1.41.948-2.119 1.418l-.694.463-.489.326.27.135c.303-.136.303-.136.64-.346l.4-.236.428-.258a1273.798 1273.798 0 0 1 1.324-.787 53.4 53.4 0 0 1 1.182-.675l.346-.194c.212-.116.424-.233.637-.348.684-.384 1.149-.826 1.62-1.452l-.403-.134zM23.36 60.54l-.404.402.67-.268-.267-.134zm5.905.545-.626.372-.348.207c-.677.4-1.358.79-2.04 1.183l-.443.256a2190.25 2190.25 0 0 1-2.814 1.618c-.298.173-.597.345-.896.516-.386.223-.772.447-1.158.673l-.337.196c-.25.15-.494.31-.736.474l-.001.268c.224.115.224.115.535.135a7.46 7.46 0 0 0 .856-.479l.264-.162a2658.227 2658.227 0 0 1 1.585-1.005l1.114-.71a198.05 198.05 0 0 1 2.958-1.854 542.158 542.158 0 0 1 2.25-1.386l.275-.167c.459-.265.459-.265.766-.68-.459 0-.824.313-1.208.545zm-6.578-.143c-.336.154-.336.154-.714.385l-.441.258-.472.28a458.99 458.99 0 0 1-1.19.697c-.65.382-1.306.756-1.965 1.124l-.269.15-.586.328.268.268c.96-.384 1.804-.888 2.668-1.451l.746-.48.368-.239c.616-.397 1.236-.79 1.856-1.183-.089-.045-.177-.09-.269-.135zm2.014.806-.402.402.671-.268-.27-.134zm-.67.402c-.336.154-.336.154-.714.385l-.442.258-.472.28a452.258 452.258 0 0 1-1.19.697c-.65.382-1.306.756-1.964 1.124l-.27.15-.586.328.268.268c.736-.293 1.392-.655 2.064-1.074l.313-.193a155.46 155.46 0 0 0 3.261-2.088 683.98 683.98 0 0 0-.268-.135zm-7.249.403c-.043.089-.087.177-.133.268l.403-.133a683.98 683.98 0 0 0-.269-.134zm-.401.268-.136.27.403-.134-.268-.135zm19.06 2.15c-.32.142-.32.142-.677.36l-.425.248-.46.272-.473.277c-.326.19-.65.382-.976.573-.583.343-1.166.683-1.75 1.022l-.797.466c-.64.374-1.28.745-1.923 1.11l-.363.207c-.225.127-.45.254-.677.38-.252.144-.498.298-.743.453v.269c.288.122.288.122.671.134.35-.175.651-.352.974-.57l.285-.185c.298-.194.594-.39.89-.586a261.696 261.696 0 0 1 1.35-.878 173.1 173.1 0 0 1 3.017-1.902 71.13 71.13 0 0 0 2.344-1.517l-.269-.134zm-7.92.939-.403.401.671-.267-.268-.134zm-.672.401c-.395.196-.395.196-.822.463l-.445.268-.342.211.268.27 1.61-1.074-.267-.134zm20.806.941c-.329.168-.64.34-.956.53l-.268.157c-.22.128-.437.258-.655.388l.268.403 1.88-1.343-.269-.134zm-22.953.27v.268h.404l.134-.403c-.279-.02-.279-.02-.537.135zm17.758.426-.228.132c-.242.14-.484.282-.725.423l-.484.282-1.285.75-.38.214c-.315.164-.315.164-.4.483-.01.08-.017.16-.026.243.334-.105.334-.105.67-.269l.135-.403.29-.04c.43-.105.716-.27 1.087-.507.13-.084.261-.167.396-.252l.408-.264.414-.263c.68-.381.68-.381 1.163-.953-.414 0-.679.219-1.035.426zm-18.982.38-.295.226-.224.176.403.134.401-.269.001-.268.672-.134-.134-.268c-.378 0-.526.174-.822.403zm22.165.133-.94.536.27.403.176-.194c.226-.21.226-.21.629-.344l-.134-.403zm-1.207.67-.403.269.134.536.403-.269-.134-.537zm-1.494.873-.295.189-.226.146c.043.178.088.355.133.537l.302-.26c.33-.247.508-.352.906-.41l.001-.538c-.358 0-.52.142-.82.336zm-13.004.335-.134.269.402-.134a229.33 229.33 0 0 1-.268-.135zm8.725-.134c-.514.27-1.024.545-1.535.822l-.442.232-.421.23-.39.21c-.34.236-.34.236-.409.683l-.024.375c.625-.214 1.128-.553 1.669-.923l.26-.177.51-.345c.348-.237.698-.47 1.05-.703l-.27-.403zm-9.127.403c-.302.133-.302.133-.62.327l-.333.193-.255.15c.387.182.387.182.677.002.095-.065.19-.13.288-.195l.29-.192.222-.152c-.09-.043-.178-.088-.269-.133zm12.35 0 .268.403v-.403h-.268zm6.576.537.402.268.806-.537-.135-.268c-.44 0-.722.292-1.074.537zm-7.115 0 .403.403.268-.403h-.67zm6.04.537v.27c.402.184.402.184.764-.034.101-.078.204-.155.31-.235v-.402c-.484 0-.684.129-1.074.403zm-6.845-.133.134.268-.134-.269zm-.537.134c-.136.41-.136.41 0 .806l.403-.134c.098-.27.098-.27.134-.537l-.537-.134zm-.403.27-.134.402h.269l-.135-.403zm12.886.133.403.135c.091.276.091.276.133.537v-.537l.403-.135v-.268c-.355 0-.615.132-.94.268zm-6.426.487c-.05.06-.1.122-.15.185.548.157.743.167 1.257-.11l.353-.293v-.269c-.561 0-1.03.114-1.46.487zm-11.292.05.134.403.269-.134c-.043-.09-.088-.178-.133-.27h-.269zm4.161 0 .268.135-.135.402.537-.268a683.98 683.98 0 0 1-.134-.27h-.537zm-.538 0-.537.403h.269l-.269.537.94-.134.134-.537-.403-.001a683.98 683.98 0 0 1-.135-.27zm14.229.135c.134.132.266.265.403.402l.269-.268c-.222-.046-.443-.09-.671-.135zm-18.657.134.134.267-.134-.268zm11.41-.001.133.267-.134-.268zm-7.92.267-.269.403h.537l.001-.403h-.267zm5.637 1.477-.268.67c.184.208.184.208.403.404h.268l-.134-1.074h-.27zm-1.208.134v.269l.537.134-.135-.402h-.403zm1.61.94.135.402-.134-.402z" fill="currentColor"/><path d="M47.387 74.363c.327.1.327.1.67.269.127.251.127.251.135.537-.126.3-.126.3-.268.536h-.537l.134.268h-.268l-.268.94h-.269v.268h-.268v-.268l-.537.402-.109-.394c-.051-.136-.104-.271-.158-.41l-.403-.135-.27.805h-.268l-.134.403-.134-.403.134-.268h.268c-.01-.094-.022-.188-.034-.285l-.041-.37-.042-.369c-.016-.319-.016-.319.118-.587h.269v-.671c.26.109.26.109.537.268l.134.403c.458.022.458.022.94 0l.268-.269v.269l.268-.134c.089-.408.089-.408.135-.807z" fill="currentColor"/><path d="m11.276 63.357.403.135.133.67.403.135c-.009.196-.02.392-.034.587l-.019.33c-.082.291-.082.291-.356.464l-.263.096v.268h.269l.134.403h-1.074l.269-.537h-.269v-.269c-.266.035-.266.035-.537.134l-.134.402a697.21 697.21 0 0 1-.268-.134l.268-1.342.403.402.033-.42c.115-.59.281-.853.638-1.325zm0 .806-.134.268.402-.133-.268-.134zm.134.805v.403h.269c-.046-.132-.09-.265-.136-.402h-.134z" fill="currentColor"/><path d="M63.76 66.982c.041.786.05 1.633-.48 2.257l-.326.293c-.338-.045-.493-.077-.705-.353-.175-.55-.208-1.012.025-1.553.257-.45.419-.726.905-.93.31.017.31.017.58.285z" fill="currentColor"/><path d="M3.491 25.102c.868.527.868.527 1.075 1.073.04.332.04.332.042.68l.007.349c-.058.373-.15.493-.452.716h-.268l-.134.269a175.558 175.558 0 0 1-.407-.8c-.266-.56-.307-1.002-.264-1.617.2-.395.2-.395.401-.671z" fill="currentColor"/><path d="m54.397 5.764.326.052.329.048.25.044c.278.589.278.589.235.956-.1.252-.1.252-.37.655-.91.102-.91.102-1.417-.22-.193-.318-.193-.318-.185-.73.156-.486.287-.788.832-.806z" fill="currentColor"/><path d="M72.219 56.107c.326.11.326.11.67.269.166.499.208.958.134 1.476-.235.403-.235.403-.537.672-.536 0-.536 0-.767-.227-.294-.53-.282-1.065-.172-1.653.335-.352.335-.352.67-.537z" fill="currentColor"/><path d="m29.4 74.767.403.134-.135.27c.13.04.26.082.395.125.41.143.41.143.545.277.005.268.006.537 0 .805l-.269-.268-.135.267a11.38 11.38 0 0 1-.94-.268v.267h-.402v-.402h-.269v-.269h-.268v-.268c-.177-.09-.354-.178-.537-.269v-.403h.267c.09.132.178.265.27.402v-.403c.386-.194.656-.086 1.073 0zm-.403.536-.134.672.134-.403h.269v-.269h-.269zm.537 0 .134.403v-.403h-.134zm.403.403v.269l.537-.135-.537-.134z" fill="currentColor"/><path d="M24.567 3.49c.319.084.319.084.67.269.345.655.256 1.175.135 1.878l-.403-.134-.135.67a687.47 687.47 0 0 1-.268-.133c-.05-.222-.095-.446-.134-.67l-.135-.135v-.94l-.134-.402.403-.403z" fill="currentColor"/><path d="m22.725 4.01.227.152v.268l.402.135c.093.277.093.277.135.537h.67c0 .402 0 .402-.135.67l.403.135-.268.268h-.403l-.134-.402-.269-.134-.134.267v-.805l-.52.075c-.52.076-.52.076-.822-.075v-.269l-.269-.134c.024-.253.024-.253.134-.538.383-.228.556-.312.981-.15z" fill="currentColor"/><path d="M36.78 3.357h.269l.133.403.343-.014.445-.011.445-.014.379.04c.268.403.268.403.243.747-.11.327-.11.327-.512.595-.532-.042-.907-.235-1.342-.537a567.35 567.35 0 0 0-.134-.268c-.272-.152-.272-.152-.538-.268l.402-.001-.134-.673z" fill="currentColor"/><path d="M44.18 4.59c.387.243.387.243.53.494-.012.401-.187.633-.412.957-.465-.06-.896-.119-1.342-.268-.05-.737-.05-.737.176-1.048.413-.29.572-.316 1.049-.134z" fill="currentColor"/><path d="M39.6 2.415c.076.502.133.968.133 1.477h-.268v-.269l-.529.009a7.953 7.953 0 0 1-.545-.009c-.133-.134-.133-.134-.175-.587.042-.487.042-.487.26-.763.449-.178.693-.044 1.124.142z" fill="currentColor"/><path d="M48.581 76.174c.302.1.302.1.68-.067l.27.135-.135 1.476h-.805v-.268l-.537.134c-.126-.404-.14-.52 0-.94v-.402c.268-.135.268-.135.528-.067zm-.259.202.001.268h.27v-.268h-.269z" fill="currentColor"/><path d="M22.152 73.29c.23.173.453.352.671.538v.268h.403v.269l.671-.537v.268l.537.135v.27h-.268l-.134.268-.537-.135c-.045.089-.09.177-.135.269h-.268v-.403l-.05.26-.084.276c-.18.09-.358.18-.537.268-.319-.488-.236-.785-.133-1.342-.05-.371-.05-.371-.135-.67z" fill="currentColor"/><path d="M.94 35.303h.269l.133.268c.083-.02.166-.043.252-.066.285-.067.285-.067.553-.067v.268c-.132.09-.265.178-.402.269.258.298.258.298.67.403l-.133.402h-.537l-.403.268C1 36.77 1 36.77.672 36.377c.028-.834.028-.834.268-1.074z" fill="currentColor"/><path d="m3.088 53.021.402.001v.941l.403.001-.084-.25a1303.9 1303.9 0 0 1-.051-.286l.267-.268c.269.268.269.268.3.608l-.006.398-.002.399c-.022.34-.022.34-.156.61-.31 0-.31 0-.672-.135-.394-.631-.448-1.288-.402-2.014z" fill="currentColor"/><path d="M3.892 47.383c.26.033.26.033.537.134.308.463.286.569.218 1.1l-.046.366-.038.28.537-.135-.268.537H4.43l-.135.268-.134-.403h.27c-.05-.066-.097-.133-.147-.201-.426-.625-.62-1.033-.525-1.813l.134-.134z" fill="currentColor"/><path d="M71.948 53.826h.402c.168.336.168.336.269.806-.136.385-.325.726-.538 1.073l-.671-.134c-.04-.673 0-1.06.403-1.61l.134-.134z" fill="currentColor"/><path d="M42.013.906c.403.034.403.034.671.302-.077.883-.077.883-.268 1.074-.394.025-.394.025-.805 0-.268-.268-.268-.268-.301-.67.045-.555.15-.66.703-.706z" fill="currentColor"/><path d="M1.345 41.613h.537c.24.411.3.701.286 1.175l-.008.325-.01.245c-.243.093-.243.093-.536.134-.233-.15-.233-.15-.403-.402-.043-.328-.043-.328-.032-.688l.006-.362c.027-.292.027-.292.161-.427z" fill="currentColor"/><path d="m50.607 74.498.268.134-.134.537h-.402l.403.133c-.133.403-.133.403-.536.672h-.403l-.267.268-.537-.403.403-.805.536.134.134-.538.537.134v-.268z" fill="currentColor"/><path d="M4.431 46.578c.122.133.122.133.244.269.277.313.277.313.697.268l.025.29c.063.713.134 1.42.244 2.126-.134.046-.267.09-.404.135l-.044-.27c-.12-.671-.252-1.165-.627-1.743v-.537h-.268l.134-.537z" fill="currentColor"/><path d="m75.175 42.418.671.134-.134 1.477-.403.133-.27-.537-.268.537h-.268v-.671l.403-.134.058-.395c.076-.41.076-.41.21-.545z" fill="currentColor"/><path d="M15.44 13.96c.2.376.275.605.236 1.032-.101.31-.101.31-.37.579l-.402-.402.134-.134-.403-.135.134-.403h.268v-.269h-.805l-.135.403h-.805v-.267l.537.134v-.403c.218-.049.436-.096.654-.143.122-.025.243-.052.368-.079.32-.045.32-.045.589.09z" fill="currentColor"/><path d="M68.459 65.104h.536c.213.427.187.877.134 1.342-.168.277-.168.277-.403.403-.283-.06-.283-.06-.537-.136a47.616 47.616 0 0 1-.017-.654l-.009-.368c.026-.32.026-.32.295-.589z" fill="currentColor"/><path d="m3.09 29.264.537.268-.134.537h-.269c.077.445.208.635.537.939.27.401.27.401.27.938-.327-.084-.327-.084-.671-.268-.052-.268-.096-.536-.136-.806-.262-.192-.262-.192-.536-.268v-.403l.268.135.134-1.074z" fill="currentColor"/><path d="m21.613 73.424.537.268v.403h-.269c.046.177.09.354.136.537l-.395.11-.41.158-.134.403h-.268v-.268l-.269-.135.536-.94a389.69 389.69 0 0 1-.403-.133c.133-.09.266-.178.403-.269v.269l.537.134v-.536z" fill="currentColor"/><path d="M17.184 9.932h.268l.134.268.327.042.344.092c.177.344.177.344.269.672-.396.396-.8.414-1.342.536v-1.61z" fill="currentColor"/><path d="m13.696 66.848.092.251c.23.372.437.423.847.553l.403.134c-.16.336-.16.336-.403.671-.36.042-.36.042-.67 0v-.268l-.538-.134-.134-.94.403-.268z" fill="currentColor"/><path d="m69.537 59.865.402.134c.18.85.18.85-.034 1.266-.235.21-.235.21-.638.21-.18-.373-.272-.615-.243-1.032.109-.31.109-.31.512-.579z" fill="currentColor"/><path d="M69.936 57.047h.403l-.135.94c.403.044.403.044.63-.202l.175-.201c.034 1.023.034 1.023-.268 1.476l-.537-.134.134-.537-.672-.27c.117-.922.117-.922.268-1.073z" fill="currentColor"/><path d="M16.246 68.457h.269l.268.805h.268l.27.537-.268.134v-.269h-.27v.403h.27c.033.755.033.755-.27 1.208h.27v.268l-.537-.134c-.017-.772-.017-.772.134-1.074-.075-.312-.075-.312-.194-.654-.152-.455-.21-.734-.21-1.225z" fill="currentColor"/><path d="m1.077 37.988.537.537.403-.134.268.135c.056.278.056.278.084.613l.03.336.02.26h-.403v-.806c-.262.026-.262.026-.537.134-.154.269-.154.269-.269.537a30.53 30.53 0 0 1-.217-.58c-.04-.107-.08-.215-.123-.325L.81 38.39l.267-.402z" fill="currentColor"/><path d="M48.055 2.686c.632.094.632.094.805.268.006.268.006.537 0 .805l-.67.268-.538-.537c.252-.653.252-.653.403-.804z" fill="currentColor"/><path d="M71.82 25.906c.339.045.493.082.712.353.13.444.045.807-.042 1.257l-.67.134.016-.368c-.016-.42-.07-.622-.285-.973l.27-.404z" fill="currentColor"/><path d="m65.24 63.223.134.268.268.001-.008.48a9.08 9.08 0 0 0 .142 1.535l-.134-.269h-.268l-.134.403-.135-.538h.269l-.269-.403c-.065-.295-.065-.295-.1-.613l-.04-.32c.006-.276.006-.276.275-.544z" fill="currentColor"/><path d="M13.29 11.408h.268l.134.403.671.135-.134.537c-.814.131-.814.131-1.075.134l-.268-.268c.052-.405.17-.59.402-.94z" fill="currentColor"/><path d="M8.728 60.672h.268c.213.557.345 1.014.269 1.61-.269.387-.269.387-.537.672-.324-1.124-.324-1.124-.134-1.745l.075-.312.058-.226z" fill="currentColor"/><path d="M14.769 9.396h.804l.134.403c.268.161.268.161.537.268l-.134.402c-.318-.042-.318-.042-.67-.134-.09-.133-.178-.266-.269-.403h-.267v.269a944.24 944.24 0 0 1-.403-.134l.269-.672z" fill="currentColor"/><path d="M74.365 33.29h.134c-.009.215-.02.43-.034.645l-.02.363c-.08.333-.08.333-.356.578l-.262.158c-.268-.403-.268-.403-.252-.814.118-.394.118-.394.386-.562l.269-.1.135-.269z" fill="currentColor"/><path d="m2.953 41.074.277.126c.444.16.866.222 1.334.277-.176.335-.176.335-.403.671H3.76l-.001-.268h-.404l-.134.268c-.17-.39-.269-.644-.269-1.074z" fill="currentColor"/><path d="M50.874 7.384c.352-.025.352-.025.671 0 .092.31.092.31.134.671-.194.244-.194.244-.403.403l-.672-.269c0-.403 0-.403.269-.806z" fill="currentColor"/><path d="m8.59 57.988.403.135c.218.504.301.928.269 1.476h-.269v-.27h-.537c-.191-.315-.28-.467-.218-.838l.084-.235.403.537-.134-.806z" fill="currentColor"/><path d="M39.597.269c.352-.026.352-.026.67-.001.09.22.178.442.27.67l-.538.403c-.26-.11-.26-.11-.538-.269l-.134-.402.269-.403z" fill="currentColor"/><path d="m6.71 61.746.67.134c.152.772.152.772 0 1.074h-.536c-.285-.755-.285-.755-.134-1.208z" fill="currentColor"/><path d="m75.844 33.96.403.135c.05.744.05.744-.202 1.057l-.2.151-.404-.268c.102-.772.102-.772.404-1.074z" fill="currentColor"/><path d="m61.48 10.604.671.268-.133.671c-.503.151-.503.151-.805 0-.017-.319-.017-.319 0-.67l.268-.27z" fill="currentColor"/><path d="M1.615 27.652h.268v.671h.403v.403l.537.134v.269l-.269-.001-.268.536c-.269-.638-.269-.638-.269-.94l-.402-.134a17.288 17.288 0 0 1-.135-.805l.135-.135z" fill="currentColor"/><path d="M6.85 24.967h.268v.403h.268c.15.754.15.754 0 1.208l-.403-.135v-.268l-.268-.134.134-1.073z" fill="currentColor"/><path d="m10.337 16.643.672.134.133.67c-.244.085-.244.085-.537.135l-.403-.268.134-.671z" fill="currentColor"/><path d="M60.402 10.604c.352.125.352.125.67.268l-.133.537a11.87 11.87 0 0 1-.672.133c-.135-.134-.135-.134-.143-.478l.008-.327.269-.134z" fill="currentColor"/><path d="M4.568 52.082c.268 0 .268 0 .486.15.26.355.213.631.185 1.058H4.7c-.134-.134-.134-.134-.147-.382l.013-.826z" fill="currentColor"/><path d="m3.894 42.281.268.001v.807c-.355.196-.523.268-.94.268-.15-.503-.15-.503 0-.805h.538l.134-.269z" fill="currentColor"/><path d="m26.045 74.363.805.269-.134.537-1.208-.001v-.404l.537-.134v-.269z" fill="currentColor"/><path d="m7.65 21.342.67.134-.007.302c.007.33.05.592.142.906h-.402v-.671l-.537-.269.134-.402z" fill="currentColor"/><path d="m8.188 20.27.805.134.269.805c-.923-.118-.923-.118-1.074-.27a13.434 13.434 0 0 1 0-.67z" fill="currentColor"/><path d="m26.714 6.979.537.133v.537l-1.073.268a864.97 864.97 0 0 1-.134-.268h.268l.001-.269.27.001.134-.401z" fill="currentColor"/><path d="m33.427 4.967.671.134.135.538-.537.268-.403-.268.134-.671z" fill="currentColor"/><path d="M31.681 75.975h.404c.158.493.144.962.134 1.476l-.403.001-.058-.242c-.06-.235-.133-.466-.21-.697.059-.292.059-.292.134-.535z" fill="currentColor"/><path d="M25.777 75.572h.134l.051.395c.029.135.057.27.085.41l.268.135v.268l-.67.135-.043-.26-.092-.277a389.69 389.69 0 0 1-.403-.135v-.402h.537c.045-.088.09-.176.135-.268z" fill="currentColor"/><path d="m.134 34.63.403.135.134.94H.135A408.17 408.17 0 0 0 0 35.57c.039-.314.083-.627.134-.94z" fill="currentColor"/><path d="M2.953 39.195h.671l.135.672-.673.134-.134-.805z" fill="currentColor"/><path d="M4.299 28.592h.536l.268.94H4.7l.001-.403-.67.133-.268-.537.402.134.135-.268z" fill="currentColor"/><path d="M16.38 67.248a7.122 7.122 0 0 1-.403 1.208l-.403-.134c.042-.386.042-.386.134-.805.403-.27.403-.27.672-.27z" fill="currentColor"/><path d="m69.938 61.342.402.134c-.117.638-.117.638-.268.94h-.403c-.093-.235-.093-.235-.135-.537.193-.303.193-.303.403-.538z" fill="currentColor"/><path d="M74.904 46.578c.127.459.145.866.134 1.342h-.403l-.134.269c-.117-.332-.15-.49-.029-.825l.157-.284.155-.286.122-.216z" fill="currentColor"/><path d="M66.715 17.986c.32.078.626.164.94.269l-.135.805-.402-.134c-.093-.277-.093-.277-.135-.537h-.268v-.404z" fill="currentColor"/><path d="M53.962 8.322h.537l.133.671-.67.135a11.875 11.875 0 0 1-.135-.672l.134-.134z" fill="currentColor"/><path d="m3.492 51.14.537.27.268-.27.134.403c-.193.361-.193.361-.403.672l-.404-.135-.134-.94z" fill="currentColor"/><path d="m61.883 12.752.536.268-.135.537-.67.135c-.018-.32-.018-.32 0-.672l.268-.268z" fill="currentColor"/><path d="m21.074 75.44.134.805-.302.042c-.392.098-.602.235-.906.495v-.403h.268v-.404l.403-.134.001-.268c.27-.134.27-.134.404-.134z" fill="currentColor"/><path d="m51.412 73.424.67.67-.268.94-.537-.134.135-.402.268-.135v-.268l-.268-.134v-.536z" fill="currentColor"/><path d="m66.442 67.651-.134.538-.243-.075c-.316-.089-.316-.089-.696.075-.046-.177-.09-.354-.136-.537.447-.147.755-.112 1.208.001z" fill="currentColor"/><path d="M15.173 12.213c.277.059.277.059.537.134l-.134.671-.537-.134c0-.537 0-.537.133-.671z" fill="currentColor"/><path d="M25.906 6.174h.671l.135.403h.537l-.001.268c-.455.017-.455.017-.941 0-.27-.268-.27-.268-.404-.671z" fill="currentColor"/><path d="M73.693 47.115h.537c.025.32.025.32 0 .671-.133.09-.266.178-.403.269l-.268-.269c.049-.352.049-.352.133-.67z" fill="currentColor"/><path d="m75.436 37.584.403.268-.135.672-.537-.135c.117-.655.117-.655.268-.806z" fill="currentColor"/><path d="M46.042 5.102c.285.125.285.125.537.268l-.27.537-.537-.134v-.537l.269-.134z" fill="currentColor"/><path d="M5.642 58.66c.277.059.277.059.537.134v.672H5.64a11.868 11.868 0 0 1-.134-.672l.134-.134z" fill="currentColor"/><path d="M2.284 49.664h.269v1.074H2.15l-.134-.806h.268v-.268z" fill="currentColor"/><path d="M41.343 75.44h.268l.001.402.404.134-.134.269c-.344.084-.344.084-.672.134-.083-.244-.083-.244-.134-.538l.269-.403z" fill="currentColor"/><path d="m9.666 69.396.402.135c.093.278.093.278.135.538l-.403.268-.268-.134a13.434 13.434 0 0 1 0-.671l.134-.133z" fill="currentColor"/><path d="m2.959 49.396.401.135c.102.26.102.26.136.538l-.135.268-.535-.134a13.41 13.41 0 0 1 0-.671l.134-.133z" fill="currentColor"/><path d="m11.548 14.766.671.134c-.043.26-.043.26-.135.537l-.403.134c-.142-.25-.142-.25-.268-.536l.134-.268z" fill="currentColor"/><path d="m58.793 11.275.671.269-.134.805-.537-.27.076-.25c.09-.292.09-.292-.077-.555z" fill="currentColor"/><path d="M12.886 63.627v.805h-.403l-.268-.67c.268-.135.268-.135.67-.135z" fill="currentColor"/><path d="M5.775 55.438h.268c.192.316.28.467.218.838-.026.078-.054.155-.082.235-.277-.234-.277-.234-.537-.536.034-.302.034-.302.135-.536z" fill="currentColor"/><path d="m35.302 2.281.403.001.134.807-.538.268.134-.537h-.268l.134-.537z" fill="currentColor"/><path d="m71.01 54.63.27.135-.135.806h-.403v-.805l.269-.134z" fill="currentColor"/><path d="m22.016 9.127.805.134.135.404h-.268v.268h.268v.269h-.403c-.134-.402-.134-.402 0-.805l-.536-.268z" fill="currentColor"/><path d="M26.98 76.377c.269 0 .269 0 .495.168l.177.235c-.042.293-.042.293-.135.537-.177-.09-.354-.178-.537-.269v-.67z" fill="currentColor"/><path d="M21.878 75.707h.537v.269l-.269.134c-.152.27-.152.27-.268.537l-.269-.672.268-.268z" fill="currentColor"/><path d="m67.115 68.324.402.134-.134.806-.403-.134.135-.806z" fill="currentColor"/><path d="m68.058 60.404.67.269-.134.402h-.805c.088-.22.176-.443.268-.67z" fill="currentColor"/><path d="m2.15 41.342.537.268-.134.671-.537-.535.134-.403z" fill="currentColor"/><path d="m35.84 1.88.67.27v.268h-.267v.402h-.269l-.134-.94z" fill="currentColor"/><path d="m13.155 65.371.134.001v1.478l-.403-.403v-.537h.268v-.537z" fill="currentColor"/><path d="M72.892 61.613h.269c.126.404.14.52 0 .94l-.402-.134a13.41 13.41 0 0 1 0-.672l.134-.135z" fill="currentColor"/><path d="M13.561 15.166h.404v.537h-.268l-.135.403-.267-.135v-.401l.268-.001.001-.404z" fill="currentColor"/><path d="m30.205 3.49.537.134-.135.537-.537-.133.135-.537z" fill="currentColor"/><path d="M64.969 66.31h.267c.196.356.269.523.269.94h.268v.269l-.403-.001c-.131-.4-.264-.799-.401-1.21z" fill="currentColor"/><path d="M4.298 58.66h.269l.134.806H4.3a11.868 11.868 0 0 1-.134-.672l.134-.134z" fill="currentColor"/><path d="M76.78 38.256h.269c.024.319.024.319-.001.67l-.404.27c-.084-.244-.084-.244-.134-.537l.268-.404z" fill="currentColor"/><path d="m42.284 77.451.671.404c-.243.21-.243.21-.537.403a913.91 913.91 0 0 1-.402-.135l.268-.67z" fill="currentColor"/><path d="M52.35 74.363h.67l-.134.403-.671.134.134-.537z" fill="currentColor"/><path d="m4.833 56.912.403.134-.134.671h-.269a11.86 11.86 0 0 1-.134-.67l.133-.135z" fill="currentColor"/><path d="M10.469 13.69h.67l-.134.536h-.537l-.001-.536z" fill="currentColor"/><path d="m24.83 75.84.135.537h.269v.268h-.671c.117-.654.117-.654.268-.805z" fill="currentColor"/><path d="M76.646 43.49c.277.06.277.06.537.134l-.269.537-.268.001c-.076-.259-.076-.259-.134-.535l.134-.135z" fill="currentColor"/><path d="M1.344 40.537h.402l.135.806-.536-.27v-.536z" fill="currentColor"/><path d="M11.95 15.57h.402v.403l.537.269-.27.134-.402-.134v-.27h-.269v-.402z" fill="currentColor"/><path d="m22.552 8.188.537.134-.135.67h-.269V8.59h-.268l.134-.403z" fill="currentColor"/><path d="M43.894 6.174h.268l.134.537h-.268v.27h-.269l-.135-.538h.269v-.268z" fill="currentColor"/><path d="M43.222 2.281c.132.046.265.09.402.135l-.268.537-.403-.134v-.403l.269-.134z" fill="currentColor"/><path d="M42.15 76.512h.805v.268c-.243.143-.243.143-.537.269l-.402-.136.134-.402z" fill="currentColor"/><path d="m15.168 66.58.268.134v.269l.403.134-.135.403h-.269v-.403h-.268v-.537z" fill="currentColor"/><path d="m1.883 54.23.537.135-.135.537-.402-.135v-.536z" fill="currentColor"/><path d="m3.898 45.504.537.134.135.671H4.3l.001-.27-.402-.133v-.403z" fill="currentColor"/><path d="m75.305 39.732.537.135-.135.537h-.402v-.672z" fill="currentColor"/><path d="M2.69 35.035v.806h-.403l-.135-.536c.403-.269.403-.269.537-.269z" fill="currentColor"/><path d="M51.275 3.49h.403l-.135.671-.402-.133.135-.537z" fill="currentColor"/><path d="M17.992 68.592c.269.16.269.16.537.402.033.361.033.361 0 .672-.39-.322-.47-.58-.538-1.074z" fill="currentColor"/><path d="M71.145 55.84h.268l.134.805h-.402v-.805z" fill="currentColor"/><path d="m4.028 39.865.537.134v.402l-.94-.134.134-.269.268.134v-.269z" fill="currentColor"/><path d="m45.374 4.43.268.134v.268l.269.135-.536.134-.269-.536.269-.134z" fill="currentColor"/><path d="M37.992 76.244h.671v.403l-.67.134v-.536z" fill="currentColor"/><path d="m57.992 10.873.671.134-.134.403-.538-.134v-.403z" fill="currentColor"/><path d="m42.281 4.967.27.134v.27h.268v.268l-.537.134.001-.805z" fill="currentColor"/><path d="m38.392 75.168.269.134v.806h-.268a17.398 17.398 0 0 1-.134-.806l.134-.134z" fill="currentColor"/><path d="M64.697 65.236h.268v.672h-.402l.134-.672z" fill="currentColor"/><path d="M67.387 62.818h.268v.94h-.268v-.94z" fill="currentColor"/><path d="m6.715 55.975.268.134v.267l.403-.134-.268.537c-.202-.176-.202-.176-.403-.403v-.402z" fill="currentColor"/><path d="m3.09 35.035.537.134-.134.402H3.09v-.537z" fill="currentColor"/><path d="M1.61 32.484h.268c.142.244.142.244.268.537l-.134.404c-.403-.487-.403-.487-.403-.94z" fill="currentColor"/><path d="m38.93 5.37.537.133-.135.403h-.402V5.37z" fill="currentColor"/><path d="M2.82 36.512h.269c.19.316.279.467.217.839l-.084.236-.134-.403a83.052 83.052 0 0 0-.27-.671z" fill="currentColor"/><path d="m.945 27.92.537.134v.403l-.402.134-.135-.67z" fill="currentColor"/><path d="m75.04 26.31-.133.538h-.403v-.403c.268-.135.268-.135.537-.135z" fill="currentColor"/><path d="M28.595 6.71h.269v.27h.402l-.134.402-.671-.403.135-.27z" fill="currentColor"/><path d="m10.469 62.15.267.135v.67l-.268.135-.001-.94z" fill="currentColor"/><path d="m68.728 59.732.403.135-.134.402-.402-.135.134-.403z" fill="currentColor"/><path d="m74.77 37.047.134.403-.537.268v-.403l.403-.268z" fill="currentColor"/><path d="M48.458 6.578h.537v.403l-.67-.133c.043-.09.088-.178.133-.269z" fill="currentColor"/><path d="M27.387 6.31h.402l-.135.672-.268-.135v-.536z" fill="currentColor"/><path d="m23.36 5.906.27.269c-.051.285-.051.285-.135.537h-.268l.134-.806z" fill="currentColor"/><path d="m64.697 66.848.268.268c-.05.353-.05.353-.134.671l-.268-.134.135-.805z" fill="currentColor"/><path d="M65.906 65.908h.537v.269l-.537.268v-.537z" fill="currentColor"/><path d="m8.059 60.27.401.134-.133.537-.268-.268-.001-.403z" fill="currentColor"/><path d="m8.459 57.584.133.403-.268.134-.403-.268.537-.268z" fill="currentColor"/><path d="M6.578 57.047h.269l.134.537h-.402v-.537z" fill="currentColor"/><path d="M8.059 56.78h.267v.805a614.97 614.97 0 0 1-.268-.135l-.001-.67z" fill="currentColor"/><path d="m75.17 44.162.27.134v.403l-.538-.135.269-.403z" fill="currentColor"/><path d="m4.431 37.184.404.134v.403l-.537-.134.134-.402z" fill="currentColor"/><path d="M75.574 35.84h.403v.537l-.403-.134v-.403z" fill="currentColor"/><path d="m73.966 35.303.269.537-.403.134.134-.671z" fill="currentColor"/><path d="M3.492 30.068h.269l.135.806-.269-.135c-.083-.344-.083-.344-.134-.672z" fill="currentColor"/><path d="m2.281 27.652.404.135.134.67H2.55l-.269-.805z" fill="currentColor"/><path d="m12.215 13.69.403.134v.402h-.403v-.536z" fill="currentColor"/><path d="M56.245 9.531c.133.046.266.09.403.135v.269l-.671.134V9.8h.268V9.53z" fill="currentColor"/><path d="M42.688 4.43h.402v.402h-.268l-.134.269v-.67z" fill="currentColor"/><path d="m37.047.672.403.268v.403l-.403-.134V.67z" fill="currentColor"/><path d="m27.387 75.44.402.134-.403.402v-.536z" fill="currentColor"/><path d="m24.7 74.363.536.269v.268l-.537-.134v-.403z" fill="currentColor"/><path d="m25.908 72.887.537.268v.269l-.672-.269.135-.268z" fill="currentColor"/><path d="m11.414 68.861.403.001-.135.538-.268-.134v-.403z" fill="currentColor"/><path d="M15.439 68.457h.267l-.134.537h-.268l.134-.537z" fill="currentColor"/><path d="m11.008 62.55.402.135-.134.403h-.268v-.537z" fill="currentColor"/><path d="M6.314 60.805h.403v.402l-.537-.134.134-.268z" fill="currentColor"/><path d="M6.85 58.928h.268l-.135.67-.268-.133.134-.537z" fill="currentColor"/><path d="M6.715 57.852h.403v.536h-.269l-.135-.536z" fill="currentColor"/><path d="M70.876 56.912h.269v.537h-.403l.134-.538z" fill="currentColor"/><path d="M76.382 35.303h.268l-.134.537-.403-.135.269-.402z" fill="currentColor"/><path d="M8.188 23.758h.268l.134.67h-.268l-.134-.67z" fill="currentColor"/><path d="m7.25 23.357.403.135v.402l-.403-.134v-.403z" fill="currentColor"/><path d="m68.461 19.463.27.134v.269h-.671c.133-.269.133-.269.401-.403z" fill="currentColor"/><path d="M69.262 18.658h.67v.269h-.67v-.269z" fill="currentColor"/><path d="m67.383 17.315.269.134-.269.401-.268.001-.134-.401c.133-.046.266-.09.403-.135z" fill="currentColor"/><path d="M62.281 13.69h.404l-.134.536-.269-.134.001-.403z" fill="currentColor"/><path d="M22.283 9.932v.268h-.268v.269l-.269-.001v-.404c.269-.134.269-.134.537-.134z" fill="currentColor"/><path d="m40.54 77.72.269.135-.135.403h-.269l.135-.537z" fill="currentColor"/><path d="M41.344 76.645h.537v.268l-.536.134v-.402z" fill="currentColor"/><path d="m35.173 76.377.269.537h-.403l.133-.537z" fill="currentColor"/><path d="m50.203 73.963.403.268-.134.404-.269-.268v-.403z" fill="currentColor"/><path d="M61.746 69.934h.403l-.27.536-.134-.536z" fill="currentColor"/><path d="m61.074 69.264.269.134v.537h-.269v-.671z" fill="currentColor"/><path d="m15.438 69.264.268.134v.671l-.269-.27v-.536z" fill="currentColor"/><path d="m9.13 67.652.403.135-.134.268h-.404l.134-.403z" fill="currentColor"/><path d="m12.215 66.848.537.268-.269.269-.268-.537z" fill="currentColor"/><path d="M64.83 64.295c.135.403.135.403 0 .805l-.268-.134.27-.671z" fill="currentColor"/><path d="m9.934 64.162.402.134-.134.403-.268-.135v-.403z" fill="currentColor"/><path d="m67.117 61.88.537.538-.537-.134v-.403z" fill="currentColor"/><path d="m6.04 61.479.269-.001-.135.535h-.269l.134-.536z" fill="currentColor"/><path d="m5.371 50.605.404.135-.134.402-.269-.134.001-.403z" fill="currentColor"/><path d="m2.281 33.691.538.136v.268l-.537-.134.001-.269z" fill="currentColor"/><path d="m1.878 29.531.268.135v.269l-.537.134V29.8h.268v-.269z" fill="currentColor"/><path d="M76.247 28.457h.27l-.135.537-.269-.134.134-.403z" fill="currentColor"/><path d="m.945 26.578.269.134c.084.344.084.344.134.671-.201-.176-.201-.176-.403-.402v-.402z" fill="currentColor"/><path d="M71.412 23.895h.268v.67l-.403-.134.135-.535z" fill="currentColor"/><path d="m12.35 16.912.268.269-.806.135c.135-.269.135-.269.537-.403z" fill="currentColor"/><path d="M10.875 15.975h.403v.402h-.403v-.402z" fill="currentColor"/><path d="M64.162 13.422h.536v.268l-.67.135.134-.403z" fill="currentColor"/><path d="m63.36 13.154.27.134-.135.403-.268.001.134-.536z" fill="currentColor"/><path d="M55.436 9.664c.09.177.178.354.269.537l-.537-.267.268-.269z" fill="currentColor"/><path d="M28.322 4.697h.268l-.134.537-.268-.134.134-.403z" fill="currentColor"/><path d="m46.98 79.598.403.134V80h-.403v-.402z" fill="currentColor"/><path d="M37.32 79.06h.537l-.134.403-.403-.402z" fill="currentColor"/><path d="M45.508 78.256v.403a705.9 705.9 0 0 0-.403.267c.252-.52.252-.52.403-.671z" fill="currentColor"/><path d="m45.908 77.854.268.134-.134.402-.269-.134.135-.402z" fill="currentColor"/><path d="m41.883 77.049.403-.001v.267l-.403.134v-.401z" fill="currentColor"/><path d="M34.367 76.912h.671l-.268.269h-.403v-.268z" fill="currentColor"/><path d="m14.23 71.814.269.135c-.045.176-.09.353-.135.536l-.134-.672z" fill="currentColor"/><path d="m21.48 70.738.269.134-.135.537-.135-.672z" fill="currentColor"/><path d="M12.083 65.639c.09.087.178.176.269.267l-.134.269h-.269c.043-.178.088-.355.133-.537z" fill="currentColor"/><path d="M67.922 61.21h.403v.402l-.403-.135v-.268z" fill="currentColor"/><path d="m7.516 60.27.268.134v.67c-.268-.402-.268-.402-.268-.805z" fill="currentColor"/><path d="M8.996 59.732h.269l-.269.537v-.538z" fill="currentColor"/><path d="M5.773 56.512h.269l-.269.537v-.538z" fill="currentColor"/><path d="M75.707 47.115c0 .403 0 .403-.134.671a338.19 338.19 0 0 0-.268-.134l.402-.537z" fill="currentColor"/><path d="M1.21 39.732h.404v.403l-.403-.134v-.268z" fill="currentColor"/><path d="M75.04 37.184h.268l-.135.67h-.134v-.67z" fill="currentColor"/><path d="M74.636 35.438c.134.402.134.402 0 .805a338.19 338.19 0 0 0-.269-.134l.269-.673z" fill="currentColor"/><path d="M73.966 31.14c.089.045.177.09.269.135l-.134.403a222.05 222.05 0 0 1-.268-.135l.134-.402z" fill="currentColor"/><path d="m73.02 27.652.27.135v.402h-.27c-.043-.134-.088-.267-.133-.403l.134-.135z" fill="currentColor"/><path d="M71.013 24.967h.269v.403h-.403l.133-.403z" fill="currentColor"/><path d="m4.562 24.162.403.269-.134.403-.267-.67z" fill="currentColor"/><path d="M70.876 23.895c.09.088.178.177.269.268l-.403.403.134-.671z" fill="currentColor"/><path d="m73.559 22.281.267.001-.134.672h-.134l-.001-.67z" fill="currentColor"/><path d="M62.016 11.812h.537l-.135.403-.402-.403z" fill="currentColor"/><path d="m15.439 11.545.536.134v.133h-.671l.134-.268z" fill="currentColor"/><path d="M13.695 11.275h.403v.403l-.403-.134v-.269z" fill="currentColor"/><path d="m25.773 6.71.403.135-.134.403-.269-.134V6.71z" fill="currentColor"/><path d="M25.369 6.443c.131.045.264.09.401.135l-.536.268.135-.403z" fill="currentColor"/><path d="M46.18 6.174h.402v.268l-.402.135v-.403z" fill="currentColor"/><path d="m22.688 5.771.402.001-.134.404h-.268v-.403z" fill="currentColor"/><path d="m35.438 3.893.402.134-.134.537c-.269-.52-.269-.52-.269-.671z" fill="currentColor"/><path d="m37.853 78.121.268.135-.133.403h-.268l.133-.537z" fill="currentColor"/><path d="m31.95 75.44.402.134-.134.268h-.269v-.403z" fill="currentColor"/><path d="M39.064 75.303h.268l-.134.402h-.268l.134-.402z" fill="currentColor"/><path d="M21.48 74.768h.403l-.134.402-.27-.134v-.268z" fill="currentColor"/><path d="M49.13 74.63h.269l-.27.538a635.03 635.03 0 0 1-.134-.269l.134-.27z" fill="currentColor"/><path d="m30.34 73.826.403.403-.403-.001v-.404z" fill="currentColor"/><path d="m49.939 73.559.267-.001-.134.401-.268.001.134-.401z" fill="currentColor"/><path d="m23.36 73.559.27-.001c-.045.132-.09.264-.135.401l-.268.001.134-.401z" fill="currentColor"/><path d="m59.869 68.994.267.269-.403.268c.045-.176.09-.353.135-.536z" fill="currentColor"/><path d="m13.556 68.592.134.537-.268-.001.134-.538z" fill="currentColor"/><path d="M65.505 66.04h.135v.672l-.269-.134.135-.537z" fill="currentColor"/><path d="M68.193 62.955h.268l-.133.403h-.268l.133-.403z" fill="currentColor"/><path d="M6.309 59.195h.267l-.134.537-.134-.537z" fill="currentColor"/><path d="M5.371 57.719c.09.087.178.176.27.267l-.135.403-.134-.671z" fill="currentColor"/><path d="M5.906 52.887h.269l-.135.537-.134-.537z" fill="currentColor"/><path d="M1.615 50.336h.134l-.001.671h-.27l.135-.671z" fill="currentColor"/><path d="M3.36 47.787c.268.403.268.403.268.671h-.269v-.67z" fill="currentColor"/><path d="M74.365 40h.268v.403l-.403-.134.135-.27z" fill="currentColor"/><path d="M75.305 38.928h.268l-.134.67h-.135v-.67z" fill="currentColor"/><path d="m72.758 28.992.402.134-.134.269h-.268v-.403z" fill="currentColor"/><path d="M5.906 28.725h.403l-.135.402a761.98 761.98 0 0 0-.269-.134v-.268z" fill="currentColor"/><path d="M71.279 26.04h.267l-.134.402h-.269l.135-.403z" fill="currentColor"/><path d="m72.892 25.639.269-.001-.134.401-.268.001.134-.401z" fill="currentColor"/><path d="m72.22 24.967.269.134-.001.27h-.404l.134-.403z" fill="currentColor"/><path d="M6.04 24.027h.269l-.135.403h-.269l.134-.403z" fill="currentColor"/><path d="M3.762 24.027h.268l-.134.537-.134-.537z" fill="currentColor"/><path d="m71.95 23.357.135.537-.269.135.135-.673z" fill="currentColor"/><path d="m6.986 22.148.268.135-.134.402-.268-.268.134-.269z" fill="currentColor"/><path d="M69.802 20.537h.269l-.134.403h-.268l.134-.403z" fill="currentColor"/><path d="M69.668 20h.537v.268h-.537V20z" fill="currentColor"/><path d="M10.205 15.975h.402v.268l-.537-.134.135-.135z" fill="currentColor"/><path d="m12.35 14.361.267.001-.134.404h-.268l.134-.403z" fill="currentColor"/><path d="M17.719 9.531c.132.046.265.09.401.135l.001.269-.401-.134-.001-.269z" fill="currentColor"/><path d="m14.23 9.127.402.134v.135h-.671l.27-.268z" fill="currentColor"/><path d="M39.602 6.04h.268l-.134.536-.134-.537z" fill="currentColor"/><path d="m37.184 4.834.537.134-.536.134v-.268z" fill="currentColor"/><path d="m42.15 4.43.134.402-.268.269.134-.67z" fill="currentColor"/><path d="M37.454 1.342h.27l-.135.402h-.27l.134-.402z" fill="currentColor"/><path d="m43.76 77.451.27.27-.538.134.269-.403z" fill="currentColor"/><path d="M31.008 76.377h.268l.135.403-.402-.135v-.268z" fill="currentColor"/><path d="M49.668 74.63h.268l-.134.538-.134-.537z" fill="currentColor"/><path d="m25.234 74.23.403.135-.268.268c-.046-.133-.09-.266-.136-.403z" fill="currentColor"/><path d="M48.994 74.096h.268l-.134.402-.269-.268.134-.134z" fill="currentColor"/><path d="m23.762 73.29.402.135-.268.269-.134-.403z" fill="currentColor"/><path d="m58.126 70.201.269.135v.269a913.91 913.91 0 0 1-.403-.134l.134-.269z" fill="currentColor"/><path d="m65.908 69.129.134.402-.269.134.135-.537z" fill="currentColor"/><path d="M65.508 68.592h.134v.805h-.134v-.805z" fill="currentColor"/><path d="M59.328 68.457h.269v.403h-.269v-.403z" fill="currentColor"/><path d="m4.297 57.988.268.135-.134.402-.133-.537z" fill="currentColor"/><path d="m4.027 55.303.269.134-.134.403-.135-.537z" fill="currentColor"/><path d="M3.227 46.98h.402v.269l-.403-.001v-.27z" fill="currentColor"/><path d="m75.439 41.746.133.537h-.268l.134-.537z" fill="currentColor"/><path d="m2.688 38.66.268.537h-.269v-.537z" fill="currentColor"/><path d="m2.953 37.719.269-.001v.401l-.269.001v-.401z" fill="currentColor"/><path d="M74.633 28.055h.268l.001.402h-.267v-.402z" fill="currentColor"/><path d="M5.234 27.383h.269l.134.403-.403-.135v-.267z" fill="currentColor"/><path d="M6.445 27.248h.403v.269h-.403v-.27z" fill="currentColor"/><path d="M1.48 26.443h.269l-.001.403h-.27v-.403z" fill="currentColor"/><path d="M6.578 24.43h.403v.268h-.402v-.268z" fill="currentColor"/><path d="m72.486 23.625.134.403-.268.134.134-.537z" fill="currentColor"/><path d="m8.86 22.014.268.134-.134.403-.135-.536z" fill="currentColor"/><path d="M4.164 22.014h.269v.402h-.269v-.402z" fill="currentColor"/><path d="M68.727 21.342h.536v.268l-.536-.268z" fill="currentColor"/><path d="m69.267 20.27.403.134-.537.134.134-.268z" fill="currentColor"/><path d="M64.297 15.838h.403v.268h-.403v-.268z" fill="currentColor"/><path d="m63.625 12.08.403.134v.269h-.269l-.135-.403z" fill="currentColor"/><path d="M14.902 11.408h.403v.269h-.403v-.269z" fill="currentColor"/><path d="m23.494 9.531.268.27-.403.134.134-.403z" fill="currentColor"/><path d="m49.934 7.92.402.134-.268.403-.134-.537z" fill="currentColor"/><path d="M48.996 7.248h.269v.403h-.269v-.402z" fill="currentColor"/><path d="m29.262 6.578.402.134v.269h-.268l-.134-.402z" fill="currentColor"/><path d="M35.305 5.37h.268v.402h-.268v-.403z" fill="currentColor"/><path d="m39.869 5.102.267.134v.268l-.403-.134.135-.268z" fill="currentColor"/><path d="M39.869 4.562h.267l-.134.403-.269-.134.135-.267z" fill="currentColor"/><path d="M25.773 4.43h.269v.402h-.269V4.43z" fill="currentColor"/><path d="m39.736 4.162.134.403-.268.134.134-.538z" fill="currentColor"/><path d="M35.977 2.953h.268l-.134.537-.133-.537z" fill="currentColor"/><path d="m36.38 2.549.269-.001c-.046.132-.09.265-.135.402l-.269-.135.134-.268z" fill="currentColor"/><path d="m45.234 78.928.403.134-.403.134v-.268z" fill="currentColor"/><path d="m43.089 78.256-.001.403-.27-.136.269-.268z" fill="currentColor"/><path d="m48.727 78.121.402.001v.27l-.403-.135v-.134z" fill="currentColor"/><path d="m27.117 77.316.403.403-.403-.135v-.269z" fill="currentColor"/><path d="m47.516 76.107.402.135-.134.268-.268-.403z" fill="currentColor"/><path d="M37.586 76.107h.268l-.134.403-.134-.403z" fill="currentColor"/><path d="M28.458 76.107h.269v.269l-.403-.134.134-.135z" fill="currentColor"/><path d="m24.562 74.9.403.135-.403.134v-.27z" fill="currentColor"/><path d="m52.887 74.768.402.134-.403.134v-.268z" fill="currentColor"/><path d="m49.398 74.23.403.135-.402.134v-.27z" fill="currentColor"/><path d="M22.82 73.424h.269l-.135.402-.135-.402z" fill="currentColor"/><path d="m21.074 71.277.269.135v.268h-.269v-.403z" fill="currentColor"/><path d="m20.406 70.873.269.134v.269h-.269v-.403z" fill="currentColor"/><path d="M15.305 70.068h.134l-.001.672h-.135v-.672z" fill="currentColor"/><path d="m64.97 68.861.134.404h-.268l.134-.403z" fill="currentColor"/><path d="m9.939 66.848.133.402h-.268l.134-.402z" fill="currentColor"/><path d="M9.802 64.834h.269v.268l-.402-.134.134-.134z" fill="currentColor"/><path d="M66.852 62.955h.268l-.134.403-.134-.403z" fill="currentColor"/><path d="M4.562 62.418h.27l-.135.403-.135-.402z" fill="currentColor"/><path d="M8.727 57.584h.268l-.134.403-.133-.403z" fill="currentColor"/><path d="m4.027 43.625.269.134v.268h-.269v-.403z" fill="currentColor"/><path d="m2.555 43.49.268.134v.269h-.268v-.403z" fill="currentColor"/><path d="m76.38 39.328.135.403h-.269l.134-.402z" fill="currentColor"/><path d="m4.431 38.523.135.403h-.268l.134-.403z" fill="currentColor"/><path d="m2.016 34.766.402.134-.402.134v-.268z" fill="currentColor"/><path d="M1.21 33.154h.27l-.135.403-.134-.403z" fill="currentColor"/><path d="m2.415 32.484.135.537-.269-.401.135-.136z" fill="currentColor"/><path d="m75.302 28.992.269.134c-.132.09-.265.178-.402.269l.134-.403z" fill="currentColor"/><path d="M6.98 26.71h.269l-.135.404-.135-.403z" fill="currentColor"/><path d="m3.76 23.09.268.268h-.403l.134-.268z" fill="currentColor"/><path d="M71.55 23.09h.27l-.135.403-.134-.403z" fill="currentColor"/><path d="m71.816 22.55.403.135-.404.134v-.27z" fill="currentColor"/><path d="M72.758 22.418h.268l-.134.403-.134-.402z" fill="currentColor"/><path d="m66.715 18.79.403.135-.403.135v-.27z" fill="currentColor"/><path d="m67.79 17.182.402.268h-.403v-.268z" fill="currentColor"/><path d="m12.758 12.617.402.134c-.132.046-.265.09-.402.136v-.269z" fill="currentColor"/><path d="M15.168 11.008h.268l-.134.402-.134-.402z" fill="currentColor"/><path d="m55.438 10.469.268-.001-.134.401c-.045-.131-.089-.264-.134-.401z" fill="currentColor"/><path d="m16.375 9.264.403.134-.403.134v-.268z" fill="currentColor"/><path d="m24.431 6.174.135.403h-.268l.134-.403z" fill="currentColor"/><path d="M28.458 5.906h.269v.269l-.403-.135.134-.134z" fill="currentColor"/><path d="m40.945 5.639.403.133-.403.134V5.64z" fill="currentColor"/><path d="m32.22 5.102.269.268h-.404l.134-.268z" fill="currentColor"/><path d="M39.2 3.893h.268l-.135.402-.134-.402z" fill="currentColor"/><path d="m37.318 2.281.268.27h-.402l.134-.269z" fill="currentColor"/><path d="m23.898 2.281.269.001-.134.404-.135-.403z" fill="currentColor"/><path d="M36.246 1.477h.269l-.135.402-.134-.403z" fill="currentColor"/><path d="M37.453 78.66h.269v.269l-.269-.001v-.27z" fill="currentColor"/><path d="M44.7 77.72h.268v.27h-.269v-.27z" fill="currentColor"/><path d="m36.648 76.78.403.133h-.402v-.134z" fill="currentColor"/><path d="M20.809 76.78h.267v.268h-.268l-.001-.269z" fill="currentColor"/><path d="M20.406 76.78h.269v.268h-.269v-.269z" fill="currentColor"/><path d="M44.434 76.512h.268v.268h-.268v-.268z" fill="currentColor"/><path d="M28.46 76.512h.27v.268h-.27v-.268z" fill="currentColor"/><path d="m21.208 76.512.269.134h-.403l.134-.134z" fill="currentColor"/><path d="M48.727 75.84h.268v.268h-.268v-.268z" fill="currentColor"/><path d="m47.922 75.707.268.134-.134.27-.134-.403z" fill="currentColor"/><path d="M24.297 75.707h.268v.269h-.268v-.27z" fill="currentColor"/><path d="m39.736 75.44.134.402-.268-.134.134-.269z" fill="currentColor"/><path d="m25.105 75.303.269.402h-.269v-.402z" fill="currentColor"/><path d="M52.352 75.303h.268v.268l-.268.001v-.267z" fill="currentColor"/><path d="m26.309 75.303.401.134h-.401l-.001-.134z" fill="currentColor"/><path d="M50.742 74.23h.269v.269l-.268-.001v-.27z" fill="currentColor"/><path d="m47.115 74.096.268.268a913.91 913.91 0 0 1-.403-.134l.135-.134z" fill="currentColor"/><path d="M20.137 74.23h.268v.269l-.268-.001v-.27z" fill="currentColor"/><path d="M40 71.947h.269c-.046.133-.09.266-.136.403L40 71.947z" fill="currentColor"/><path d="m17.453 70.605.134.537-.134-.536z" fill="currentColor"/><path d="M66.578 69.666h.269v.269h-.269v-.27z" fill="currentColor"/><path d="M60.273 69.533h.269v.269h-.269v-.269z" fill="currentColor"/><path d="M14.633 68.725h.268l.001.268h-.267v-.268z" fill="currentColor"/><path d="m66.043 68.324.268.134c-.043.09-.087.178-.133.269l-.134-.403z" fill="currentColor"/><path d="m10.742 67.385.269.134-.134.268-.134-.403z" fill="currentColor"/><path d="m14.094 65.639.268-.001v.267h-.268v-.268z" fill="currentColor"/><path d="M64.164 64.967h.269v.268h-.269v-.268z" fill="currentColor"/><path d="M65.773 63.627h.269v.268h-.269v-.268z" fill="currentColor"/><path d="m67.79 62.418.268.134c-.045.089-.09.177-.135.269l-.134-.402z" fill="currentColor"/><path d="m68.46 62.283.27.269-.27.134v-.403z" fill="currentColor"/><path d="M67.652 62.014h.269v.268h-.268v-.268z" fill="currentColor"/><path d="M6.18 58.256h.268v.268H6.18v-.268z" fill="currentColor"/><path d="m6.309 52.617.267.269-.268.134-.001-.403z" fill="currentColor"/><path d="m72.35 52.215.268.268-.403-.134.134-.135z" fill="currentColor"/><path d="M2.418 50.873h.268v.268l-.268.001v-.267z" fill="currentColor"/><path d="M2.555 42.953h.268v.269h-.268v-.269z" fill="currentColor"/><path d="m74.633 38.389.268-.001.001.267h-.267v-.268z" fill="currentColor"/><path d="M3.625 37.047h.268v.268h-.268v-.268z" fill="currentColor"/><path d="M2.016 33.96h.268v.27h-.268v-.27z" fill="currentColor"/><path d="M1.21 33.96h.27v.27h-.27v-.27z" fill="currentColor"/><path d="m1.744 33.559.268.267-.403-.134.134-.134z" fill="currentColor"/><path d="M5.105 32.754h.269v.268h-.269v-.268z" fill="currentColor"/><path d="M74.367 30.873h.269v.269h-.269v-.27z" fill="currentColor"/><path d="M73.293 27.115h.268l.001.269h-.267v-.269z" fill="currentColor"/><path d="m.54 26.443.133.537-.134-.537z" fill="currentColor"/><path d="M74.367 25.234h.269v.269h-.269v-.269z" fill="currentColor"/><path d="M71.68 25.234h.268v.269h-.268v-.269z" fill="currentColor"/><path d="M72.086 24.162h.268v.269h-.268v-.268z" fill="currentColor"/><path d="M6.043 23.09h.268l.001.268h-.267v-.268z" fill="currentColor"/><path d="m70.207 22.148.269.135-.27.268v-.402z" fill="currentColor"/><path d="M69.805 22.014h.268v.268h-.268v-.268z" fill="currentColor"/><path d="m68.727 20 .268.134-.134.269-.133-.403z" fill="currentColor"/><path d="M71.145 19.596h.268v.268h-.269v-.268z" fill="currentColor"/><path d="M67.117 16.78h.269v.268h-.269v-.269z" fill="currentColor"/><path d="M66.578 16.643h.269v.268h-.269v-.267z" fill="currentColor"/><path d="M12.621 15.303h.27v.268l-.269.001.001-.267z" fill="currentColor"/><path d="M64.7 14.63h.268v.27h-.269v-.27z" fill="currentColor"/><path d="m64.027 14.361.269.001v.27h-.269v-.269z" fill="currentColor"/><path d="M11.277 13.557h.269v.268h-.269v-.268z" fill="currentColor"/><path d="m64.167 12.484.134.269-.402-.134.269-.136z" fill="currentColor"/><path d="M57.32 10.873h.269l-.001.269h-.27v-.27z" fill="currentColor"/><path d="M53.828 9.664h.269v.269h-.269v-.269z" fill="currentColor"/><path d="M51.812 8.86h.27v.268h-.27v-.269z" fill="currentColor"/><path d="M28.46 7.787h.27v.269h-.27v-.269z" fill="currentColor"/><path d="m49.805 6.979.268-.001v.267h-.268V6.98z" fill="currentColor"/><path d="M44.562 6.846h.27v.268h-.27v-.268z" fill="currentColor"/><path d="m44.969 6.443.133.537-.134-.537z" fill="currentColor"/><path d="M34.367 6.443h.269v.269h-.269v-.269z" fill="currentColor"/><path d="M22.555 6.443h.268v.269h-.268v-.269z" fill="currentColor"/><path d="M40.945 6.31h.269v.27h-.269v-.27z" fill="currentColor"/><path d="m46.98 5.906.269.134-.27.269v-.404z" fill="currentColor"/><path d="m42.823 5.906.134.269-.402-.135.268-.134z" fill="currentColor"/><path d="m25.508 5.234.268.135-.134.267-.134-.403z" fill="currentColor"/><path d="m45.906 4.025.403.135h-.404v-.135z" fill="currentColor"/><path d="M25.508 3.625h.268v.268h-.268v-.268z" fill="currentColor"/><path d="m23.36 3.49.268.134-.269.269V3.49z" fill="currentColor"/><path d="M23.625 3.088h.268v.268h-.268v-.268z" fill="currentColor"/><path d="M34.5 1.342h.269l-.001.268h-.27v-.268z" fill="currentColor"/><path d="m42.418 79.197.268.134-.268.136v-.269z" fill="currentColor"/><path d="m46.578 78.389.269-.001-.135.267-.134-.268z" fill="currentColor"/><path d="m46.309 77.854.267.268h-.268l-.001-.269z" fill="currentColor"/><path d="M29.133 77.988h.268l-.133.269-.134-.269z" fill="currentColor"/><path d="m50.068 77.72.134.27-.268-.135.134-.134z" fill="currentColor"/><path d="m45.505 77.584.135.268-.269-.134.135-.134z" fill="currentColor"/><path d="m22.418 77.184.268.134-.268.134v-.268z" fill="currentColor"/><path d="M40.001 77.049c.046.087.09.176.136.267l-.269-.134.134-.134z" fill="currentColor"/><path d="m40.54 76.912.267.134-.268.135v-.268z" fill="currentColor"/><path d="m38.927 76.645.134.268-.267-.134c.044-.046.089-.09.134-.135z" fill="currentColor"/><path d="m40.273 76.377.269.268h-.269v-.268z" fill="currentColor"/><path d="m20.673 76.244.135.269-.269-.135.133-.134z" fill="currentColor"/><path d="m23.762 75.975.268.134-.268.133v-.268z" fill="currentColor"/><path d="m54.766 75.303.268.268-.268.001v-.267z" fill="currentColor"/><path d="m23.492 75.44.269.134-.268.134v-.269z" fill="currentColor"/><path d="m30.205 75.035.134.269-.27-.135.135-.135z" fill="currentColor"/><path d="M33.559 74.9h.267l-.134.269a635.03 635.03 0 0 1-.134-.27z" fill="currentColor"/><path d="M48.594 74.363h.268l-.134.269-.134-.269z" fill="currentColor"/><path d="m29.267 73.826.134.269-.267-.135.134-.134z" fill="currentColor"/><path d="m50.337 73.29.135.27-.269-.135.134-.134z" fill="currentColor"/><path d="m22.82 72.62.269.268h-.27v-.269z" fill="currentColor"/><path d="m18.39 70.338.27.268h-.27v-.268z" fill="currentColor"/><path d="m12.486 67.652.134.269c-.089-.043-.177-.088-.268-.133l.134-.135z" fill="currentColor"/><path d="m70.341 60.537.136.269-.27-.135c.045-.043.09-.087.135-.133z" fill="currentColor"/><path d="m7.25 55.84.268.134-.268.134v-.268z" fill="currentColor"/><path d="m2.287 44.7.134.268-.268-.135.135-.134z" fill="currentColor"/><path d="m.406 36.375.269.134-.269.134v-.27z" fill="currentColor"/><path d="m1.074 32.082.269.268h-.269v-.268z" fill="currentColor"/><path d="m.672 27.516.268.268H.672v-.268z" fill="currentColor"/><path d="m71.142 25.771.134.27-.268-.134.134-.135z" fill="currentColor"/><path d="m9.665 21.342.135.268a614.97 614.97 0 0 1-.269-.134c.046-.044.09-.089.135-.134z" fill="currentColor"/><path d="m69.668 21.074.268.269h-.268v-.269z" fill="currentColor"/><path d="m70.204 20.941.135.27-.27-.134.134-.135z" fill="currentColor"/><path d="m70.34 19.865.268.135-.268.134v-.269z" fill="currentColor"/><path d="M67.516 17.852h.268l-.134.268-.134-.268z" fill="currentColor"/><path d="M66.18 15.705h.268l-.134.269-.134-.269z" fill="currentColor"/><path d="m66.715 15.438.268.268h-.268v-.269z" fill="currentColor"/><path d="M61.21 12.885h.27l-.135.268-.134-.268z" fill="currentColor"/><path d="m63.09 12.35.268.268h-.268v-.268z" fill="currentColor"/><path d="m60.806 11.945.134.269-.268-.134.134-.135z" fill="currentColor"/><path d="m56.914 11.14.268.135-.268.134v-.27z" fill="currentColor"/><path d="m16.781 11.008.27.268h-.269l.001-.268z" fill="currentColor"/><path d="m24.027 8.725.269.134-.269.133v-.268z" fill="currentColor"/><path d="M52.484 7.787h.269l-.134.269-.136-.269z" fill="currentColor"/><path d="M48.059 7.383h.267l-.134.268c-.045-.087-.089-.176-.134-.267z" fill="currentColor"/><path d="m46.578 6.846.269.134-.269.134v-.268z" fill="currentColor"/><path d="M49.668 6.578h.268l-.134.269-.134-.269z" fill="currentColor"/><path d="m46.98 6.443.269.269h-.27v-.269z" fill="currentColor"/><path d="m44.562 6.04.27.268h-.27v-.269z" fill="currentColor"/><path d="m38.121 6.04.27.133-.269.135.001-.269z" fill="currentColor"/><path d="m26.578 5.639.269.267h-.269V5.64z" fill="currentColor"/><path d="m47.384 5.37.135.268-.27-.135.134-.134z" fill="currentColor"/><path d="m43.09 3.893.268.134-.268.134v-.267z" fill="currentColor"/><path d="m40.809 2.953.267.134-.268.135-.001-.269z" fill="currentColor"/><path d="m36.914 2.686.268.268h-.268v-.268z" fill="currentColor"/><path d="m36.781 2.148.404.135-.403-.135z" fill="currentColor"/><path d="M38.121 1.21h.27l-.135.267-.134-.268z" fill="currentColor"/><path d="m34.634.537.135.269-.27-.135.134-.133z" fill="currentColor"/><path d="m48.188 79.598.268.134-.269-.134z" fill="currentColor"/><path d="m48.46 77.988.27.134-.27-.134z" fill="currentColor"/><path d="m24.969 77.988.267.134-.268-.134z" fill="currentColor"/><path d="m44.297 77.72.268.135-.268-.134z" fill="currentColor"/><path d="m41.61 77.72.268.135-.269-.134z" fill="currentColor"/><path d="m35.71 77.584.27.134-.27-.134z" fill="currentColor"/><path d="m22.418 77.584.268.134-.268-.134z" fill="currentColor"/><path d="m39.2 75.975.268.134-.269-.135z" fill="currentColor"/><path d="m43.898 75.168.269.134-.269-.134z" fill="currentColor"/><path d="m38.39 73.154.27.134-.27-.134z" fill="currentColor"/><path d="m71.55 24.834.27.134-.27-.134z" fill="currentColor"/><path d="m72.488 23.357.269.135-.269-.135z" fill="currentColor"/><path d="m69.398 21.613.269.134-.269-.134z" fill="currentColor"/><path d="m67.79 19.463.268.134-.269-.134z" fill="currentColor"/><path d="m70.879 19.328.267.134-.268-.134z" fill="currentColor"/><path d="m68.996 18.12.269.133-.269-.134z" fill="currentColor"/><path d="m66.18 16.242.268.134-.268-.134z" fill="currentColor"/><path d="m62.555 12.885.268.134-.268-.135z" fill="currentColor"/><path d="m61.074 11.678.269.134-.269-.134z" fill="currentColor"/><path d="m55.977 9.264.268.134-.268-.134z" fill="currentColor"/><path d="m49.133 6.846.268.134-.267-.134z" fill="currentColor"/><path d="m38.39 5.639.27.133-.27-.134z" fill="currentColor"/><path d="m34.766 2.148.268.135-.268-.135z" fill="currentColor"/><path d="m36.512 2.014.268.134-.268-.134z" fill="currentColor"/><path d="m35.574 0 .269.134L35.574 0z" fill="currentColor"/><path d="M37.674 79.181c-.008.485.373.76.884.637.106-.11.24-.206.313-.335.213-.383.018-.807-.395-.901a.688.688 0 0 0-.343-.04l-.048.018-.2.192-.134.177-.076.254z" fill="currentColor"/><path d="M36.012 78.723a.266.266 0 0 0 .195.096c.023-.007.046-.012.069-.017l.057-.005-.037-.072c.016.022.03.046.037.073l.327-.182.045-.06c.045-.053.026-.118.03-.178a248.46 248.46 0 0 1-.113-.355.82.82 0 0 0-.33-.17c-.138.064-.3.1-.405.197-.204.186-.121.555.125.671zm.218-.563a7.12 7.12 0 0 1-.045.068.177.177 0 0 1 .045-.068z" fill="currentColor"/><path d="m32.292 80.002.21.018.005-.246c-.024-.065-.046-.13-.074-.193-.02-.043-.047-.083-.071-.124-.03.033-.082.064-.083.099-.004.148.007.298.012.447z" fill="currentColor"/><path d="M33.4 78.63c.077.127.207.247.394.17l-.14-.118c-.052-.001-.082-.016-.092-.043l.092.042-.024-.25-.204-.108c-.013.104-.071.235-.027.307z" fill="currentColor"/><path d="M32.793 79.287c.012-.05-.002-.14-.038-.163-.04-.025-.115.008-.175.015l.055.228c.076-.037.151-.05.158-.08z" fill="currentColor"/><path d="M33.801 80.019c-.027-.018-.056-.034-.084-.05l-.157.26.09.053.151-.264z" fill="currentColor"/><path d="M33.48 79.803c-.094-.013-.188-.021-.283-.03 0 .034-.002.068-.004.101h.296c-.004-.025-.004-.07-.01-.07z" fill="currentColor"/><path d="M33.19 78.662c-.022-.008-.062-.028-.066-.023-.043.059-.082.122-.122.185l.085.043.104-.206z" fill="currentColor"/><path d="M33.978 79.049c-.02-.022-.042-.043-.063-.063l-.2.203.05.05.213-.191z" fill="currentColor"/><path d="M34.706 78.91c-.027-.044-.048-.097-.058-.095-.047.007-.09.03-.135.047.014.029.028.082.042.082.045 0 .09-.018.15-.033z" fill="currentColor"/><path d="m31.092 78.401-.076-.165-.1.053c.02.034.032.077.061.1.022.017.065.008.115.013z" fill="currentColor"/><path d="M31.027 80.037c.005.012.01.023.013.035.007-.016.006-.028-.013-.035z" fill="currentColor"/><path d="M32.541 78.301c.016-.017.003-.056.002-.107-.05.019-.092.022-.103.042-.012.02.008.058.015.088.03-.007.072-.004.086-.022z" fill="currentColor"/><path d="M32.922 79.663c-.012.013.008.055.014.084.033-.01.07-.014.097-.032.01-.007 0-.044 0-.085-.052.013-.093.013-.11.033z" fill="currentColor"/><path d="m32.056 77.696-.071-.098c-.02.014-.05.024-.055.041-.006.026.006.057.01.086l.116-.03z" fill="currentColor"/><path d="M33.192 79.074c-.028.019-.061.033-.083.057-.01.011.005.042.013.087.046-.034.08-.048.094-.073.008-.014-.016-.046-.025-.07z" fill="currentColor"/><path d="M31.17 79.784c-.011.02 0 .05.001.076l.073-.003-.008-.095c-.023.007-.057.008-.066.022z" fill="currentColor"/><path d="M32.622 79.74c.035.025.06.023.068-.024l-.073-.105.005.13z" fill="currentColor"/><path d="m34.301 79.276-.036-.023-.07.113.04.022a9.32 9.32 0 0 0 .067-.112z" fill="currentColor"/><path d="M32.775 79.86c-.01-.02-.02-.04-.031-.058-.04-.002-.078-.002-.078.051.034.094.07.079.109.006z" fill="currentColor"/><path d="M31.114 79.01a2.16 2.16 0 0 0-.02-.03l-.102.042-.118.037c.027.012.054.026.082.04l.158-.09z" fill="currentColor"/><path d="m40.48 25.006.291-.005c.671.005 1.17.14 1.758.454-.74.744-1.58 1.377-2.435 1.99l.268-.154.367-.208.175-.1c.596-.336 1.211-.633 1.828-.931.008.448.014.896.017 1.344l.007.457.006.658.005.206c0 .476 0 .476-.188.714l-.15.104.304-.1c.18.825.302 1.68 0 2.487-.624.72-1.536 1.153-2.375 1.594-.528.28-1.024.608-1.523.935l-.68.428c-.203.135-.399.277-.594.423l.236-.135c2.63-1.517 2.63-1.517 3.948-2.257l.27-.153.245-.137.212-.119c.16-.084.16-.084.26-.084a265.67 265.67 0 0 0 .03.748c-.034.288-.106.37-.334.545l.305-.1c.132.403.145.692 0 1.094-.438.44-1.023.73-1.56 1.038-.441.26-.865.544-1.292.827a368.028 368.028 0 0 1-.799.521c.579-.306 1.155-.616 1.727-.937l.305-.17.623-.35.302-.17.271-.152c.22-.109.22-.109.423-.109v.698h.203c-.153.414-.453.602-.81.84-.13.086-.257.174-.385.261l-.208.14c-.394.27-.782.546-1.17.822l-.226.16c-.491.347-.977.7-1.46 1.058l.814-.46.712-.4a37.978 37.978 0 0 0 1.764-1.04c1.23-.77 2.133-1.214 3.606-.984a4.883 4.883 0 0 1-.957.764c-.471.303-.938.611-1.4.927l-.177.12-.407.278a28.262 28.262 0 0 0 1.784-1.004c2.438-1.478 2.438-1.478 3.895-1.184-.392.41-.81.722-1.282 1.038-.654.446-1.3.902-1.94 1.368a66.1 66.1 0 0 1-2.256 1.573c.737-.392 1.47-.79 2.2-1.194l.3-.165c.942-.524 1.878-1.058 2.813-1.595l.28-.16.613-.36c.16-.095.16-.095.324-.19.096-.059.193-.116.292-.175.428-.214.82-.243 1.292-.238l.266-.004c.215-.002.43 0 .647.004-.416.338-.852.63-1.3.92l-.214.138-.516.334.47-.25.306-.162a20.656 20.656 0 0 0 .892-.512c.176-.104.351-.21.527-.316.478-.215.853-.22 1.349-.054l.209.1c-.123.362-.224.405-.544.609l-.289.185-.314.2-.494.318-.349.225c-.686.441-1.364.894-2.042 1.347-.85.568-1.702 1.133-2.56 1.691.723-.342 1.42-.717 2.111-1.118l.312-.179.844-.486a1647.805 1647.805 0 0 1 2.148-1.24l.359-.207.316-.183c.298-.166.6-.317.908-.465a494.882 494.882 0 0 1 .008 1.865l.002.68.002.214c0 .502 0 .502-.113.723h.101a122.012 122.012 0 0 1 .01.991c-.01.302-.01.302-.11.501h.1v1.89H50.54l.507-.497c.138-.164.274-.33.406-.498a1095.502 1095.502 0 0 0-.823.496c-.27.162-.537.327-.8.5-.202.022-.202.022-.429.019l-.246-.002-.256-.005-.26-.003a89.523 89.523 0 0 1-.633-.01l.608-.597c-.06.043-.12.087-.183.13-.887.56-1.644.525-2.657.467-.452 0-.904.015-1.356.031l-.291.007c-.713.008-.713.008-1.294.36a5.35 5.35 0 0 0 .006.746c.001.367-.003.7-.227 1.008-.326.315-.71.555-1.094.797-.351.229-.676.49-1.004.75l-.36.277-.261.2a276.127 276.127 0 0 1 .827-.462 63.205 63.205 0 0 0 1.278-.73l.297-.175c.236-.124.236-.124.438-.124.073.385.092.712 0 1.095-.326.365-.705.626-1.115.895a38.01 38.01 0 0 0-.406.299l.28-.176.366-.223.185-.114c.465-.283.465-.283.69-.283.11.952.11.952-.158 1.3a4.415 4.415 0 0 1-.551.39c.482-.298.482-.298.71-.298.081.42.096.776 0 1.194-.348.436-.77.757-1.216 1.093-.102.08-.203.162-.307.245-.234.187-.47.37-.708.55l.281-.16.379-.212.183-.105c.456-.256.915-.483 1.388-.715v3.382c-.456.224-.456.224-.822.219l-.232-.002a345.86 345.86 0 0 0-.239-.006l-.243-.002a83.59 83.59 0 0 1-.593-.01l.102-.298c-.33.108-.33.108-.609.298-.139.016-.278.025-.418.032l-.266.012-.286.012-.29.013c-.831.034-1.66.04-2.493.03a6.013 6.013 0 0 1 1.034-1.025 30.81 30.81 0 0 0 1.604-1.362c-.557.292-1.108.591-1.653.903l-.288.164-.577.33-.271.155c-.082.045-.162.09-.245.139-.213.099-.213.099-.517.099-.093-.97-.093-.97.136-1.279.168-.132.168-.132.473-.313l-.609.299c-.103-.43-.127-.768 0-1.194.42-.46.987-.777 1.521-1.094l-.308.174-.396.224-.203.115c-.502.284-.502.284-.615.284-.088-.423-.106-.773 0-1.194.343-.386.73-.676 1.152-.974.225-.162.433-.341.642-.524l.185-.16a9.18 9.18 0 0 0 .354-.331l-.191.11-.861.487-.304.173c-.096.054-.19.108-.29.163l-.267.152c-.22.11-.22.11-.422.11a560.626 560.626 0 0 1-.04-.748c.04-.247.04-.247.244-.429l.202-.117-.406.1c-.073-.35-.086-.644 0-.994.26-.292.582-.476.919-.676.3-.182.59-.377.883-.57.268-.178.537-.353.807-.528a789.61 789.61 0 0 0 2.082-1.36l1.006-.657.345-.226.246-.162c-.73.346-1.432.727-2.13 1.132l-.637.367-.336.192a401.75 401.75 0 0 1-2.151 1.23c-.106.06-.212.12-.32.183l-.286.162c-.226.115-.226.115-.429.115-.08-.355-.104-.642 0-.994.37-.332.777-.566 1.217-.796l-1.217.597v-1.194h.203v-.199c.14-.111.14-.111.336-.235l.221-.142.243-.152a46.818 46.818 0 0 0 1.99-1.343l.23-.164.434-.312c.4-.284.806-.56 1.212-.837-.65.347-1.3.697-1.945 1.055-.196.11-.393.218-.59.326-.486.268-.964.54-1.43.838-1.077.677-1.853.926-3.133.767.384-.423.855-.713 1.33-1.026l.52-.346.252-.166c.417-.279.83-.564 1.244-.85l-.545.305-.187.101c-.444.246-.876.505-1.306.775-1.3.796-2.292 1.371-3.846 1.106.353-.377.754-.65 1.18-.94.155-.105.31-.21.463-.316l.243-.166a114.11 114.11 0 0 0 1.438-1.011c.485-.344.966-.695 1.444-1.049a804.47 804.47 0 0 0-4.512 2.565l-.274.155a77.1 77.1 0 0 0-.938.547l-.297.174c-.672.35-1.453.25-2.194.239 1.056-.836 2.18-1.562 3.315-2.288l.454-.291 1.1-.704c-.738.392-1.47.79-2.2 1.194-.15.081-.15.081-.301.165-.538.298-1.07.604-1.593.926l-.322.194c-.203.122-.404.247-.603.375-.737.443-1.326.504-2.182.43a405.64 405.64 0 0 1-.101-.299l.911-.596-.21.133-.277.171-.274.171c-.253.121-.253.121-.557.022-.147-.288-.203-.472-.203-.796.176-.142.176-.142.424-.29l.277-.17c.1-.06.2-.118.302-.18.205-.124.41-.25.614-.375l.313-.19a53.29 53.29 0 0 0 1.31-.84l.219-.143c.44-.29.875-.59 1.307-.894l-.208.118c-.751.425-1.502.85-2.253 1.273l-.51.287-.89.503-.274.154-.25.14-.218.123c-.165.086-.165.086-.266.086-.081-.388-.104-.71-.001-1.094.365-.368.768-.632 1.216-.896l-1.217.597-.001-4.774h.81c-.2.493-.2.493-.406.995l.34-.217c1.104-.674 1.914-.922 3.21-.777v.2l.176-.1c.247-.107.4-.123.669-.12l.244.003c.084 0 .168.002.254.004l.258.003c.21.002.42.005.63.01-.29.29-.574.56-.913.795 1.058-.737 1.855-.906 3.144-.796a6.718 6.718 0 0 1-1.198.976c-.062.04-.122.081-.185.123a94.53 94.53 0 0 1-.444.294l.47-.25.31-.163c.229-.126.453-.259.674-.398.772-.486 1.35-.672 2.272-.67.35-.014.682-.058.94-.312.012-.172.016-.345.019-.518l.007-.32.01-.67.008-.321.004-.296c.068-.328.203-.449.46-.66l-.406.099c-.275-2.716-.275-2.716.17-3.47.438-.479.97-.82 1.554-1.106l-.684.392-.195.111c-.314.18-.593.318-.946.392a403.243 403.243 0 0 1-.008-1.74c-.006-.85.005-1.69.108-2.537h.609l-.102.597c.39-.054.544-.226.812-.497.286-.094.459-.111.755-.11l.26.002.271.002h.275l.67.005-.203.299.236-.196c.459-.298.938-.26 1.47-.252z" fill="white"/></svg>