<svg width="78" height="81" viewBox="0 0 78 81" fill="none" xmlns="http://www.w3.org/2000/svg"><path d="M36.731 6.352c.32.093.32.093.454.227.368.02.732.034 1.1.041.165.006.165.006.333.01l1.059.025.716.017 1.759.041.135-.268.403.134v.402h.268v-.403h.268v.402l.94.134v-.269h.269v.403h.94l-.135-.67.671-.27c.402.772.402.772.402 1.074h.268v.269h.269l-.001-.403.267-.134v-.269h.269c.196.356.268.523.268.94h.537c.045.089.09.177.135.269h.671v.268l.638.134.359.076c.375.073.375.073.883.058l.268.135v.402l.503.05c.424.051.735.137 1.108.352h.268l.176.186c.282.27.525.348.897.46l.353.112c.353.09.353.09.72-.22l-.133.536c.494.33.494.33 1.074.403l-.134.267.327.092c.601.22 1.135.525 1.687.847l.268-.269c.285.05.285.05.537.135.076.26.076.26.134.536l-.135.134.378.184c.427.218.427.218.83.487h.269v.402l.251.06c.286.075.286.075.554.209v.268l.294.11c.378.159.378.159.739.377.288.208.288.208.578.185l.134.27v-.538l.537-.268-.135-.27.67-.268.043.293c.072.39.072.39.319.713.176.336.176.336.075.68l-.168.327a12.25 12.25 0 0 0-.134.537l.671.537.404-.27-.134-.402h.268v-.269h.269v.268l.67.134.135.403.268.134-.536.133.134.269h.67l-.402.134.134 1.074h-.268v-.269l-.268.001-.135-.267v.537h.268c.14.22.274.444.402.67.302.46.302.46.806.672.142.319.142.319.268.671l.269.403c.243.39.482.782.721 1.174l.196.32c.376.615.742 1.234 1.096 1.862l.269-.269-.135-.403h.403c-.01-.168-.022-.337-.034-.511-.003-.298-.003-.298.033-.563.269-.269.269-.269.537-.403l-.268-.537h-.269l.134-.805.806.268v-.268h.268l-.133.31c-.158.36-.158.36-.134.763l.402.135-.134.268-.401.134a11.99 11.99 0 0 0-.27.537l-.268.134c-.053.329-.053.329-.068.713-.027.505-.076.86-.335 1.3h.402l-.034.324c.046.656.293 1.153.57 1.74l.156.34.381.819.269-.001.134-.673h.134v1.074l-.268.001.067.446c.068.495.068.495.068.898h.269l.1-.32c.189-.395.303-.473.705-.62v-.403l.403.001v.27l.536.134-.401.268.133.403.805-.134.135.404-.26.1c-.302.143-.302.143-.378.453-.01.083-.022.166-.034.252l-.267-.001-.134-.404c-.046.133-.09.266-.135.403l-.269-.001-.134.402-.403.134c.193 1.263.4 2.543.805 3.758.027.274.049.548.067.822.05.714.117 1.421.201 2.131h.269c-.07.676-.149 1.345-.269 2.014h.269c.018.473.033.853-.136 1.299-.17.573-.152 1.085-.133 1.68.007.214.013.428.017.642l.01.285c-.027.255-.027.255-.295.658v.402l.67-.134-.133 1.074h-.269l-.134-.537c-.046.089-.09.177-.135.269l-.269-.001-.05.51c-.18 1.6-.523 3.142-1.142 4.63-.18.436-.35.877-.52 1.318l-.173.454-.127.335h.268l.001.268-.401.135.133.402h-.269c-.242.472-.482.945-.721 1.418l-.207.403c-.418.82-.418.82-.705 1.69l-.11.382-.403.134c-.362.563-.672 1.06-.672 1.744l-.536.134-.27.94h-.537l-.103.229c-.47.878-1.215 1.624-1.9 2.34-.092.095-.184.19-.278.29-.183.19-.368.378-.554.566l-.257.266-.231.234c-.218.26-.218.26-.167.772h.403l.134.671c-.537 0-.537 0-.94-.134l-.268-.403c-.347.233-.347.233-.671.537v.537h-.536c-.27.147-.27.147-.528.358l-.298.23-.307.243-.304.235c-.673.524-1.306 1.037-1.784 1.753l-.268-.268-.31.31-.764.763-.134-.268-.462.252-.26.141c-.24.132-.24.132-.352.412l.671.135-.134.805h-.538l-.134-1.074c-.493.248-.493.248-.806.68-.134.26-.134.26-.486.429l-.319.1-.134-.403c-.33.33-.403.631-.537 1.073l.671-.134.269.537h.268v.268l-.268.001v.404h-.403l-.134.537c-.134-.043-.267-.088-.404-.133l-.344.075-.327.06-.269-.27v-.268l-.268-.268-.134-.403h-.269l.269-.671-.344.184a6.224 6.224 0 0 1-1.108.407c-.545.149-1.082.322-1.62.49-.33.1-.657.192-.989.278l-.369.118-.134.269-.806-.134-.134.402-.805-.268-.134.537v-.403l-.94.135-.133.403-.671-.134-.135.805c.134.043.267.088.404.133v.537l-.268.135v.536c-.222.002-.443.002-.672.002l.27-.135v-.268l-.538-.001v-.807l-.537.135v.268h-.27c-.316-.355-.52-.62-.67-1.074l-.269-.134.135.671-.805.133v.403h.268l.135.537-1.074-.403-.135.672h-.269c.1-.638.1-.638.403-.94h.402v-.269h-.27l-.133-.402c-.763-.1-1.39-.163-2.149 0-.043.134-.088.267-.133.403l-.403-.134.269-.538-.537.134v-.268l-.537.134-.001-.268-.404.134-.134.403h.537c.087.09.176.178.267.27l.403-.135v.268h-.268l.134.269h.537l.134.94c-.458 0-.89-.066-1.342-.135l-.269-.805h-.268l-.269.537-.135-.807c-.355 0-.615.132-.94.269-.083-.319-.083-.319-.134-.671l.27-.268v.269l.268-.268c-.292-.292-.416-.317-.805-.402l-.269-.135v.403h-.268l-.134-.403a363.048 363.048 0 0 1-.996-.131c-.377-.002-.566.072-.884.267l-.134-.672-.461-.05a16.605 16.605 0 0 1-1.82-.352l.133 1.074h-.402v-.269l-.269.001v-.67l-.403-.134v-.537l-.506-.094c-.8-.178-1.524-.503-2.27-.838-.135-.06-.27-.12-.41-.18a29.072 29.072 0 0 1-1.581-.744c-.333-.188-.333-.188-.737-.159l-.235-.243c-.386-.376-.74-.504-1.241-.696v-.269l-.269-.088c-.54-.243-.996-.568-1.476-.911l-.305-.218a33.805 33.805 0 0 1-2.648-2.14l-.336-.29c-1.594-1.4-3.068-2.89-4.334-4.594a33.31 33.31 0 0 0-.47-.608c-1.325-1.7-2.4-3.568-3.318-5.515l-.268.134c-.196-.356-.269-.524-.269-.94h-.402l.2.377c.202.428.202.428.202.83l-.402.134c-.09-.087-.178-.176-.269-.267h-.403l-.133-.671h-.402l.134-.806.401.135c.046-.088.09-.176.136-.268h.805l-.1-.296c-1.39-4.137-2.26-8.19-2.233-12.575.002-.425 0-.851-.003-1.278-.003-2.426.236-4.795.835-7.15l.102-.418c.322-1.28.71-2.535 1.13-3.785l-.268-.001v-.27h.269v-.671l.536-.001v-.94h.402v-.27h-.268v-.268h.537l.11-.335c.176-.52.367-1.03.562-1.544h.268l.1-.28c.196-.455.448-.863.714-1.28.385-.602.385-.602.663-1.259h.268v-.402c.15-.154.3-.306.456-.453.261-.265.483-.548.711-.84a31.85 31.85 0 0 1 2.594-2.87l.292-.296.286-.29.284-.29a29.212 29.212 0 0 1 2.493-2.119l.293-.226a22.936 22.936 0 0 1 2.39-1.579c.454-.266.773-.456.94-.971.103.001.205.004.31.007.375.01.375.01.764-.143v-.268l.405-.17c.626-.269 1.24-.563 1.855-.858.664-.314.664-.314.962-.314l-.135-.672.402-.134.277-.277c.086-.084.172-.17.26-.259l.269.001-.135.538h.27v-.67h.402l.134.536.262-.073a99.346 99.346 0 0 1 2.934-.757l.445-.11.43-.105.385-.095c.401-.072.775-.079 1.181-.067l.001-.537h.27v.402c.394-.06.789-.122 1.183-.185l.339-.051.326-.053c.1-.015.198-.03.3-.047.425-.107.564-.348 1.023-.294zm8.91.227.135.402-.134-.403zm-5.662 1.719-.25.183a8.5 8.5 0 0 0-1.067.915c.574-.21 1.093-.493 1.62-.797l.249-.14c.426-.246.832-.5 1.218-.807-.792-.094-1.17.186-1.77.646zM34.5 7.92l-.135.27.403-.134-.268-.135zm-7.383.538.134.269-.133-.269zm20.134.94-.343.36c-.348.331-.527.405-.998.445.215.187.215.187.536.269.32-.154.583-.305.873-.504.961-.633.961-.633 1.408-.839-.712-.368-.805-.21-1.477.268zm-19.118.109-.288.125c-.96.443-1.704 1.057-2.472 1.78.468 0 .653-.11 1.06-.334l.389-.213.406-.226.4-.22c.656-.36 1.294-.728 1.907-1.156-.553-.185-.892.02-1.4.243zm10.26-.11-.402.404.67-.268a866.95 866.95 0 0 1-.268-.134zm-.67.404-.135.27h.268l-.134-.27zm12.885 0-.134.27h.268c-.043-.09-.087-.178-.133-.27zm-.403.27-.134.267.403-.134-.269-.134zm-.67.402-.135.268.402-.134-.269-.134zm-5.149.622-.346.227-.362.242-.352.232c-.348.23-.695.46-1.041.691l-.356.238c-.285.189-.57.378-.853.568l.268.135c.357-.189.697-.385 1.04-.596l.619-.373.315-.19c.458-.275.923-.54 1.39-.805l.466-.266.33-.187-.134-.27c-.47 0-.6.098-.987.354zm7.578-.05-.296.195-.305.205-.302.2-.856.572-.475.316-.33.22.267.135c.313-.14.313-.14.659-.355l.395-.234.416-.251c.136-.082.272-.162.413-.245.792-.46.792-.46 1.473-1.065-.544 0-.637.022-1.06.304zm2.265.801-.286.248c-.61.503-1.243.902-1.925 1.298a62.825 62.825 0 0 0-2.517 1.553 147.1 147.1 0 0 1-2.81 1.787 215.66 215.66 0 0 0-3.465 2.198l.268.134c.34-.153.34-.153.726-.385l.455-.264.496-.29.513-.297c.352-.203.703-.408 1.055-.612.47-.274.94-.545 1.412-.815a404.394 404.394 0 0 0 5.52-3.221c.128-.077.256-.153.388-.23.334-.213.533-.378.71-.733l-.134-.269.403-.134c-.354-.14-.475-.172-.81.031zm-5.366 1.177-.134.268.403-.134-.268-.134zm8.054 0-.134.268h.268l-.134.537.403-.268-.27-.538h-.134zm-.403.268c-.303.148-.303.148-.64.371l-.4.253-.428.275-.442.28-.893.569a297.12 297.12 0 0 1-1.998 1.265c-.725.459-1.452.913-2.18 1.367-1.44.897-2.873 1.806-4.294 2.735l.268.134c.31-.14.31-.14.658-.353l.416-.243.453-.27a323.636 323.636 0 0 1 1.212-.71c.711-.417 1.427-.826 2.144-1.233.543-.308 1.086-.62 1.629-.931.516-.298 1.035-.592 1.555-.884.364-.206.727-.413 1.09-.621.174-.1.348-.198.524-.296.242-.137.484-.276.725-.415l.42-.238c.343-.227.343-.227.425-.617l.022-.305-.269-.135zm-15.705.135-.134.268.403-.134c-.089-.045-.177-.09-.269-.135zm-.67.402-.135.269.403-.134-.269-.135zm18.791.672c-.34.182-.34.182-.739.46a90.626 90.626 0 0 1-2.818 1.779 223.69 223.69 0 0 0-3.665 2.292c-.908.58-1.82 1.154-2.736 1.725l-.803.502-1.165.726-1.068.667-.32.2-.295.184-.256.16a4.14 4.14 0 0 0-.631.563c.83-.218 1.518-.663 2.248-1.098a1530.81 1530.81 0 0 1 1.326-.783c.725-.427 1.453-.846 2.182-1.265l.88-.508.44-.254c.873-.502 1.745-1.005 2.616-1.509a767.973 767.973 0 0 1 3.695-2.123l.416-.239c.121-.068.243-.137.367-.21.304-.184.584-.382.863-.6-.175-.42-.175-.42-.537-.671zm1.132 1.876-.286.176-.31.195-.326.202c-.849.527-1.693 1.062-2.537 1.598a228.09 228.09 0 0 1-2.774 1.722 262.1 262.1 0 0 0-3.34 2.08c-.859.544-1.721 1.083-2.584 1.62a215.554 215.554 0 0 0-3.876 2.475l.268.134c.292-.13.292-.13.618-.333l.387-.228.421-.254.889-.526.46-.274a280.718 280.718 0 0 1 2.422-1.42 389.45 389.45 0 0 1 3.366-1.936c1.223-.696 2.44-1.4 3.654-2.111a581.6 581.6 0 0 1 3.154-1.83l.236-.137c.436-.25.872-.502 1.307-.753l.001-.402-.267-.269c-.43 0-.53.047-.881.266zm5.176.673-.402.267.536.672c.18-.39.18-.39.009-.698l-.142-.243zm.671.536.133.268-.134-.268zm-3.893.134-.135.269c.133-.046.266-.09.403-.136l-.268-.134zm-.403.269-.134.267.402-.134-.268-.134zM42.956 19.06l-.134.269.403-.133-.269-.135zm20.552 1.234-.288.183c-.099.063-.196.127-.297.193l-.303.194c-.247.158-.493.317-.738.477l.135.671.402-.134.134-.267c.343-.084.343-.084.67-.134l.135-.673.267.403 1.074-.67-.133-.538c-.538 0-.637.021-1.06.294zm-18.538.243-.403.402.67-.269-.267-.134zm15.852 1.503-.325.195c-.116.07-.232.14-.351.214l-.366.221c-.891.54-1.774 1.094-2.654 1.654a192.71 192.71 0 0 1-2.752 1.707c-1.497.917-2.973 1.86-4.438 2.827l.268.135c.314-.14.314-.14.667-.356l.421-.246.458-.27c.158-.094.316-.186.474-.278l.984-.578c.742-.435 1.488-.864 2.233-1.293a2449.05 2449.05 0 0 0 2.454-1.415l.71-.41.89-.51c.846-.488 1.687-.984 2.523-1.49a956.97 956.97 0 0 0-.403-.135v-.268c-.347 0-.496.117-.792.296zm4.668.98-.295.188c-.074.05-.149.098-.225.148l.268.268c.18-.105.359-.211.537-.318l.302-.18.235-.173v-.268c-.36 0-.522.142-.822.335zm-21.326.737-.134.27.403-.135-.269-.135zm20.269 0c-.395.195-.395.195-.822.462l-.445.268-.343.21.269.134c.396-.195.396-.195.823-.461l.445-.268.343-.21-.267-.135zm-20.94.403-.134.269.401-.135-.267-.134zm23.356 0-.404.403.671-.269-.268-.134zm-.672.403-.403.403.671-.27-.268-.134zm-.671.403-.135.267.403-.134a683.98 683.98 0 0 0-.268-.134zm1.971 2.023-.433.268-.465.292-.478.298a375.666 375.666 0 0 0-3.004 1.892c-.824.522-1.656 1.03-2.49 1.535a206.742 206.742 0 0 0-3.777 2.35l-1.014.64-.348.22-.657.414c-.556.351-1.107.708-1.653 1.075l.27.135c.313-.14.313-.14.666-.357l.42-.245a321.45 321.45 0 0 1 .93-.548l.985-.577c.741-.436 1.487-.864 2.233-1.293l.873-.504 2.182-1.258.867-.501c.674-.39 1.348-.777 2.023-1.163l.711-.406c.296-.17.592-.338.888-.506a27.466 27.466 0 0 0 2.524-1.636l-.134-.537c-.502 0-.691.148-1.116.413zm-53.515 1.466-.135.267.403-.134-.267-.134zm-.672.401c-.337.155-.337.155-.717.386l-.444.258a739.044 739.044 0 0 0-.952.56l-.712.42c-.444.262-.89.52-1.339.77l-.284.162c-.24.137-.482.272-.724.408-.362.232-.362.232-.45.627l-.016.304.238-.154a97.745 97.745 0 0 1 2.105-1.312 80.77 80.77 0 0 0 3.563-2.292c-.089-.045-.177-.09-.269-.135zm36.377.135-.402.403.67-.268-.268-.134zM68.88 30.33a64.168 64.168 0 0 1-3.03 1.912c-1.246.753-2.49 1.51-3.724 2.282a78.632 78.632 0 0 0-2.66 1.72l.269.134c.344-.156.344-.156.735-.39l.46-.266.5-.292.513-.297c.435-.252.87-.505 1.304-.759l1.099-.64c.524-.304 1.047-.61 1.57-.917.568-.332 1.139-.66 1.71-.986l.453-.259.863-.49.389-.224.344-.196c.3-.179.3-.179.394-.59l-.134-.27c-.427 0-.717.293-1.057.53zm4.278-.53-.269.404h.402l-.134-.403zm-.269.806-.135.403.269-.001-.135-.404zm-55.706 2.685-.403.403.672-.268-.268-.134zm52.905.31-.318.203a847.8 847.8 0 0 0-.34.218c-.17.11-.17.11-.344.22-.344.22-.688.44-1.03.662l-.588.376c-.431.276-.862.554-1.292.832l.268.134c.384-.178.384-.178.82-.438l.246-.141.516-.3.783-.452c.749-.431 1.486-.869 2.2-1.354l-.134-.27c-.35 0-.492.122-.787.31zm-53.577.094c-.316.142-.316.142-.672.36l-.421.248-.46.272c-.318.188-.638.375-.958.562l-.247.145c-.81.475-1.63.93-2.452 1.383-2.43 1.213-2.43 1.213-4.589 2.802-.005.224-.006.448 0 .672a95.788 95.788 0 0 0 3.163-1.905l.422-.265 1.246-.784.682-.427c1.528-.96 3.043-1.94 4.553-2.928l-.267-.134zM7.25 34.767l.135.269.403-.403c-.279-.02-.279-.02-.537.134zm63.894.269c-1.773 1.032-3.523 2.089-5.235 3.221.088.045.176.09.268.135.375-.174.375-.174.8-.429l.243-.14a505.28 505.28 0 0 1 1.274-.74c.935-.538 1.862-1.086 2.785-1.645l-.136-.402zm-52.886.268-.403.403.671-.269-.268-.134zm-.671.403c-.34.153-.34.153-.726.386l-.456.264-.495.29-.512.295-1.053.612a263.1 263.1 0 0 1-1.439.83c-1.54.885-3.075 1.778-4.601 2.688l-.344.204-.298.178c-.277.16-.277.16-.574.298-.264.111-.264.111-.357.398l-.016.268.269.27c.06-.044.121-.086.184-.13.666-.456 1.349-.869 2.047-1.272 1.083-.628 2.127-1.308 3.172-1.997a74.13 74.13 0 0 1 2.942-1.826 43.355 43.355 0 0 0 2.527-1.623l-.268-.133zm-8.59.134-.135.27.402-.135-.268-.134zm-.672.404c-.334.149-.334.149-.688.37l-.37.215c-.094.072-.188.144-.284.22v.402l1.61-1.074-.268-.134zm57.584 0-.403.403c.221-.09.443-.178.67-.269l-.268-.134zm-6.712.134-.403.403.671-.268-.268-.134zm11.367.95-.433.269-.464.291-.478.297c-1.01.628-2.015 1.261-3.019 1.9-.566.36-1.137.715-1.71 1.066l-.395.243c-.254.155-.507.31-.762.463l-.344.211-.307.186c-.253.152-.253.152-.368.434.659-.19 1.214-.485 1.795-.84l.61-.363.331-.199c.642-.381 1.286-.756 1.93-1.132l.41-.24c.683-.398 1.369-.794 2.057-1.185l.394-.223.74-.418.333-.188c.096-.055.192-.11.292-.165.258-.15.258-.15.506-.417l.001-.403c-.5 0-.69.149-1.115.413zm-51.502.124-.134.268.402-.134-.269-.134zm-.67.403-.135.268.403-.134-.268-.135zm-.404.268c-.34.154-.34.154-.726.386l-.457.263-.495.29-.512.296c-.351.202-.702.406-1.053.61-.475.278-.952.552-1.428.826-1.6.92-3.195 1.845-4.786 2.778l-.38.223c-.11.064-.22.13-.333.195-.275.157-.553.301-.837.44l.134.805c.72-.403 1.418-.832 2.114-1.275.23-.144.457-.289.685-.434l.35-.222 1.575-.997.312-.198c.884-.558 1.77-1.112 2.658-1.665 1.155-.72 2.306-1.448 3.448-2.19l-.269-.134zm47.65.269-.402.402.671-.268a635.03 635.03 0 0 0-.27-.134zm5.222 2.558-.4.257-.417.272-.421.27-1.03.668.268.135c.414-.167.796-.402 1.183-.621l.329-.179c.617-.345 1.105-.685 1.576-1.214-.499 0-.673.141-1.088.41zm-53.41-.008-.288.241c-.368.285-.73.506-1.137.727l-.443.243-.233.127c-.408.223-.816.448-1.223.673l-.25.138c-1.122.622-2.22 1.283-3.322 1.94-.595.352-1.194.7-1.794 1.046l-.326.19c-.744.43-.744.43-1.049.582l.134.671c.78-.31 1.48-.706 2.197-1.142.12-.071.238-.143.36-.217a81.37 81.37 0 0 0 2.425-1.535c.598-.39 1.203-.77 1.813-1.142l.237-.144c.389-.239.778-.475 1.168-.71.711-.434 1.383-.86 2-1.42l-.267-.268zm6.31 2.282c-.32.143-.32.143-.677.361l-.424.247-.46.273-.475.278c-.408.238-.815.478-1.221.717-.608.358-1.217.713-1.827 1.069-.13.075-.26.15-.394.23a361.86 361.86 0 0 1-3.35 1.926c-1.273.725-2.54 1.458-3.803 2.2-.75.44-1.505.87-2.268 1.289l.134.67c.582-.124 1.046-.409 1.552-.712l.305-.182c.835-.498 1.657-1.015 2.477-1.537.907-.576 1.822-1.14 2.738-1.703a523.63 523.63 0 0 0 7.962-4.992l-.269-.134zm47.65 1.074-.268.537h.403l.134-.537h-.267zm-.805.537c-.255.11-.255.11-.533.287l-.329.198-.354.22-.365.222a112.61 112.61 0 0 0-2.828 1.799c-.892.583-1.799 1.143-2.704 1.704l.269.134c.35-.153.35-.153.748-.384l.462-.258.493-.28.499-.28a100.27 100.27 0 0 0 3.034-1.776 37.33 37.33 0 0 1 1.61-.914v-.403l.268-.134a635.03 635.03 0 0 0-.269-.135zm.269 2.013-.403.403.671-.268a338.34 338.34 0 0 0-.268-.134zm-62.148 1.61-.135.27.403-.135-.268-.134zm-.403.27-.134.268.403-.134a614.97 614.97 0 0 1-.268-.135zm20.403.536c-.354.167-.354.167-.755.416l-.232.137-.496.297c-.264.159-.528.316-.792.472l-.816.485c-.853.508-1.71 1.005-2.571 1.5l-.43.248-.86.494-2.175 1.254-.866.5-1.574.909c-3.153 1.82-3.153 1.82-4.674 2.685l.268.672c.687-.28 1.319-.603 1.955-.982l.295-.175c1.062-.635 2.103-1.303 3.145-1.97a291.51 291.51 0 0 1 5.97-3.71 170.74 170.74 0 0 0 2.51-1.553l.302-.19c.695-.44 1.381-.895 2.064-1.354l-.268-.134zm39.698 3.91a111.72 111.72 0 0 1-3.073 1.997c-.761.482-1.515.973-2.262 1.477l.269.134c.35-.153.35-.153.747-.384l.462-.258a811.544 811.544 0 0 0 .99-.56c.475-.268.95-.54 1.423-.81l.36-.204a84.143 84.143 0 0 0 1.288-.745c.387-.275.638-.542.904-.931v-.27c-.441 0-.755.31-1.108.554zm-55.522.155-.233.134-.738.431-.5.291-1.228.716.268.268a452.778 452.778 0 0 0 1.912-1.133 187.324 187.324 0 0 0 1.12-.665c.337-.185.337-.185.458-.484-.42 0-.697.23-1.058.44zm-6.056.9.135.27-.135-.27zm19.598.538-.403.402.671-.268-.268-.134zm-.671.402c-.314.14-.314.14-.667.357l-.42.245c-.15.09-.302.179-.457.27l-.472.278-.985.578c-.742.435-1.488.864-2.233 1.293l-.862.498a413.67 413.67 0 0 1-2.573 1.476l-.678.386-.416.239-.364.207c-.36.226-.685.479-1.012.75l.402.403.204-.126c1.452-.9 2.905-1.798 4.36-2.692 3.239-1.987 3.239-1.987 6.443-4.027l-.268-.135zm-13.02.135-.403.402.67-.268c-.088-.045-.176-.09-.268-.135zm-.672.402-.805.537.268.135.806-.539-.269-.133zm55.571.269c-.353.179-.353.179-.733.45l-.218.147c-.237.16-.473.323-.709.485l-.488.331c-.331.223-.662.448-.992.674-.703.478-1.41.948-2.119 1.418l-.694.463-.489.326.27.135c.303-.136.303-.136.64-.346l.4-.236.428-.258a1273.798 1273.798 0 0 1 1.324-.787 53.4 53.4 0 0 1 1.182-.675l.346-.194c.212-.116.424-.233.637-.348.684-.384 1.149-.826 1.62-1.452l-.403-.134zM23.36 60.54l-.404.402.67-.268-.267-.134zm5.905.545-.626.372-.348.207c-.677.4-1.358.79-2.04 1.183l-.443.256-2.1 1.207-.714.411c-.298.173-.597.345-.896.516-.386.223-.772.447-1.158.673l-.337.196c-.25.15-.494.31-.736.474l-.001.268c.224.115.224.115.535.135a7.46 7.46 0 0 0 .856-.479l.264-.162a2658.227 2658.227 0 0 1 1.585-1.005l1.114-.71a198.05 198.05 0 0 1 2.958-1.854 542.158 542.158 0 0 1 2.25-1.386l.275-.167c.459-.265.459-.265.766-.68-.459 0-.824.313-1.208.545zm-6.578-.143c-.336.154-.336.154-.714.385l-.441.258-.472.28a458.99 458.99 0 0 1-1.19.697c-.65.382-1.306.756-1.965 1.124l-.269.15-.586.328.268.268c.96-.384 1.804-.888 2.668-1.451l.746-.48.368-.239c.616-.397 1.236-.79 1.856-1.183-.089-.045-.177-.09-.269-.135zm2.014.806-.402.402.671-.268-.27-.134zm-.67.402c-.336.154-.336.154-.714.385l-.442.258-.472.28a452.258 452.258 0 0 1-1.19.697c-.65.382-1.306.756-1.964 1.124l-.27.15-.586.328.268.268c.736-.293 1.392-.655 2.064-1.074l.313-.193a155.46 155.46 0 0 0 3.261-2.088 683.98 683.98 0 0 0-.268-.135zm-7.249.403c-.043.089-.087.177-.133.268l.403-.133a683.98 683.98 0 0 0-.269-.134zm-.401.268-.136.27.403-.134-.268-.135zm19.06 2.15c-.32.142-.32.142-.677.36l-.425.248-.46.272-.473.277c-.326.19-.65.382-.976.573-.583.343-1.166.683-1.75 1.022l-.797.466c-.64.374-1.28.745-1.923 1.11l-.363.207c-.225.127-.45.254-.677.38-.252.144-.498.298-.743.453v.269c.288.122.288.122.671.134.35-.175.651-.352.974-.57l.285-.185c.298-.194.594-.39.89-.586a261.696 261.696 0 0 1 1.35-.878 173.1 173.1 0 0 1 3.017-1.902 71.13 71.13 0 0 0 2.344-1.517l-.269-.134zm-7.92.939-.403.401.671-.267-.268-.134zm-.672.401c-.395.196-.395.196-.822.463l-.445.268-.342.211.268.27 1.61-1.074-.267-.134zm20.806.941c-.329.168-.64.34-.956.53l-.268.157c-.22.128-.437.258-.655.388l.268.403 1.88-1.343-.269-.134zm-22.953.27v.268h.404l.134-.403c-.279-.02-.279-.02-.537.135zm17.758.426-.228.132c-.242.14-.484.282-.725.423l-.484.282-1.285.75-.38.214c-.315.164-.315.164-.4.483-.01.08-.017.16-.026.243.334-.105.334-.105.67-.269l.135-.403.29-.04c.43-.105.716-.27 1.087-.507.13-.084.261-.167.396-.252l.408-.264.414-.263c.68-.381.68-.381 1.163-.953-.414 0-.679.219-1.035.426zm-18.982.38-.295.226-.224.176.403.134.401-.269.001-.268.672-.134-.134-.268c-.378 0-.526.174-.822.403zm22.165.133-.94.536.27.403.176-.194c.226-.21.226-.21.629-.344l-.134-.403zm-1.207.67-.403.269.134.536.403-.269-.134-.537zm-1.494.873-.295.189-.226.146c.043.178.088.355.133.537l.302-.26c.33-.247.508-.352.906-.41l.001-.538c-.358 0-.52.142-.82.336zm-13.004.335-.134.269.402-.134-.268-.135zm8.725-.134c-.514.27-1.024.545-1.535.822l-.442.232-.421.23-.39.21c-.34.236-.34.236-.409.683l-.024.375c.625-.214 1.128-.553 1.669-.923l.26-.177.51-.345c.348-.237.698-.47 1.05-.703l-.27-.403zm-9.127.403c-.302.133-.302.133-.62.327l-.333.193-.255.15c.387.182.387.182.677.002.095-.065.19-.13.288-.195l.29-.192.222-.152c-.09-.043-.178-.088-.269-.133zm12.35 0 .268.403v-.403h-.268zm6.576.537.402.268.806-.537-.135-.268c-.44 0-.722.292-1.074.537zm-7.115 0 .403.403.268-.403h-.67zm6.04.537v.27c.402.184.402.184.764-.034.101-.078.204-.155.31-.235v-.402c-.484 0-.684.129-1.074.403zm-6.845-.133.134.268-.134-.269zm-.537.134c-.136.41-.136.41 0 .806l.403-.134c.098-.27.098-.27.134-.537l-.537-.134zm-.403.27-.134.402h.269l-.135-.403zm12.886.133.403.135c.091.276.091.276.133.537v-.537l.403-.135v-.268c-.355 0-.615.132-.94.268zm-6.426.487c-.05.06-.1.122-.15.185.548.157.743.167 1.257-.11l.353-.293v-.269c-.561 0-1.03.114-1.46.487zm-11.292.05.134.403.269-.134c-.043-.09-.088-.178-.133-.27h-.269zm4.161 0 .268.135-.135.402.537-.268a683.98 683.98 0 0 1-.134-.27h-.537zm-.538 0-.537.403h.269l-.269.537.94-.134.134-.537-.403-.001a683.98 683.98 0 0 1-.135-.27zm14.229.135c.134.132.266.265.403.402l.269-.268c-.222-.046-.443-.09-.671-.135zm-18.657.134.134.267-.134-.268zm11.41-.001.133.267-.134-.268zm-7.92.267-.269.403h.537l.001-.403h-.267zm5.637 1.477-.268.67c.184.208.184.208.403.404h.268l-.134-1.074h-.27zm-1.208.134v.269l.537.134-.135-.402h-.403zm1.61.94.135.402-.134-.402z" fill="black"/><path d="M47.387 74.363c.327.1.327.1.67.269.127.251.127.251.135.537-.126.3-.126.3-.268.536h-.537l.134.268h-.268l-.268.94h-.269v.268h-.268v-.268l-.537.402-.109-.394c-.051-.136-.104-.271-.158-.41l-.403-.135-.27.805h-.268l-.134.403-.134-.403.134-.268h.268c-.01-.094-.022-.188-.034-.285l-.041-.37-.042-.369c-.016-.319-.016-.319.118-.587h.269v-.671c.26.109.26.109.537.268l.134.403c.458.022.458.022.94 0l.268-.269v.269l.268-.134c.089-.408.089-.408.135-.807z" fill="black"/><path d="m11.276 63.357.403.135.133.67.403.135c-.009.196-.02.392-.034.587l-.019.33c-.082.291-.082.291-.356.464l-.263.096v.268h.269l.134.403h-1.074l.269-.537h-.269v-.269c-.266.035-.266.035-.537.134l-.134.402a697.21 697.21 0 0 1-.268-.134l.268-1.342.403.402.033-.42c.115-.59.281-.853.638-1.325zm0 .806-.134.268.402-.133-.268-.134zm.134.805v.403h.269c-.046-.132-.09-.265-.136-.402h-.134z" fill="black"/><path d="M63.76 66.982c.041.786.05 1.633-.48 2.257l-.326.293c-.338-.045-.493-.077-.705-.353-.175-.55-.208-1.012.025-1.553.257-.45.419-.726.905-.93.31.017.31.017.58.285z" fill="black"/><path d="M3.491 25.102c.868.527.868.527 1.075 1.073.04.332.04.332.042.68l.007.349c-.058.373-.15.493-.452.716h-.268l-.134.269a175.558 175.558 0 0 1-.407-.8c-.266-.56-.307-1.002-.264-1.617.2-.395.2-.395.401-.671z" fill="black"/><path d="m54.397 5.764.326.052.329.048.25.044c.278.589.278.589.235.956-.1.252-.1.252-.37.655-.91.102-.91.102-1.417-.22-.193-.318-.193-.318-.185-.73.156-.486.287-.788.832-.806z" fill="black"/><path d="M72.219 56.107c.326.11.326.11.67.269.166.499.208.958.134 1.476-.235.403-.235.403-.537.672-.536 0-.536 0-.767-.227-.294-.53-.282-1.065-.172-1.653.335-.352.335-.352.67-.537z" fill="black"/><path d="m29.4 74.767.403.134-.135.27c.13.04.26.082.395.125.41.143.41.143.545.277.005.268.006.537 0 .805l-.269-.268-.135.267a11.38 11.38 0 0 1-.94-.268v.267h-.402v-.402h-.269v-.269h-.268v-.268c-.177-.09-.354-.178-.537-.269v-.403h.267c.09.132.178.265.27.402v-.403c.386-.194.656-.086 1.073 0zm-.403.536-.134.672.134-.403h.269v-.269h-.269zm.537 0 .134.403v-.403h-.134zm.403.403v.269l.537-.135-.537-.134z" fill="black"/><path d="M24.567 3.49c.319.084.319.084.67.269.345.655.256 1.175.135 1.878l-.403-.134-.135.67a687.47 687.47 0 0 1-.268-.133c-.05-.222-.095-.446-.134-.67l-.135-.135v-.94l-.134-.402.403-.403z" fill="black"/><path d="m22.725 4.01.227.152v.268l.402.135c.093.277.093.277.135.537h.67c0 .402 0 .402-.135.67l.403.135-.268.268h-.403l-.134-.402-.269-.134-.134.267v-.805l-.52.075c-.52.076-.52.076-.822-.075v-.269l-.269-.134c.024-.253.024-.253.134-.538.383-.228.556-.312.981-.15z" fill="black"/><path d="M36.78 3.357h.269l.133.403.343-.014.445-.011.445-.014.379.04c.268.403.268.403.243.747-.11.327-.11.327-.512.595-.532-.042-.907-.235-1.342-.537l-.134-.268c-.272-.152-.272-.152-.538-.268l.402-.001-.134-.673z" fill="black"/><path d="M44.18 4.59c.387.243.387.243.53.494-.012.401-.187.633-.412.957-.465-.06-.896-.119-1.342-.268-.05-.737-.05-.737.176-1.048.413-.29.572-.316 1.049-.134z" fill="black"/><path d="M39.6 2.415c.076.502.133.968.133 1.477h-.268v-.269l-.529.009a7.953 7.953 0 0 1-.545-.009c-.133-.134-.133-.134-.175-.587.042-.487.042-.487.26-.763.449-.178.693-.044 1.124.142z" fill="black"/><path d="M48.581 76.174c.302.1.302.1.68-.067l.27.135-.135 1.476h-.805v-.268l-.537.134c-.126-.404-.14-.52 0-.94v-.402c.268-.135.268-.135.528-.067zm-.259.202.001.268h.27v-.268h-.269z" fill="black"/><path d="M22.152 73.29c.23.173.453.352.671.538v.268h.403v.269l.671-.537v.268l.537.135v.27h-.268l-.134.268-.537-.135c-.045.089-.09.177-.135.269h-.268v-.403l-.05.26-.084.276c-.18.09-.358.18-.537.268-.319-.488-.236-.785-.133-1.342-.05-.371-.05-.371-.135-.67z" fill="black"/><path d="M.94 35.303h.269l.133.268c.083-.02.166-.043.252-.066.285-.067.285-.067.553-.067v.268c-.132.09-.265.178-.402.269.258.298.258.298.67.403l-.133.402h-.537l-.403.268C1 36.77 1 36.77.672 36.377c.028-.834.028-.834.268-1.074z" fill="black"/><path d="m3.088 53.021.402.001v.941l.403.001-.084-.25a1303.9 1303.9 0 0 1-.051-.286l.267-.268c.269.268.269.268.3.608l-.006.398-.002.399c-.022.34-.022.34-.156.61-.31 0-.31 0-.672-.135-.394-.631-.448-1.288-.402-2.014z" fill="black"/><path d="M3.892 47.383c.26.033.26.033.537.134.308.463.286.569.218 1.1l-.046.366-.038.28.537-.135-.268.537H4.43l-.135.268-.134-.403h.27c-.05-.066-.097-.133-.147-.201-.426-.625-.62-1.033-.525-1.813l.134-.134z" fill="black"/><path d="M71.948 53.826h.402c.168.336.168.336.269.806-.136.385-.325.726-.538 1.073l-.671-.134c-.04-.673 0-1.06.403-1.61l.134-.134z" fill="black"/><path d="M42.013.906c.403.034.403.034.671.302-.077.883-.077.883-.268 1.074-.394.025-.394.025-.805 0-.268-.268-.268-.268-.301-.67.045-.555.15-.66.703-.706z" fill="black"/><path d="M1.345 41.613h.537c.24.411.3.701.286 1.175l-.008.325-.01.245c-.243.093-.243.093-.536.134-.233-.15-.233-.15-.403-.402-.043-.328-.043-.328-.032-.688l.006-.362c.027-.292.027-.292.161-.427z" fill="black"/><path d="m50.607 74.498.268.134-.134.537h-.402l.403.133c-.133.403-.133.403-.536.672h-.403l-.267.268-.537-.403.403-.805.536.134.134-.538.537.134v-.268z" fill="black"/><path d="M4.431 46.578c.122.133.122.133.244.269.277.313.277.313.697.268l.025.29c.063.713.134 1.42.244 2.126-.134.046-.267.09-.404.135l-.044-.27c-.12-.671-.252-1.165-.627-1.743v-.537h-.268l.134-.537z" fill="black"/><path d="m75.175 42.418.671.134-.134 1.477-.403.133-.27-.537-.268.537h-.268v-.671l.403-.134.058-.395c.076-.41.076-.41.21-.545z" fill="black"/><path d="M15.44 13.96c.2.376.275.605.236 1.032-.101.31-.101.31-.37.579l-.402-.402.134-.134-.403-.135.134-.403h.268v-.269h-.805l-.135.403h-.805v-.267l.537.134v-.403c.218-.049.436-.096.654-.143.122-.025.243-.052.368-.079.32-.045.32-.045.589.09z" fill="black"/><path d="M68.459 65.104h.536c.213.427.187.877.134 1.342-.168.277-.168.277-.403.403-.283-.06-.283-.06-.537-.136a47.616 47.616 0 0 1-.017-.654l-.009-.368c.026-.32.026-.32.295-.589z" fill="black"/><path d="m3.09 29.264.537.268-.134.537h-.269c.077.445.208.635.537.939.27.401.27.401.27.938-.327-.084-.327-.084-.671-.268-.052-.268-.096-.536-.136-.806-.262-.192-.262-.192-.536-.268v-.403l.268.135.134-1.074z" fill="black"/><path d="m21.613 73.424.537.268v.403h-.269c.046.177.09.354.136.537l-.395.11-.41.158-.134.403h-.268v-.268l-.269-.135.536-.94a389.69 389.69 0 0 1-.403-.133c.133-.09.266-.178.403-.269v.269l.537.134v-.536z" fill="black"/><path d="M17.184 9.932h.268l.134.268.327.042.344.092c.177.344.177.344.269.672-.396.396-.8.414-1.342.536v-1.61z" fill="black"/><path d="m13.696 66.848.092.251c.23.372.437.423.847.553l.403.134c-.16.336-.16.336-.403.671-.36.042-.36.042-.67 0v-.268l-.538-.134-.134-.94.403-.268z" fill="black"/><path d="m69.537 59.865.402.134c.18.85.18.85-.034 1.266-.235.21-.235.21-.638.21-.18-.373-.272-.615-.243-1.032.109-.31.109-.31.512-.579z" fill="black"/><path d="M69.936 57.047h.403l-.135.94c.403.044.403.044.63-.202l.175-.201c.034 1.023.034 1.023-.268 1.476l-.537-.134.134-.537-.672-.27c.117-.922.117-.922.268-1.073z" fill="black"/><path d="M16.246 68.457h.269l.268.805h.268l.27.537-.268.134v-.269h-.27v.403h.27c.033.755.033.755-.27 1.208h.27v.268l-.537-.134c-.017-.772-.017-.772.134-1.074-.075-.312-.075-.312-.194-.654-.152-.455-.21-.734-.21-1.225z" fill="black"/><path d="m1.077 37.988.537.537.403-.134.268.135c.056.278.056.278.084.613l.03.336.02.26h-.403v-.806c-.262.026-.262.026-.537.134-.154.269-.154.269-.269.537a30.53 30.53 0 0 1-.217-.58c-.04-.107-.08-.215-.123-.325L.81 38.39l.267-.402z" fill="black"/><path d="M48.055 2.686c.632.094.632.094.805.268.006.268.006.537 0 .805l-.67.268-.538-.537c.252-.653.252-.653.403-.804z" fill="black"/><path d="M71.82 25.906c.339.045.493.082.712.353.13.444.045.807-.042 1.257l-.67.134.016-.368c-.016-.42-.07-.622-.285-.973l.27-.404z" fill="black"/><path d="m65.24 63.223.134.268.268.001-.008.48a9.08 9.08 0 0 0 .142 1.535l-.134-.269h-.268l-.134.403-.135-.538h.269l-.269-.403c-.065-.295-.065-.295-.1-.613l-.04-.32c.006-.276.006-.276.275-.544z" fill="black"/><path d="M13.29 11.408h.268l.134.403.671.135-.134.537c-.814.131-.814.131-1.075.134l-.268-.268c.052-.405.17-.59.402-.94z" fill="black"/><path d="M8.728 60.672h.268c.213.557.345 1.014.269 1.61-.269.387-.269.387-.537.672-.324-1.124-.324-1.124-.134-1.745l.075-.312.058-.226z" fill="black"/><path d="M14.769 9.396h.804l.134.403c.268.161.268.161.537.268l-.134.402c-.318-.042-.318-.042-.67-.134-.09-.133-.178-.266-.269-.403h-.267v.269a944.24 944.24 0 0 1-.403-.134l.269-.672z" fill="black"/><path d="M74.365 33.29h.134c-.009.215-.02.43-.034.645l-.02.363c-.08.333-.08.333-.356.578l-.262.158c-.268-.403-.268-.403-.252-.814.118-.394.118-.394.386-.562l.269-.1.135-.269z" fill="black"/><path d="m2.953 41.074.277.126c.444.16.866.222 1.334.277-.176.335-.176.335-.403.671H3.76l-.001-.268h-.404l-.134.268c-.17-.39-.269-.644-.269-1.074z" fill="black"/><path d="M50.874 7.384c.352-.025.352-.025.671 0 .092.31.092.31.134.671-.194.244-.194.244-.403.403l-.672-.269c0-.403 0-.403.269-.806z" fill="black"/><path d="m8.59 57.988.403.135c.218.504.301.928.269 1.476h-.269v-.27h-.537c-.191-.315-.28-.467-.218-.838l.084-.235.403.537-.134-.806z" fill="black"/><path d="M39.597.269c.352-.026.352-.026.67-.001.09.22.178.442.27.67l-.538.403c-.26-.11-.26-.11-.538-.269l-.134-.402.269-.403z" fill="black"/><path d="m6.71 61.746.67.134c.152.772.152.772 0 1.074h-.536c-.285-.755-.285-.755-.134-1.208z" fill="black"/><path d="m75.844 33.96.403.135c.05.744.05.744-.202 1.057l-.2.151-.404-.268c.102-.772.102-.772.404-1.074z" fill="black"/><path d="m61.48 10.604.671.268-.133.671c-.503.151-.503.151-.805 0-.017-.319-.017-.319 0-.67l.268-.27z" fill="black"/><path d="M1.615 27.652h.268v.671h.403v.403l.537.134v.269l-.269-.001-.268.536c-.269-.638-.269-.638-.269-.94l-.402-.134a17.288 17.288 0 0 1-.135-.805l.135-.135z" fill="black"/><path d="M6.85 24.967h.268v.403h.268c.15.754.15.754 0 1.208l-.403-.135v-.268l-.268-.134.134-1.073z" fill="black"/><path d="m10.337 16.643.672.134.133.67c-.244.085-.244.085-.537.135l-.403-.268.134-.671z" fill="black"/><path d="M60.402 10.604c.352.125.352.125.67.268l-.133.537a11.87 11.87 0 0 1-.672.133c-.135-.134-.135-.134-.143-.478l.008-.327.269-.134z" fill="black"/><path d="M4.568 52.082c.268 0 .268 0 .486.15.26.355.213.631.185 1.058H4.7c-.134-.134-.134-.134-.147-.382l.013-.826z" fill="black"/><path d="m3.894 42.281.268.001v.807c-.355.196-.523.268-.94.268-.15-.503-.15-.503 0-.805h.538l.134-.269z" fill="black"/><path d="m26.045 74.363.805.269-.134.537-1.208-.001v-.404l.537-.134v-.269z" fill="black"/><path d="m7.65 21.342.67.134-.007.302c.007.33.05.592.142.906h-.402v-.671l-.537-.269.134-.402z" fill="black"/><path d="m8.188 20.27.805.134.269.805c-.923-.118-.923-.118-1.074-.27a13.434 13.434 0 0 1 0-.67z" fill="black"/><path d="m26.714 6.979.537.133v.537l-1.073.268a864.97 864.97 0 0 1-.134-.268h.268l.001-.269.27.001.134-.401z" fill="black"/><path d="m33.427 4.967.671.134.135.538-.537.268-.403-.268.134-.671z" fill="black"/><path d="M31.681 75.975h.404c.158.493.144.962.134 1.476l-.403.001-.058-.242c-.06-.235-.133-.466-.21-.697.059-.292.059-.292.134-.535z" fill="black"/><path d="M25.777 75.572h.134l.051.395c.029.135.057.27.085.41l.268.135v.268l-.67.135-.043-.26-.092-.277a389.69 389.69 0 0 1-.403-.135v-.402h.537c.045-.088.09-.176.135-.268z" fill="black"/><path d="m.134 34.63.403.135.134.94H.135A408.17 408.17 0 0 0 0 35.57c.039-.314.083-.627.134-.94z" fill="black"/><path d="M2.953 39.195h.671l.135.672-.673.134-.134-.805z" fill="black"/><path d="M4.299 28.592h.536l.268.94H4.7l.001-.403-.67.133-.268-.537.402.134.135-.268z" fill="black"/><path d="M16.38 67.248a7.122 7.122 0 0 1-.403 1.208l-.403-.134c.042-.386.042-.386.134-.805.403-.27.403-.27.672-.27z" fill="black"/><path d="m69.938 61.342.402.134c-.117.638-.117.638-.268.94h-.403c-.093-.235-.093-.235-.135-.537.193-.303.193-.303.403-.538z" fill="black"/><path d="M74.904 46.578c.127.459.145.866.134 1.342h-.403l-.134.269c-.117-.332-.15-.49-.029-.825l.157-.284.155-.286.122-.216z" fill="black"/><path d="M66.715 17.986c.32.078.626.164.94.269l-.135.805-.402-.134c-.093-.277-.093-.277-.135-.537h-.268v-.404z" fill="black"/><path d="M53.962 8.322h.537l.133.671-.67.135a11.875 11.875 0 0 1-.135-.672l.134-.134z" fill="black"/><path d="m3.492 51.14.537.27.268-.27.134.403c-.193.361-.193.361-.403.672l-.404-.135-.134-.94z" fill="black"/><path d="m61.883 12.752.536.268-.135.537-.67.135c-.018-.32-.018-.32 0-.672l.268-.268z" fill="black"/><path d="m21.074 75.44.134.805-.302.042c-.392.098-.602.235-.906.495v-.403h.268v-.404l.403-.134.001-.268c.27-.134.27-.134.404-.134z" fill="black"/><path d="m51.412 73.424.67.67-.268.94-.537-.134.135-.402.268-.135v-.268l-.268-.134v-.536z" fill="black"/><path d="m66.442 67.651-.134.538-.243-.075c-.316-.089-.316-.089-.696.075-.046-.177-.09-.354-.136-.537.447-.147.755-.112 1.208.001z" fill="black"/><path d="M15.173 12.213c.277.059.277.059.537.134l-.134.671-.537-.134c0-.537 0-.537.133-.671z" fill="black"/><path d="M25.906 6.174h.671l.135.403h.537l-.001.268c-.455.017-.455.017-.941 0-.27-.268-.27-.268-.404-.671z" fill="black"/><path d="M73.693 47.115h.537c.025.32.025.32 0 .671-.133.09-.266.178-.403.269l-.268-.269c.049-.352.049-.352.133-.67z" fill="black"/><path d="m75.436 37.584.403.268-.135.672-.537-.135c.117-.655.117-.655.268-.806z" fill="black"/><path d="M46.042 5.102c.285.125.285.125.537.268l-.27.537-.537-.134v-.537l.269-.134z" fill="black"/><path d="M5.642 58.66c.277.059.277.059.537.134v.672H5.64a11.868 11.868 0 0 1-.134-.672l.134-.134z" fill="black"/><path d="M2.284 49.664h.269v1.074H2.15l-.134-.806h.268v-.268z" fill="black"/><path d="M41.343 75.44h.268l.001.402.404.134-.134.269c-.344.084-.344.084-.672.134-.083-.244-.083-.244-.134-.538l.269-.403z" fill="black"/><path d="m9.666 69.396.402.135c.093.278.093.278.135.538l-.403.268-.268-.134a13.434 13.434 0 0 1 0-.671l.134-.133z" fill="black"/><path d="m2.959 49.396.401.135c.102.26.102.26.136.538l-.135.268-.535-.134a13.41 13.41 0 0 1 0-.671l.134-.133z" fill="black"/><path d="m11.548 14.766.671.134c-.043.26-.043.26-.135.537l-.403.134c-.142-.25-.142-.25-.268-.536l.134-.268z" fill="black"/><path d="m58.793 11.275.671.269-.134.805-.537-.27.076-.25c.09-.292.09-.292-.077-.555z" fill="black"/><path d="M12.886 63.627v.805h-.403l-.268-.67c.268-.135.268-.135.67-.135z" fill="black"/><path d="M5.775 55.438h.268c.192.316.28.467.218.838-.026.078-.054.155-.082.235-.277-.234-.277-.234-.537-.536.034-.302.034-.302.135-.536z" fill="black"/><path d="m35.302 2.281.403.001.134.807-.538.268.134-.537h-.268l.134-.537z" fill="black"/><path d="m71.01 54.63.27.135-.135.806h-.403v-.805l.269-.134z" fill="black"/><path d="m22.016 9.127.805.134.135.404h-.268v.268h.268v.269h-.403c-.134-.402-.134-.402 0-.805l-.536-.268z" fill="black"/><path d="M26.98 76.377c.269 0 .269 0 .495.168l.177.235c-.042.293-.042.293-.135.537-.177-.09-.354-.178-.537-.269v-.67z" fill="black"/><path d="M21.878 75.707h.537v.269l-.269.134c-.152.27-.152.27-.268.537l-.269-.672.268-.268z" fill="black"/><path d="m67.115 68.324.402.134-.134.806-.403-.134.135-.806z" fill="black"/><path d="m68.058 60.404.67.269-.134.402h-.805c.088-.22.176-.443.268-.67z" fill="black"/><path d="m2.15 41.342.537.268-.134.671-.537-.535.134-.403z" fill="black"/><path d="m35.84 1.88.67.27v.268h-.267v.402h-.269l-.134-.94z" fill="black"/><path d="m13.155 65.371.134.001v1.478l-.403-.403v-.537h.268v-.537z" fill="black"/><path d="M72.892 61.613h.269c.126.404.14.52 0 .94l-.402-.134a13.41 13.41 0 0 1 0-.672l.134-.135z" fill="black"/><path d="M13.561 15.166h.404v.537h-.268l-.135.403-.267-.135v-.401l.268-.001.001-.404z" fill="black"/><path d="m30.205 3.49.537.134-.135.537-.537-.133.135-.537z" fill="black"/><path d="M64.969 66.31h.267c.196.356.269.523.269.94h.268v.269l-.403-.001c-.131-.4-.264-.799-.401-1.21z" fill="black"/><path d="M4.298 58.66h.269l.134.806H4.3a11.868 11.868 0 0 1-.134-.672l.134-.134z" fill="black"/><path d="M76.78 38.256h.269c.024.319.024.319-.001.67l-.404.27c-.084-.244-.084-.244-.134-.537l.268-.404z" fill="black"/><path d="m42.284 77.451.671.404c-.243.21-.243.21-.537.403a913.91 913.91 0 0 1-.402-.135l.268-.67z" fill="black"/><path d="M52.35 74.363h.67l-.134.403-.671.134.134-.537z" fill="black"/><path d="m4.833 56.912.403.134-.134.671h-.269a11.86 11.86 0 0 1-.134-.67l.133-.135z" fill="black"/><path d="M10.469 13.69h.67l-.134.536h-.537l-.001-.536z" fill="black"/><path d="m24.83 75.84.135.537h.269v.268h-.671c.117-.654.117-.654.268-.805z" fill="black"/><path d="M76.646 43.49c.277.06.277.06.537.134l-.269.537-.268.001c-.076-.259-.076-.259-.134-.535l.134-.135z" fill="black"/><path d="M1.344 40.537h.402l.135.806-.536-.27v-.536z" fill="black"/><path d="M11.95 15.57h.402v.403l.537.269-.27.134-.402-.134v-.27h-.269v-.402z" fill="black"/><path d="m22.552 8.188.537.134-.135.67h-.269V8.59h-.268l.134-.403z" fill="black"/><path d="M43.894 6.174h.268l.134.537h-.268v.27h-.269l-.135-.538h.269v-.268z" fill="black"/><path d="M43.222 2.281c.132.046.265.09.402.135l-.268.537-.403-.134v-.403l.269-.134z" fill="black"/><path d="M42.15 76.512h.805v.268c-.243.143-.243.143-.537.269l-.402-.136.134-.402z" fill="black"/><path d="m15.168 66.58.268.134v.269l.403.134-.135.403h-.269v-.403h-.268v-.537z" fill="black"/><path d="m1.883 54.23.537.135-.135.537-.402-.135v-.536z" fill="black"/><path d="m3.898 45.504.537.134.135.671H4.3l.001-.27-.402-.133v-.403z" fill="black"/><path d="m75.305 39.732.537.135-.135.537h-.402v-.672z" fill="black"/><path d="M2.69 35.035v.806h-.403l-.135-.536c.403-.269.403-.269.537-.269z" fill="black"/><path d="M51.275 3.49h.403l-.135.671-.402-.133.135-.537z" fill="black"/><path d="M17.992 68.592c.269.16.269.16.537.402.033.361.033.361 0 .672-.39-.322-.47-.58-.538-1.074z" fill="black"/><path d="M71.145 55.84h.268l.134.805h-.402v-.805z" fill="black"/><path d="m4.028 39.865.537.134v.402l-.94-.134.134-.269.268.134v-.269z" fill="black"/><path d="m45.374 4.43.268.134v.268l.269.135-.536.134-.269-.536.269-.134z" fill="black"/><path d="M37.992 76.244h.671v.403l-.67.134v-.536z" fill="black"/><path d="m57.992 10.873.671.134-.134.403-.538-.134v-.403z" fill="black"/><path d="m42.281 4.967.27.134v.27h.268v.268l-.537.134.001-.805z" fill="black"/><path d="m38.392 75.168.269.134v.806h-.268a17.398 17.398 0 0 1-.134-.806l.134-.134z" fill="black"/><path d="M64.697 65.236h.268v.672h-.402l.134-.672z" fill="black"/><path d="M67.387 62.818h.268v.94h-.268v-.94z" fill="black"/><path d="m6.715 55.975.268.134v.267l.403-.134-.268.537c-.202-.176-.202-.176-.403-.403v-.402z" fill="black"/><path d="m3.09 35.035.537.134-.134.402H3.09v-.537z" fill="black"/><path d="M1.61 32.484h.268c.142.244.142.244.268.537l-.134.404c-.403-.487-.403-.487-.403-.94z" fill="black"/><path d="m38.93 5.37.537.133-.135.403h-.402V5.37z" fill="black"/><path d="M2.82 36.512h.269c.19.316.279.467.217.839l-.084.236-.134-.403a83.052 83.052 0 0 0-.27-.671z" fill="black"/><path d="m.945 27.92.537.134v.403l-.402.134-.135-.67z" fill="black"/><path d="m75.04 26.31-.133.538h-.403v-.403c.268-.135.268-.135.537-.135z" fill="black"/><path d="M28.595 6.71h.269v.27h.402l-.134.402-.671-.403.135-.27z" fill="black"/><path d="m10.469 62.15.267.135v.67l-.268.135-.001-.94z" fill="black"/><path d="m68.728 59.732.403.135-.134.402-.402-.135.134-.403z" fill="black"/><path d="m74.77 37.047.134.403-.537.268v-.403l.403-.268z" fill="black"/><path d="M48.458 6.578h.537v.403l-.67-.133c.043-.09.088-.178.133-.269z" fill="black"/><path d="M27.387 6.31h.402l-.135.672-.268-.135v-.536z" fill="black"/><path d="m23.36 5.906.27.269c-.051.285-.051.285-.135.537h-.268l.134-.806z" fill="black"/><path d="m64.697 66.848.268.268c-.05.353-.05.353-.134.671l-.268-.134.135-.805z" fill="black"/><path d="M65.906 65.908h.537v.269l-.537.268v-.537z" fill="black"/><path d="m8.059 60.27.401.134-.133.537-.268-.268-.001-.403z" fill="black"/><path d="m8.459 57.584.133.403-.268.134-.403-.268.537-.268z" fill="black"/><path d="M6.578 57.047h.269l.134.537h-.402v-.537z" fill="black"/><path d="M8.059 56.78h.267v.805a614.97 614.97 0 0 1-.268-.135l-.001-.67z" fill="black"/><path d="m75.17 44.162.27.134v.403l-.538-.135.269-.403z" fill="black"/><path d="m4.431 37.184.404.134v.403l-.537-.134.134-.402z" fill="black"/><path d="M75.574 35.84h.403v.537l-.403-.134v-.403z" fill="black"/><path d="m73.966 35.303.269.537-.403.134.134-.671z" fill="black"/><path d="M3.492 30.068h.269l.135.806-.269-.135c-.083-.344-.083-.344-.134-.672z" fill="black"/><path d="m2.281 27.652.404.135.134.67H2.55l-.269-.805z" fill="black"/><path d="m12.215 13.69.403.134v.402h-.403v-.536z" fill="black"/><path d="M56.245 9.531c.133.046.266.09.403.135v.269l-.671.134V9.8h.268V9.53z" fill="black"/><path d="M42.688 4.43h.402v.402h-.268l-.134.269v-.67z" fill="black"/><path d="m37.047.672.403.268v.403l-.403-.134V.67z" fill="black"/><path d="m27.387 75.44.402.134-.403.402v-.536z" fill="black"/><path d="m24.7 74.363.536.269v.268l-.537-.134v-.403z" fill="black"/><path d="m25.908 72.887.537.268v.269l-.672-.269.135-.268z" fill="black"/><path d="m11.414 68.861.403.001-.135.538-.268-.134v-.403z" fill="black"/><path d="M15.439 68.457h.267l-.134.537h-.268l.134-.537z" fill="black"/><path d="m11.008 62.55.402.135-.134.403h-.268v-.537z" fill="black"/><path d="M6.314 60.805h.403v.402l-.537-.134.134-.268z" fill="black"/><path d="M6.85 58.928h.268l-.135.67-.268-.133.134-.537z" fill="black"/><path d="M6.715 57.852h.403v.536h-.269l-.135-.536z" fill="black"/><path d="M70.876 56.912h.269v.537h-.403l.134-.538z" fill="black"/><path d="M76.382 35.303h.268l-.134.537-.403-.135.269-.402z" fill="black"/><path d="M8.188 23.758h.268l.134.67h-.268l-.134-.67z" fill="black"/><path d="m7.25 23.357.403.135v.402l-.403-.134v-.403z" fill="black"/><path d="m68.461 19.463.27.134v.269h-.671c.133-.269.133-.269.401-.403z" fill="black"/><path d="M69.262 18.658h.67v.269h-.67v-.269z" fill="black"/><path d="m67.383 17.315.269.134-.269.401-.268.001-.134-.401c.133-.046.266-.09.403-.135z" fill="black"/><path d="M62.281 13.69h.404l-.134.536-.269-.134.001-.403z" fill="black"/><path d="M22.283 9.932v.268h-.268v.269l-.269-.001v-.404c.269-.134.269-.134.537-.134z" fill="black"/><path d="m40.54 77.72.269.135-.135.403h-.269l.135-.537z" fill="black"/><path d="M41.344 76.645h.537v.268l-.536.134v-.402z" fill="black"/><path d="m35.173 76.377.269.537h-.403l.133-.537z" fill="black"/><path d="m50.203 73.963.403.268-.134.404-.269-.268v-.403z" fill="black"/><path d="M61.746 69.934h.403l-.27.536-.134-.536z" fill="black"/><path d="m61.074 69.264.269.134v.537h-.269v-.671z" fill="black"/><path d="m15.438 69.264.268.134v.671l-.269-.27v-.536z" fill="black"/><path d="m9.13 67.652.403.135-.134.268h-.404l.134-.403z" fill="black"/><path d="m12.215 66.848.537.268-.269.269-.268-.537z" fill="black"/><path d="M64.83 64.295c.135.403.135.403 0 .805l-.268-.134.27-.671z" fill="black"/><path d="m9.934 64.162.402.134-.134.403-.268-.135v-.403z" fill="black"/><path d="m67.117 61.88.537.538-.537-.134v-.403z" fill="black"/><path d="m6.04 61.479.269-.001-.135.535h-.269l.134-.536z" fill="black"/><path d="m5.371 50.605.404.135-.134.402-.269-.134.001-.403z" fill="black"/><path d="m2.281 33.691.538.136v.268l-.537-.134.001-.269z" fill="black"/><path d="m1.878 29.531.268.135v.269l-.537.134V29.8h.268v-.269z" fill="black"/><path d="M76.247 28.457h.27l-.135.537-.269-.134.134-.403z" fill="black"/><path d="m.945 26.578.269.134c.084.344.084.344.134.671-.201-.176-.201-.176-.403-.402v-.402z" fill="black"/><path d="M71.412 23.895h.268v.67l-.403-.134.135-.535z" fill="black"/><path d="m12.35 16.912.268.269-.806.135c.135-.269.135-.269.537-.403z" fill="black"/><path d="M10.875 15.975h.403v.402h-.403v-.402z" fill="black"/><path d="M64.162 13.422h.536v.268l-.67.135.134-.403z" fill="black"/><path d="m63.36 13.154.27.134-.135.403-.268.001.134-.536z" fill="black"/><path d="M55.436 9.664c.09.177.178.354.269.537l-.537-.267.268-.269z" fill="black"/><path d="M28.322 4.697h.268l-.134.537-.268-.134.134-.403z" fill="black"/><path d="m46.98 79.598.403.134V80h-.403v-.402z" fill="black"/><path d="M37.32 79.06h.537l-.134.403-.403-.402z" fill="black"/><path d="M45.508 78.256v.403a705.9 705.9 0 0 0-.403.267c.252-.52.252-.52.403-.671z" fill="black"/><path d="m45.908 77.854.268.134-.134.402-.269-.134.135-.402z" fill="black"/><path d="m41.883 77.049.403-.001v.267l-.403.134v-.401z" fill="black"/><path d="M34.367 76.912h.671l-.268.269h-.403v-.268z" fill="black"/><path d="m14.23 71.814.269.135c-.045.176-.09.353-.135.536l-.134-.672z" fill="black"/><path d="m21.48 70.738.269.134-.135.537-.135-.672z" fill="black"/><path d="M12.083 65.639c.09.087.178.176.269.267l-.134.269h-.269c.043-.178.088-.355.133-.537z" fill="black"/><path d="M67.922 61.21h.403v.402l-.403-.135v-.268z" fill="black"/><path d="m7.516 60.27.268.134v.67c-.268-.402-.268-.402-.268-.805z" fill="black"/><path d="M8.996 59.732h.269l-.269.537v-.538z" fill="black"/><path d="M5.773 56.512h.269l-.269.537v-.538z" fill="black"/><path d="M75.707 47.115c0 .403 0 .403-.134.671a338.19 338.19 0 0 0-.268-.134l.402-.537z" fill="black"/><path d="M1.21 39.732h.404v.403l-.403-.134v-.268z" fill="black"/><path d="M75.04 37.184h.268l-.135.67h-.134v-.67z" fill="black"/><path d="M74.636 35.438c.134.402.134.402 0 .805a338.19 338.19 0 0 0-.269-.134l.269-.673z" fill="black"/><path d="M73.966 31.14c.089.045.177.09.269.135l-.134.403a222.05 222.05 0 0 1-.268-.135l.134-.402z" fill="black"/><path d="m73.02 27.652.27.135v.402h-.27c-.043-.134-.088-.267-.133-.403l.134-.135z" fill="black"/><path d="M71.013 24.967h.269v.403h-.403l.133-.403z" fill="black"/><path d="m4.562 24.162.403.269-.134.403-.267-.67z" fill="black"/><path d="M70.876 23.895c.09.088.178.177.269.268l-.403.403.134-.671z" fill="black"/><path d="m73.559 22.281.267.001-.134.672h-.134l-.001-.67z" fill="black"/><path d="M62.016 11.812h.537l-.135.403-.402-.403z" fill="black"/><path d="m15.439 11.545.536.134v.133h-.671l.134-.268z" fill="black"/><path d="M13.695 11.275h.403v.403l-.403-.134v-.269z" fill="black"/><path d="m25.773 6.71.403.135-.134.403-.269-.134V6.71z" fill="black"/><path d="M25.369 6.443c.131.045.264.09.401.135l-.536.268.135-.403z" fill="black"/><path d="M46.18 6.174h.402v.268l-.402.135v-.403z" fill="black"/><path d="m22.688 5.771.402.001-.134.404h-.268v-.403z" fill="black"/><path d="m35.438 3.893.402.134-.134.537c-.269-.52-.269-.52-.269-.671z" fill="black"/><path d="m37.853 78.121.268.135-.133.403h-.268l.133-.537z" fill="black"/><path d="m31.95 75.44.402.134-.134.268h-.269v-.403z" fill="black"/><path d="M39.064 75.303h.268l-.134.402h-.268l.134-.402z" fill="black"/><path d="M21.48 74.768h.403l-.134.402-.27-.134v-.268z" fill="black"/><path d="M49.13 74.63h.269l-.27.538a635.03 635.03 0 0 1-.134-.269l.134-.27z" fill="black"/><path d="m30.34 73.826.403.403-.403-.001v-.404z" fill="black"/><path d="m49.939 73.559.267-.001-.134.401-.268.001.134-.401z" fill="black"/><path d="m23.36 73.559.27-.001c-.045.132-.09.264-.135.401l-.268.001.134-.401z" fill="black"/><path d="m59.869 68.994.267.269-.403.268c.045-.176.09-.353.135-.536z" fill="black"/><path d="m13.556 68.592.134.537-.268-.001.134-.538z" fill="black"/><path d="M65.505 66.04h.135v.672l-.269-.134.135-.537z" fill="black"/><path d="M68.193 62.955h.268l-.133.403h-.268l.133-.403z" fill="black"/><path d="M6.309 59.195h.267l-.134.537-.134-.537z" fill="black"/><path d="M5.371 57.719c.09.087.178.176.27.267l-.135.403-.134-.671z" fill="black"/><path d="M5.906 52.887h.269l-.135.537-.134-.537z" fill="black"/><path d="M1.615 50.336h.134l-.001.671h-.27l.135-.671z" fill="black"/><path d="M3.36 47.787c.268.403.268.403.268.671h-.269v-.67z" fill="black"/><path d="M74.365 40h.268v.403l-.403-.134.135-.27z" fill="black"/><path d="M75.305 38.928h.268l-.134.67h-.135v-.67z" fill="black"/><path d="m72.758 28.992.402.134-.134.269h-.268v-.403z" fill="black"/><path d="M5.906 28.725h.403l-.135.402a761.98 761.98 0 0 0-.269-.134v-.268z" fill="black"/><path d="M71.279 26.04h.267l-.134.402h-.269l.135-.403z" fill="black"/><path d="m72.892 25.639.269-.001-.134.401-.268.001.134-.401z" fill="black"/><path d="m72.22 24.967.269.134-.001.27h-.404l.134-.403z" fill="black"/><path d="M6.04 24.027h.269l-.135.403h-.269l.134-.403z" fill="black"/><path d="M3.762 24.027h.268l-.134.537-.134-.537z" fill="black"/><path d="m71.95 23.357.135.537-.269.135.135-.673z" fill="black"/><path d="m6.986 22.148.268.135-.134.402-.268-.268.134-.269z" fill="black"/><path d="M69.802 20.537h.269l-.134.403h-.268l.134-.403z" fill="black"/><path d="M69.668 20h.537v.268h-.537V20z" fill="black"/><path d="M10.205 15.975h.402v.268l-.537-.134.135-.135z" fill="black"/><path d="m12.35 14.361.267.001-.134.404h-.268l.134-.403z" fill="black"/><path d="M17.719 9.531c.132.046.265.09.401.135l.001.269-.401-.134-.001-.269z" fill="black"/><path d="m14.23 9.127.402.134v.135h-.671l.27-.268z" fill="black"/><path d="M39.602 6.04h.268l-.134.536-.134-.537z" fill="black"/><path d="m37.184 4.834.537.134-.536.134v-.268z" fill="black"/><path d="m42.15 4.43.134.402-.268.269.134-.67z" fill="black"/><path d="M37.454 1.342h.27l-.135.402h-.27l.134-.402z" fill="black"/><path d="m43.76 77.451.27.27-.538.134.269-.403z" fill="black"/><path d="M31.008 76.377h.268l.135.403-.402-.135v-.268z" fill="black"/><path d="M49.668 74.63h.268l-.134.538-.134-.537z" fill="black"/><path d="m25.234 74.23.403.135-.268.268c-.046-.133-.09-.266-.136-.403z" fill="black"/><path d="M48.994 74.096h.268l-.134.402-.269-.268.134-.134z" fill="black"/><path d="m23.762 73.29.402.135-.268.269-.134-.403z" fill="black"/><path d="m58.126 70.201.269.135v.269a913.91 913.91 0 0 1-.403-.134l.134-.269z" fill="black"/><path d="m65.908 69.129.134.402-.269.134.135-.537z" fill="black"/><path d="M65.508 68.592h.134v.805h-.134v-.805z" fill="black"/><path d="M59.328 68.457h.269v.403h-.269v-.403z" fill="black"/><path d="m4.297 57.988.268.135-.134.402-.133-.537z" fill="black"/><path d="m4.027 55.303.269.134-.134.403-.135-.537z" fill="black"/><path d="M3.227 46.98h.402v.269l-.403-.001v-.27z" fill="black"/><path d="m75.439 41.746.133.537h-.268l.134-.537z" fill="black"/><path d="m2.688 38.66.268.537h-.269v-.537z" fill="black"/><path d="m2.953 37.719.269-.001v.401l-.269.001v-.401z" fill="black"/><path d="M74.633 28.055h.268l.001.402h-.267v-.402z" fill="black"/><path d="M5.234 27.383h.269l.134.403-.403-.135v-.267z" fill="black"/><path d="M6.445 27.248h.403v.269h-.403v-.27z" fill="black"/><path d="M1.48 26.443h.269l-.001.403h-.27v-.403z" fill="black"/><path d="M6.578 24.43h.403v.268h-.402v-.268z" fill="black"/><path d="m72.486 23.625.134.403-.268.134.134-.537z" fill="black"/><path d="m8.86 22.014.268.134-.134.403-.135-.536z" fill="black"/><path d="M4.164 22.014h.269v.402h-.269v-.402z" fill="black"/><path d="M68.727 21.342h.536v.268l-.536-.268z" fill="black"/><path d="m69.267 20.27.403.134-.537.134.134-.268z" fill="black"/><path d="M64.297 15.838h.403v.268h-.403v-.268z" fill="black"/><path d="m63.625 12.08.403.134v.269h-.269l-.135-.403z" fill="black"/><path d="M14.902 11.408h.403v.269h-.403v-.269z" fill="black"/><path d="m23.494 9.531.268.27-.403.134.134-.403z" fill="black"/><path d="m49.934 7.92.402.134-.268.403-.134-.537z" fill="black"/><path d="M48.996 7.248h.269v.403h-.269v-.402z" fill="black"/><path d="m29.262 6.578.402.134v.269h-.268l-.134-.402z" fill="black"/><path d="M35.305 5.37h.268v.402h-.268v-.403z" fill="black"/><path d="m39.869 5.102.267.134v.268l-.403-.134.135-.268z" fill="black"/><path d="M39.869 4.562h.267l-.134.403-.269-.134.135-.267z" fill="black"/><path d="M25.773 4.43h.269v.402h-.269V4.43z" fill="black"/><path d="m39.736 4.162.134.403-.268.134.134-.538z" fill="black"/><path d="M35.977 2.953h.268l-.134.537-.133-.537z" fill="black"/><path d="m36.38 2.549.269-.001c-.046.132-.09.265-.135.402l-.269-.135.134-.268z" fill="black"/><path d="m45.234 78.928.403.134-.403.134v-.268z" fill="black"/><path d="m43.089 78.256-.001.403-.27-.136.269-.268z" fill="black"/><path d="m48.727 78.121.402.001v.27l-.403-.135v-.134z" fill="black"/><path d="m27.117 77.316.403.403-.403-.135v-.269z" fill="black"/><path d="m47.516 76.107.402.135-.134.268-.268-.403z" fill="black"/><path d="M37.586 76.107h.268l-.134.403-.134-.403z" fill="black"/><path d="M28.458 76.107h.269v.269l-.403-.134.134-.135z" fill="black"/><path d="m24.562 74.9.403.135-.403.134v-.27z" fill="black"/><path d="m52.887 74.768.402.134-.403.134v-.268z" fill="black"/><path d="m49.398 74.23.403.135-.402.134v-.27z" fill="black"/><path d="M22.82 73.424h.269l-.135.402-.135-.402z" fill="black"/><path d="m21.074 71.277.269.135v.268h-.269v-.403z" fill="black"/><path d="m20.406 70.873.269.134v.269h-.269v-.403z" fill="black"/><path d="M15.305 70.068h.134l-.001.672h-.135v-.672z" fill="black"/><path d="m64.97 68.861.134.404h-.268l.134-.403z" fill="black"/><path d="m9.939 66.848.133.402h-.268l.134-.402z" fill="black"/><path d="M9.802 64.834h.269v.268l-.402-.134.134-.134z" fill="black"/><path d="M66.852 62.955h.268l-.134.403-.134-.403z" fill="black"/><path d="M4.562 62.418h.27l-.135.403-.135-.402z" fill="black"/><path d="M8.727 57.584h.268l-.134.403-.133-.403z" fill="black"/><path d="m4.027 43.625.269.134v.268h-.269v-.403z" fill="black"/><path d="m2.555 43.49.268.134v.269h-.268v-.403z" fill="black"/><path d="m76.38 39.328.135.403h-.269l.134-.402z" fill="black"/><path d="m4.431 38.523.135.403h-.268l.134-.403z" fill="black"/><path d="m2.016 34.766.402.134-.402.134v-.268z" fill="black"/><path d="M1.21 33.154h.27l-.135.403-.134-.403z" fill="black"/><path d="m2.415 32.484.135.537-.269-.401.135-.136z" fill="black"/><path d="m75.302 28.992.269.134c-.132.09-.265.178-.402.269l.134-.403z" fill="black"/><path d="M6.98 26.71h.269l-.135.404-.135-.403z" fill="black"/><path d="m3.76 23.09.268.268h-.403l.134-.268z" fill="black"/><path d="M71.55 23.09h.27l-.135.403-.134-.403z" fill="black"/><path d="m71.816 22.55.403.135-.404.134v-.27z" fill="black"/><path d="M72.758 22.418h.268l-.134.403-.134-.402z" fill="black"/><path d="m66.715 18.79.403.135-.403.135v-.27z" fill="black"/><path d="m67.79 17.182.402.268h-.403v-.268z" fill="black"/><path d="m12.758 12.617.402.134c-.132.046-.265.09-.402.136v-.269z" fill="black"/><path d="M15.168 11.008h.268l-.134.402-.134-.402z" fill="black"/><path d="m55.438 10.469.268-.001-.134.401c-.045-.131-.089-.264-.134-.401z" fill="black"/><path d="m16.375 9.264.403.134-.403.134v-.268z" fill="black"/><path d="m24.431 6.174.135.403h-.268l.134-.403z" fill="black"/><path d="M28.458 5.906h.269v.269l-.403-.135.134-.134z" fill="black"/><path d="m40.945 5.639.403.133-.403.134V5.64z" fill="black"/><path d="m32.22 5.102.269.268h-.404l.134-.268z" fill="black"/><path d="M39.2 3.893h.268l-.135.402-.134-.402z" fill="black"/><path d="m37.318 2.281.268.27h-.402l.134-.269z" fill="black"/><path d="m23.898 2.281.269.001-.134.404-.135-.403z" fill="black"/><path d="M36.246 1.477h.269l-.135.402-.134-.403z" fill="black"/><path d="M37.453 78.66h.269v.269l-.269-.001v-.27z" fill="black"/><path d="M44.7 77.72h.268v.27h-.269v-.27z" fill="black"/><path d="m36.648 76.78.403.133h-.402v-.134z" fill="black"/><path d="M20.809 76.78h.267v.268h-.268l-.001-.269z" fill="black"/><path d="M20.406 76.78h.269v.268h-.269v-.269z" fill="black"/><path d="M44.434 76.512h.268v.268h-.268v-.268z" fill="black"/><path d="M28.46 76.512h.27v.268h-.27v-.268z" fill="black"/><path d="m21.208 76.512.269.134h-.403l.134-.134z" fill="black"/><path d="M48.727 75.84h.268v.268h-.268v-.268z" fill="black"/><path d="m47.922 75.707.268.134-.134.27-.134-.403z" fill="black"/><path d="M24.297 75.707h.268v.269h-.268v-.27z" fill="black"/><path d="m39.736 75.44.134.402-.268-.134.134-.269z" fill="black"/><path d="m25.105 75.303.269.402h-.269v-.402z" fill="black"/><path d="M52.352 75.303h.268v.268l-.268.001v-.267z" fill="black"/><path d="m26.309 75.303.401.134h-.401l-.001-.134z" fill="black"/><path d="M50.742 74.23h.269v.269l-.268-.001v-.27z" fill="black"/><path d="m47.115 74.096.268.268a913.91 913.91 0 0 1-.403-.134l.135-.134z" fill="black"/><path d="M20.137 74.23h.268v.269l-.268-.001v-.27z" fill="black"/><path d="M40 71.947h.269c-.046.133-.09.266-.136.403L40 71.947z" fill="black"/><path d="m17.453 70.605.134.537-.134-.536z" fill="black"/><path d="M66.578 69.666h.269v.269h-.269v-.27z" fill="black"/><path d="M60.273 69.533h.269v.269h-.269v-.269z" fill="black"/><path d="M14.633 68.725h.268l.001.268h-.267v-.268z" fill="black"/><path d="m66.043 68.324.268.134c-.043.09-.087.178-.133.269l-.134-.403z" fill="black"/><path d="m10.742 67.385.269.134-.134.268-.134-.403z" fill="black"/><path d="m14.094 65.639.268-.001v.267h-.268v-.268z" fill="black"/><path d="M64.164 64.967h.269v.268h-.269v-.268z" fill="black"/><path d="M65.773 63.627h.269v.268h-.269v-.268z" fill="black"/><path d="m67.79 62.418.268.134c-.045.089-.09.177-.135.269l-.134-.402z" fill="black"/><path d="m68.46 62.283.27.269-.27.134v-.403z" fill="black"/><path d="M67.652 62.014h.269v.268h-.268v-.268z" fill="black"/><path d="M6.18 58.256h.268v.268H6.18v-.268z" fill="black"/><path d="m6.309 52.617.267.269-.268.134-.001-.403z" fill="black"/><path d="m72.35 52.215.268.268-.403-.134.134-.135z" fill="black"/><path d="M2.418 50.873h.268v.268l-.268.001v-.267z" fill="black"/><path d="M2.555 42.953h.268v.269h-.268v-.269z" fill="black"/><path d="m74.633 38.389.268-.001.001.267h-.267v-.268z" fill="black"/><path d="M3.625 37.047h.268v.268h-.268v-.268z" fill="black"/><path d="M2.016 33.96h.268v.27h-.268v-.27z" fill="black"/><path d="M1.21 33.96h.27v.27h-.27v-.27z" fill="black"/><path d="m1.744 33.559.268.267-.403-.134.134-.134z" fill="black"/><path d="M5.105 32.754h.269v.268h-.269v-.268z" fill="black"/><path d="M74.367 30.873h.269v.269h-.269v-.27z" fill="black"/><path d="M73.293 27.115h.268l.001.269h-.267v-.269z" fill="black"/><path d="m.54 26.443.133.537-.134-.537z" fill="black"/><path d="M74.367 25.234h.269v.269h-.269v-.269z" fill="black"/><path d="M71.68 25.234h.268v.269h-.268v-.269z" fill="black"/><path d="M72.086 24.162h.268v.269h-.268v-.268z" fill="black"/><path d="M6.043 23.09h.268l.001.268h-.267v-.268z" fill="black"/><path d="m70.207 22.148.269.135-.27.268v-.402z" fill="black"/><path d="M69.805 22.014h.268v.268h-.268v-.268z" fill="black"/><path d="m68.727 20 .268.134-.134.269-.133-.403z" fill="black"/><path d="M71.145 19.596h.268v.268h-.269v-.268z" fill="black"/><path d="M67.117 16.78h.269v.268h-.269v-.269z" fill="black"/><path d="M66.578 16.643h.269v.268h-.269v-.267z" fill="black"/><path d="M12.621 15.303h.27v.268l-.269.001.001-.267z" fill="black"/><path d="M64.7 14.63h.268v.27h-.269v-.27z" fill="black"/><path d="m64.027 14.361.269.001v.27h-.269v-.269z" fill="black"/><path d="M11.277 13.557h.269v.268h-.269v-.268z" fill="black"/><path d="m64.167 12.484.134.269-.402-.134.269-.136z" fill="black"/><path d="M57.32 10.873h.269l-.001.269h-.27v-.27z" fill="black"/><path d="M53.828 9.664h.269v.269h-.269v-.269z" fill="black"/><path d="M51.812 8.86h.27v.268h-.27v-.269z" fill="black"/><path d="M28.46 7.787h.27v.269h-.27v-.269z" fill="black"/><path d="m49.805 6.979.268-.001v.267h-.268V6.98z" fill="black"/><path d="M44.562 6.846h.27v.268h-.27v-.268z" fill="black"/><path d="m44.969 6.443.133.537-.134-.537z" fill="black"/><path d="M34.367 6.443h.269v.269h-.269v-.269z" fill="black"/><path d="M22.555 6.443h.268v.269h-.268v-.269z" fill="black"/><path d="M40.945 6.31h.269v.27h-.269v-.27z" fill="black"/><path d="m46.98 5.906.269.134-.27.269v-.404z" fill="black"/><path d="m42.823 5.906.134.269-.402-.135.268-.134z" fill="black"/><path d="m25.508 5.234.268.135-.134.267-.134-.403z" fill="black"/><path d="m45.906 4.025.403.135h-.404v-.135z" fill="black"/><path d="M25.508 3.625h.268v.268h-.268v-.268z" fill="black"/><path d="m23.36 3.49.268.134-.269.269V3.49z" fill="black"/><path d="M23.625 3.088h.268v.268h-.268v-.268z" fill="black"/><path d="M34.5 1.342h.269l-.001.268h-.27v-.268z" fill="black"/><path d="m42.418 79.197.268.134-.268.136v-.269z" fill="black"/><path d="m46.578 78.389.269-.001-.135.267-.134-.268z" fill="black"/><path d="m46.309 77.854.267.268h-.268l-.001-.269z" fill="black"/><path d="M29.133 77.988h.268l-.133.269-.134-.269z" fill="black"/><path d="m50.068 77.72.134.27-.268-.135.134-.134z" fill="black"/><path d="m45.505 77.584.135.268-.269-.134.135-.134z" fill="black"/><path d="m22.418 77.184.268.134-.268.134v-.268z" fill="black"/><path d="M40.001 77.049c.046.087.09.176.136.267l-.269-.134.134-.134z" fill="black"/><path d="m40.54 76.912.267.134-.268.135v-.268z" fill="black"/><path d="m38.927 76.645.134.268-.267-.134c.044-.046.089-.09.134-.135z" fill="black"/><path d="m40.273 76.377.269.268h-.269v-.268z" fill="black"/><path d="m20.673 76.244.135.269-.269-.135.133-.134z" fill="black"/><path d="m23.762 75.975.268.134-.268.133v-.268z" fill="black"/><path d="m54.766 75.303.268.268-.268.001v-.267z" fill="black"/><path d="m23.492 75.44.269.134-.268.134v-.269z" fill="black"/><path d="m30.205 75.035.134.269-.27-.135.135-.135z" fill="black"/><path d="M33.559 74.9h.267l-.134.269a635.03 635.03 0 0 1-.134-.27z" fill="black"/><path d="M48.594 74.363h.268l-.134.269-.134-.269z" fill="black"/><path d="m29.267 73.826.134.269-.267-.135.134-.134z" fill="black"/><path d="m50.337 73.29.135.27-.269-.135.134-.134z" fill="black"/><path d="m22.82 72.62.269.268h-.27v-.269z" fill="black"/><path d="m18.39 70.338.27.268h-.27v-.268z" fill="black"/><path d="m12.486 67.652.134.269c-.089-.043-.177-.088-.268-.133l.134-.135z" fill="black"/><path d="m70.341 60.537.136.269-.27-.135c.045-.043.09-.087.135-.133z" fill="black"/><path d="m7.25 55.84.268.134-.268.134v-.268z" fill="black"/><path d="m2.287 44.7.134.268-.268-.135.135-.134z" fill="black"/><path d="m.406 36.375.269.134-.269.134v-.27z" fill="black"/><path d="m1.074 32.082.269.268h-.269v-.268z" fill="black"/><path d="m.672 27.516.268.268H.672v-.268z" fill="black"/><path d="m71.142 25.771.134.27-.268-.134.134-.135z" fill="black"/><path d="m9.665 21.342.135.268a614.97 614.97 0 0 1-.269-.134c.046-.044.09-.089.135-.134z" fill="black"/><path d="m69.668 21.074.268.269h-.268v-.269z" fill="black"/><path d="m70.204 20.941.135.27-.27-.134.134-.135z" fill="black"/><path d="m70.34 19.865.268.135-.268.134v-.269z" fill="black"/><path d="M67.516 17.852h.268l-.134.268-.134-.268z" fill="black"/><path d="M66.18 15.705h.268l-.134.269-.134-.269z" fill="black"/><path d="m66.715 15.438.268.268h-.268v-.269z" fill="black"/><path d="M61.21 12.885h.27l-.135.268-.134-.268z" fill="black"/><path d="m63.09 12.35.268.268h-.268v-.268z" fill="black"/><path d="m60.806 11.945.134.269-.268-.134.134-.135z" fill="black"/><path d="m56.914 11.14.268.135-.268.134v-.27z" fill="black"/><path d="m16.781 11.008.27.268h-.269l.001-.268z" fill="black"/><path d="m24.027 8.725.269.134-.269.133v-.268z" fill="black"/><path d="M52.484 7.787h.269l-.134.269-.136-.269z" fill="black"/><path d="M48.059 7.383h.267l-.134.268c-.045-.087-.089-.176-.134-.267z" fill="black"/><path d="m46.578 6.846.269.134-.269.134v-.268z" fill="black"/><path d="M49.668 6.578h.268l-.134.269-.134-.269z" fill="black"/><path d="m46.98 6.443.269.269h-.27v-.269z" fill="black"/><path d="m44.562 6.04.27.268h-.27v-.269z" fill="black"/><path d="m38.121 6.04.27.133-.269.135.001-.269z" fill="black"/><path d="m26.578 5.639.269.267h-.269V5.64z" fill="black"/><path d="m47.384 5.37.135.268-.27-.135.134-.134z" fill="black"/><path d="m43.09 3.893.268.134-.268.134v-.267z" fill="black"/><path d="m40.809 2.953.267.134-.268.135-.001-.269z" fill="black"/><path d="m36.914 2.686.268.268h-.268v-.268z" fill="black"/><path d="m36.781 2.148.404.135-.403-.135z" fill="black"/><path d="M38.121 1.21h.27l-.135.267-.134-.268z" fill="black"/><path d="m34.634.537.135.269-.27-.135.134-.133z" fill="black"/><path d="m48.188 79.598.268.134-.269-.134z" fill="black"/><path d="m48.46 77.988.27.134-.27-.134z" fill="black"/><path d="m24.969 77.988.267.134-.268-.134z" fill="black"/><path d="m44.297 77.72.268.135-.268-.134z" fill="black"/><path d="m41.61 77.72.268.135-.269-.134z" fill="black"/><path d="m35.71 77.584.27.134-.27-.134z" fill="black"/><path d="m22.418 77.584.268.134-.268-.134z" fill="black"/><path d="m39.2 75.975.268.134-.269-.135z" fill="black"/><path d="m43.898 75.168.269.134-.269-.134z" fill="black"/><path d="m38.39 73.154.27.134-.27-.134z" fill="black"/><path d="m71.55 24.834.27.134-.27-.134z" fill="black"/><path d="m72.488 23.357.269.135-.269-.135z" fill="black"/><path d="m69.398 21.613.269.134-.269-.134z" fill="black"/><path d="m67.79 19.463.268.134-.269-.134z" fill="black"/><path d="m70.879 19.328.267.134-.268-.134z" fill="black"/><path d="m68.996 18.12.269.133-.269-.134z" fill="black"/><path d="m66.18 16.242.268.134-.268-.134z" fill="black"/><path d="m62.555 12.885.268.134-.268-.135z" fill="black"/><path d="m61.074 11.678.269.134-.269-.134z" fill="black"/><path d="m55.977 9.264.268.134-.268-.134z" fill="black"/><path d="m49.133 6.846.268.134-.267-.134z" fill="black"/><path d="m38.39 5.639.27.133-.27-.134z" fill="black"/><path d="m34.766 2.148.268.135-.268-.135z" fill="black"/><path d="m36.512 2.014.268.134-.268-.134z" fill="black"/><path d="m35.574 0 .269.134L35.574 0z" fill="black"/><path d="M37.674 79.181c-.008.485.373.76.884.637.106-.11.24-.206.313-.335.213-.383.018-.807-.395-.901a.688.688 0 0 0-.343-.04l-.048.018-.2.192-.134.177-.076.254z" fill="black"/><path d="M36.012 78.723a.266.266 0 0 0 .195.096c.023-.007.046-.012.069-.017l.057-.005-.037-.072c.016.022.03.046.037.073l.327-.182.045-.06c.045-.053.026-.118.03-.178a248.46 248.46 0 0 1-.113-.355.82.82 0 0 0-.33-.17c-.138.064-.3.1-.405.197-.204.186-.121.555.125.671zm.218-.563a7.12 7.12 0 0 1-.045.068.177.177 0 0 1 .045-.068z" fill="black"/><path d="m32.292 80.002.21.018.005-.246c-.024-.065-.046-.13-.074-.193-.02-.043-.047-.083-.071-.124-.03.033-.082.064-.083.099-.004.148.007.298.012.447z" fill="black"/><path d="M33.4 78.63c.077.127.207.247.394.17l-.14-.118c-.052-.001-.082-.016-.092-.043l.092.042-.024-.25-.204-.108c-.013.104-.071.235-.027.307z" fill="black"/><path d="M32.793 79.287c.012-.05-.002-.14-.038-.163-.04-.025-.115.008-.175.015l.055.228c.076-.037.151-.05.158-.08z" fill="black"/><path d="M33.801 80.019c-.027-.018-.056-.034-.084-.05l-.157.26.09.053.151-.264z" fill="black"/><path d="M33.48 79.803c-.094-.013-.188-.021-.283-.03 0 .034-.002.068-.004.101h.296c-.004-.025-.004-.07-.01-.07z" fill="black"/><path d="M33.19 78.662c-.022-.008-.062-.028-.066-.023-.043.059-.082.122-.122.185l.085.043.104-.206z" fill="black"/><path d="M33.978 79.049c-.02-.022-.042-.043-.063-.063l-.2.203.05.05.213-.191z" fill="black"/><path d="M34.706 78.91c-.027-.044-.048-.097-.058-.095-.047.007-.09.03-.135.047.014.029.028.082.042.082.045 0 .09-.018.15-.033z" fill="black"/><path d="m31.092 78.401-.076-.165-.1.053c.02.034.032.077.061.1.022.017.065.008.115.013z" fill="black"/><path d="M31.027 80.037c.005.012.01.023.013.035.007-.016.006-.028-.013-.035z" fill="black"/><path d="M32.541 78.301c.016-.017.003-.056.002-.107-.05.019-.092.022-.103.042-.012.02.008.058.015.088.03-.007.072-.004.086-.022z" fill="black"/><path d="M32.922 79.663c-.012.013.008.055.014.084.033-.01.07-.014.097-.032.01-.007 0-.044 0-.085-.052.013-.093.013-.11.033z" fill="black"/><path d="m32.056 77.696-.071-.098c-.02.014-.05.024-.055.041-.006.026.006.057.01.086l.116-.03z" fill="black"/><path d="M33.192 79.074c-.028.019-.061.033-.083.057-.01.011.005.042.013.087.046-.034.08-.048.094-.073.008-.014-.016-.046-.025-.07z" fill="black"/><path d="M31.17 79.784c-.011.02 0 .05.001.076l.073-.003-.008-.095c-.023.007-.057.008-.066.022z" fill="black"/><path d="M32.622 79.74c.035.025.06.023.068-.024l-.073-.105.005.13z" fill="black"/><path d="m34.301 79.276-.036-.023-.07.113.04.022a9.32 9.32 0 0 0 .067-.112z" fill="black"/><path d="M32.775 79.86c-.01-.02-.02-.04-.031-.058-.04-.002-.078-.002-.078.051.034.094.07.079.109.006z" fill="black"/><path d="M31.114 79.01a2.16 2.16 0 0 0-.02-.03l-.102.042-.118.037c.027.012.054.026.082.04l.158-.09z" fill="black"/><path d="m30.305 58.476-.23.23c-.338-.033-.338-.033-.46-.153a1.708 1.708 0 0 1 0-.384c.342.15.342.15.69.306zm15.146.09a2.136 2.136 0 0 1-.536.001l.28.002c.085 0 .172-.002.257-.004zM30.356 32.802c-.295.06-.49.289-.74.537.286-.001.42-.092.667-.232l.23-.129.176-.101V32.8h4.068c-.385.065-.678.268-1.06.59l-.41.33-.194.16c-.232.187-.472.36-.717.53l.153.076c.215-.1.216-.1.46-.247l.139-.079c.147-.084.294-.17.44-.256l.291-.169.424-.246a46.72 46.72 0 0 1 1.082-.611V32.8h16.094c0 .344.006.689-.024 1.03l-.034.259-.042.312a81.66 81.66 0 0 0-.167 1.257l-.039.304c-.018.15-.02.15-.038.298l-.038.282-.033.254a2.96 2.96 0 0 1-.04.179 1.77 1.77 0 0 0-.002-.343c-.137 0-.241.101-.353.175-.059.037-.118.076-.179.116l-.197.13a202.697 202.697 0 0 1-2.324 1.498c-.31.198-.621.396-.934.591-.14.09-.28.178-.422.267l-.197.122-.179.114c-.05.033-.103.065-.156.098-.144.13-.167.224-.195.413l.007-.579a26.6 26.6 0 0 0-.055-1.731l-.02-.291c-.006-.098-.01-.193-.017-.287l-.02-.267c-.02-.292-.053-.502-.202-.755-.27.04-.27.04-.536.077.03 1.244-.049 2.468-.166 3.706l-.061.655a382.72 382.72 0 0 1-.45 4.574c-.27 2.6-.5 5.18-.487 7.798l.001.15c.003.384.035.72.148 1.086l.062.18c.036.107.072.214.11.32l.383-.075c.062-1.36.144-2.715.29-4.069l.022-.188c.02-.183.039-.367.06-.55l.019-.169c.02-.18.044-.36.07-.54.049-.07.083-.118.113-.155.045-.003.071-.02.205-.102l-.012.027.23-.076-.079-.04.134-.087.1.05c.196-.09.197-.09.42-.223.086-.05.174-.1.263-.153l.284-.166.29-.168.594-.345c.237-.138.473-.273.71-.409l.63-.362.236-.134.217-.126c.063-.035.125-.072.19-.11.171-.104.172-.105.301-.33-.015.873-.113 1.76-.226 2.62-.056.411-.098.82-.134 1.233-.044.519-.085 1.034-.178 1.546-.042.23-.074.45-.092.683-.05.815-.176 1.589-.345 2.387l-.052.235c-.22 1.038-.447 2.083-1.191 2.884-.633.55-1.383.669-2.176.684.035-.004.07-.006.106-.013.297-.231.483-.534.69-.844-.196 0-.285.065-.453.164l-.177.104-.185.11-.184.108c-.23.135-.231.136-.456.28v.077c.042.006.083.01.124.014h-.22c-.446 0-.89.007-1.334-.052l-.208-.03c.133.009.268.008.412-.01.327-.21.574-.487.843-.766.153-.13.308-.255.465-.379.224-.176.372-.301.53-.54-.222 0-.35.105-.543.218l-.24.14-.251.15-.246.142-.713.422-.23.136-.213.125-.19.111c-.043.03-.087.058-.133.088v.077c.127.032.248.054.368.07l-.102-.01c-.06-.001-.12-.004-.178-.006l-.4-.016-.201-.008-.198-.01a9.266 9.266 0 0 1-.36-.02 7.354 7.354 0 0 0-1.067-.11l-.239-.008a164.687 164.687 0 0 0-3.039-.084l-.298-.005c-1.457-.027-2.909-.035-4.363.07-.37.028-.74.054-1.112.06-.58-.047-1.045-.126-1.47-.55l-.154-.188c-.29-.345-.37-.667-.445-1.102l.078.307c.287-.105.53-.238.788-.404.079-.05.157-.1.237-.153l.25-.162.515-.332.13-.084a52.6 52.6 0 0 1 .83-.524l.204-.127c.126-.078.254-.157.382-.234.142-.09.281-.185.42-.28v-.075c.053.175.124.346.22.515l.01.02c.266.038.37.01.599-.139.238-.346.237-.346.123-1.693-.02-.213-.036-.427-.054-.64.372-.137.7-.347 1.037-.554l.192-.115.183-.113.166-.101c.14-.085.14-.085.206-.245-.351-.001-.71.312-1.006.487l-.242.14-.228.134-.211.126-.11.077c-.033-.407-.065-.814-.095-1.221l.052.103.46-.306c-.05-.027-.101-.052-.153-.078-.194.102-.2.106-.363.216l-.029-.394-.012-.182-.051-.702.072.143c.076-.076.151-.153.23-.23-.158-.012-.16-.012-.303.073l-.015-.232-.087-1.228-.117-1.636.065.187c1-.644 1-.644 1.992-1.303l-.154-.077c-.186.082-.187.082-.395.205l-.237.135-.248.144-.248.142c-.415.226-.42.228-.776.516l-.13-1.83-.14-1.966-.073-1.042c-.13-1.86-.275-3.719-.434-5.576v-.001l-.22-.008c-.24.008-.24.008-.378.14-.243.465-.263 1.008-.266 1.524v.896l.002.24c.002 1.252.025 2.494.15 3.74l.042.417c.024.256.05.511.076.767.028.261.054.524.078.786l.02.235.012.14c-.042-.02-.085-.04-.128-.063l-.23.23.142-.057c-.051.028-.112.065-.188.11l-.107-.052c-.203.092-.204.092-.434.23l-.13.076-.427.25-.292.168-.439.257a41.51 41.51 0 0 1-1.093.616c-.124.07-.25.139-.376.206-.181.1-.181.1-.407.265v.306l-.102-.617a70.84 70.84 0 0 1-.53-4.345 48.91 48.91 0 0 0-.272-2.327c-.15-1.057-.278-2.115-.4-3.175l-.047-.422-.023-.197a23.07 23.07 0 0 0-.08-.643c-.1-.299-.1-.299-.11-.622-.01-.176-.024-.352-.043-.527-.2-.72-.2-.72-.23-1.916h3.881zM43.012 58.47zm.245-1.833c-.2.092-.2.092-.426.23l-.26.153-.275.163-.269.157-.52.306c-.308.179-.619.352-.931.523v.076c.292.07.564.132.847.008a5.42 5.42 0 0 0 .44-.344l.32-.254.156-.129c.224-.182.456-.355.69-.527l.225-.168.158-.12-.153-.075zm-7.97-.92c-.231 0-.374.116-.573.23l-.264.152c-.095.053-.19.108-.284.163l-.29.167-.594.342-.572.33-.762.44-.234.135-.216.125-.189.11c-.153.098-.27.2-.391.334.605.074.925-.157 1.412-.498l.465-.315.244-.166c.262-.176.526-.347.793-.515l.133-.084.646-.406.233-.149.208-.132c.166-.098.166-.098.234-.263zm6.59.46c-.237 0-.392.126-.597.244l-.134.077c-.144.083-.289.166-.432.25l-.294.17c-.518.297-1.036.597-1.55.902l-.14.082c-.102.061-.202.126-.3.19v.077c.52.05.834-.013 1.215-.277l.504-.378.17-.132c.352-.264.716-.51 1.077-.76.052-.035.104-.072.157-.11l.14-.096c.118-.084.119-.084.184-.24zm-2.375-.92c-.194.087-.194.088-.414.22l-.261.15c-.094.056-.19.11-.283.166l-.29.168-.598.349-1.13.652-.502.29a71.64 71.64 0 0 1-1.35.764v.077c.82.112 1.296-.178 1.93-.647l.278-.197c.19-.136.381-.272.57-.41.412-.294.832-.577 1.252-.86l.607-.413.203-.137.142-.096-.153-.077zm-4.751-.613c-.196.088-.196.09-.42.223l-.263.152c-.095.054-.19.11-.284.166l-.291.167a228.44 228.44 0 0 0-1.406.819l-1.107.645-1.135.662.307.306.218-.141c.674-.438 1.35-.872 2.028-1.305.838-.536 1.673-1.076 2.506-1.62l-.153-.076zm-1.686-1.45c.004.37.03.73.117 1.08.002.002.003.005.003.008l-.106.07c-.134.03-.244.102-.37.178.09-.04.18-.08.275-.114-.492.325-.998.622-1.513.913-.139.077-.277.156-.416.234l-.272.155a38.46 38.46 0 0 0-.667.384l-.25.15-.225.134c-.177.095-.178.095-.33.095a1.906 1.906 0 0 1-.078-.766c.18-.246.432-.38.69-.536l.274-.173c.206-.13.412-.26.62-.387.397-.245.79-.5 1.18-.755.265-.172.53-.342.796-.51l.152-.097c.064-.038.095-.056.12-.064zm8.814 2.983.23-.077-.153-.077-.077.154zm5.9-.384.154.077c.19-.093.19-.094.393-.225l.21-.131.163-.104-.076-.306c-.417.34-.418.34-.843.69zm-12.491-.076.383-.153-.154-.077-.23.23zm-2.58-1.187a3.67 3.67 0 0 0-.342.178l-.224.13-.235.141-.243.143c-.249.147-.495.297-.743.444.287-.17.576-.34.866-.507l.292-.167.425-.245.13-.075.074-.043zm6.948.727.23-.076-.153-.076-.077.153zm-6.602-3.448c.01.28.016.56.013.843v.294a1.247 1.247 0 0 1-.207.161c-.136.08-.272.157-.41.233l-.242.143c-.27.158-.543.312-.816.466l-.415.235-.272.154c-.223.125-.445.254-.664.386l-.248.148-.22.134c-.186.095-.186.096-.416.096-.053-.296-.067-.55 0-.843.238-.263.53-.417.838-.588l.39-.233c.136-.081.273-.161.41-.24.28-.165.553-.34.826-.516l.134-.087.385-.252.48-.312.205-.132c.124-.07.153-.087.228-.091zm.858-2.062.052.704.012.18c.04.561.083 1.122.128 1.681l-.042.032v.153c.02-.006.037-.015.056-.021.017.213.034.426.053.64.113 1.346.114 1.346-.124 1.694-.23.148-.333.177-.6.14-.003-.007-.005-.014-.009-.02a2.576 2.576 0 0 1-.22-.516c-.007-.023-.012-.047-.02-.071h.002c-.104-.372-.13-.755-.135-1.149-.002-.082 0-.164 0-.247h.001l.001-.293c.008-.718-.035-1.43-.087-2.146l-.007-.094-.004-.062-.04-.57a30.014 30.014 0 0 0-.216-2.105c-.01-.077-.018-.153-.026-.23a9.664 9.664 0 0 1-.05-.601c-.014-.26-.028-.462-.11-.71a7.615 7.615 0 0 1-.036-.336l-.018-.204-.018-.22-.025-.281a.192.192 0 0 0 .018-.028l-.015.003-.004.002h-.002c0-.008 0-.014-.002-.021l.001.002-.011-.14-.02-.236c-.025-.262-.051-.524-.079-.785a89.657 89.657 0 0 1-.076-.766l-.04-.416c-.126-1.247-.149-2.489-.152-3.741v-.24a93.353 93.353 0 0 1-.001-.897c.003-.516.023-1.06.266-1.524.138-.132.139-.132.377-.14l.22.007c-.22.025-.22.025-.46.078-.307.463-.322 1.036-.326 1.58v.897l.002.24c.003 1.25.025 2.49.15 3.736l.044.438a223.852 223.852 0 0 0 .118 1.15l.013.161c.011.112.02.223.026.334.002.156.002.224-.026.28l-.023-.012.001.02.005-.002.017-.006-.002.003c.026-.003.05-.003.08-.003l.014.227.02.296c.005.097.012.194.019.294.015.256.015.257.101.487.007.145.008.29.006.436 0 .076 0 .152-.002.23l-.003.177-.016.009c.006.075.016.15.024.227a.226.226 0 0 1 .07-.007c.101.713.198 1.426.23 2.146l.03.182a1.44 1.44 0 0 1-.03.584l-.018.016.004.047c.003.03.004.062.006.093a1.11 1.11 0 0 1 .084-.003v1.15l-.015.008c0 .049.002.097.003.146.024-.003.052-.001.088-.001.02.167.033.337.044.506l.025.286c-.046.186-.075.27-.144.344 0 .083-.002.166 0 .248a.246.246 0 0 1 .075-.007c.04.532.039.532.077 1.074-.01.008-.023.015-.034.022l.014.056.02-.001-.018.006c.005.023.01.048.017.071v-.077l.23.537c.233.026.356.015.56-.1.2-.318.2-.318.087-1.643-.077-.863-.141-1.729-.204-2.594l-.013-.2-.091-1.262-.048-.67-.17-2.364-.157-2.198-.137-1.916-.08-1.142c-.105-1.45-.216-2.899-.272-4.351-.002-.082-.006-.16-.01-.24.16 1.851.304 3.703.434 5.556l.074 1.04.14 1.967c.042.61.086 1.22.13 1.83l-.01.01.013.043.117 1.635.087 1.228.017.233-.003.003.004.008zm4.93-13.583c-.23.012-.323.07-.352.307 0 .06.002.12.003.178l.002.206.006.466.002.252c.016 1.507.01 3.01-.05 4.517-.08 2.05-.113 4.095-.112 6.145a758.392 758.392 0 0 1 0 1.747l.001.405c0 1.09-.019 2.205.167 3.283l.027.15c.06.366.131.672.354.977.154.076.154.077.307.077.166-.124.224-.193.257-.4l-.003-.2-.003-.232-.005-.254-.005-.546c-.007-.564-.012-1.128-.014-1.692v-.16c-.003-.944.017-1.886.056-2.83.086-2.014.113-4.024.112-6.04v-2.223c-.001-1.184.076-2.49-.308-3.624-.11-.251-.186-.398-.444-.508zm10.165 17.33c-.145 0-.26.132-.37.217l-.176.137c-.063.046-.125.093-.188.142l-.187.145-.46.353.154.077c.2-.098.387-.202.578-.316l.162-.09c.318-.182.318-.182.483-.498 0-.055 0-.11.002-.168zm-15.807.848a4.658 4.658 0 0 0-.216.073c.032-.02.063-.042.095-.063a.634.634 0 0 1 .12-.015v.005zm-.218-3.835c.028.386.053.77.069 1.155l-.34.189c-.948.528-1.89 1.062-2.824 1.615l-.22.13-.193.114c-.164.09-.164.09-.393.167-.14-.28-.154-.54-.077-.843.141-.133.142-.133.33-.256l.213-.14.223-.14.213-.137c.223-.14.448-.28.672-.418.63-.39 1.256-.784 1.873-1.195.295-.194.353-.232.452-.24zm1.31 3.293.077-.153h-.153l.077.154zm14.945-1.838c-.193 0-.432.256-.589.373a87.65 87.65 0 0 1-1.246.905l-.14.1-.324.231.153.077c.294-.131.573-.295.853-.456l.424-.233.27-.152.246-.14c.25-.21.29-.387.352-.703zm-16.522-4.286c.1.7.165 1.4.215 2.105l.041.573v.015c-.226.224-.493.353-.777.496l-.504.273c-.09.046-.178.093-.268.141-.28.15-.555.307-.829.468l-.136.081-.4.236a95.39 95.39 0 0 1-.5.29l-.213.125c-.188.097-.188.097-.495.173l-.154-1.608.69-.46-.26.153c-.258.153-.258.154-.43.154-.097-.292-.158-.546-.076-.844.19-.205.42-.332.66-.47l.422-.258.224-.132c.375-.227.743-.465 1.112-.702l.597-.379c.146-.092.292-.186.438-.28l.231-.148.213-.138a.886.886 0 0 1 .17-.093c.008.076.015.153.026.229zm16.751 1.986c-.243 0-.386.148-.585.284l-.133.09-.427.292-.292.2-.727.497c-.199.138-.4.275-.6.412l-.99.678.153.076c.187-.083.186-.083.396-.21l.248-.144.265-.157.27-.159c.271-.157.542-.318.812-.478l.243-.144c.34-.2.679-.404 1.017-.608.05-.03.103-.06.155-.093a.57.57 0 0 0 .194-.151 7.555 7.555 0 0 0 0-.384zm-15.48 1.38.024.05-.004-.064-.02.014zm.536-.23c.127-.051.254-.1.384-.153l-.153-.078-.23.23zm-4.981-.307.383-.153-.154-.077-.231.23zm.383-.23.23-.076-.154-.078c-.027.05-.051.101-.077.153zm16.323-.613.384-.153-.154-.077c-.076.076-.152.15-.23.23zm-11.88-.076.231-.077-.153-.077-.077.153zm-1.911-4.21.018.219.018.204c.01.111.022.224.037.336.082.247.096.45.11.709.007.116.015.23.025.345 0 .01 0 .02.002.029-.046.024-.091.05-.138.076-1.248.694-1.248.694-2.484 1.408l-.157.093c-.223.132-.444.265-.665.401l-.208.13c-.056.035-.113.07-.171.108-.144.073-.144.073-.374.073a2.668 2.668 0 0 1 0-.844c.172-.216.385-.324.628-.45l.397-.229.213-.117c.379-.214.746-.448 1.115-.68l.413-.254.177-.109.125-.077c-.446.241-.89.486-1.331.734-.081.047-.164.092-.248.14l-.506.286-.246.14-.222.124c-.206.108-.206.11-.589.263l-.077-.844.35-.22c.763-.475 1.525-.952 2.284-1.433.533-.336.862-.542 1.075-.67l.046.024c-.242.163-.487.322-.733.48.181-.114.364-.225.552-.329l.234-.132.198-.104a.876.876 0 0 0 .112-.115l.025.28zm17.24 2.063c-.252 0-.431.177-.633.316-.593.404-1.2.787-1.808 1.167l-.212.134-.19.119c-.156.094-.156.093-.222.257.393-.113.712-.288 1.058-.498l.343-.208c.06-.035.12-.07.18-.107.184-.109.37-.213.556-.317l.182-.103c.116-.065.233-.13.35-.193.175-.097.176-.097.397-.26v-.308zm.287-1.973-.01.225a.78.78 0 0 1-.194.374c-.148.015-.222.074-.366.17-.06.038-.118.077-.179.117l-.194.13c-.14.09-.279.18-.417.272l-.226.148c-.445.29-.894.576-1.343.862l.39-.25c.31-.196.618-.393.925-.593l.191-.126.349-.228c.271-.18.535-.347.836-.466-.112.11-.254.198-.41.3l-.345.214-.392.244-.212.133c-.403.253-.805.51-1.206.768-.122.08-.122.08-.247.159l-1.045.67c-.05.034-.102.067-.154.1l-.123.08c-.017-.01-.036-.018-.054-.027.448-.301.9-.595 1.354-.886l-.412.264c-.315.204-.63.407-.942.613l-.141.092.062.031-.129.085c-.003.003-.007.004-.01.006l.053-.105c-.144.094-.192.127-.257.208a.58.58 0 0 1-.037 0 20.57 20.57 0 0 1 0-.689l-.005-.283c.093-.286.133-.312.375-.467l.19-.12c.371-.227.746-.443 1.123-.658l.392-.225.27-.155c.329-.188.656-.378.984-.57l.41-.237.393-.23c.08-.047.16-.092.24-.14.105-.06.105-.061.212-.124.168-.086.168-.086.322-.086-.005.135-.012.269-.02.403zm-4.59 3.374.023-.014-.012-.007-.012.02zm4.763-5.155c.045.333.034.6-.077.92-.295.28-.625.469-.978.667-.23.132-.453.275-.676.417a118.653 118.653 0 0 0-1.46.927l-.131.084-.643.413-.236.153-.21.135c-.162.1-.323.189-.494.27a30.25 30.25 0 0 1-.01-.393l-.005-.221c.017-.267.05-.448.168-.689.18-.134.34-.236.536-.34l.354-.199.198-.108c.406-.226.807-.462 1.21-.695l.513-.295c.3-.172.598-.346.895-.523l.185-.11c.11-.065.22-.132.33-.199.36-.214.36-.213.53-.213zm-6.515 3.678.23-.076-.153-.077-.077.153zM31.102 45.92l-.37.234-.782.495-.202.128-.39.25.389-.249.202-.13c.39-.249.782-.495 1.174-.742l.21-.135-.232.146zm.123-1.469c-.194.09-.194.09-.413.224l-.255.148-.271.16c-.09.054-.182.107-.273.16l-.537.316c-.3.176-.601.35-.904.521l-.248.14-.164.094.076.306c1.05-.66 2.097-1.326 3.143-1.993l-.155-.076zm18.623 1.84c0 .002-.003.003-.004.005.002-.078.004-.156.004-.234v.23zm.46-4.138c.023.677.023.677-.153.996a4.583 4.583 0 0 1-.48.34l-.15.098-.52.328-.406.259-.86.548c-.385.244-.768.49-1.15.737l-.156.102-.147.094-.139.09c-.089.058-.177.118-.264.178-.313.215-.313.215-.48.215-.116-.99-.116-.991.121-1.319a4.64 4.64 0 0 1 .645-.367c.098-.053.195-.108.293-.163.227-.129.456-.255.686-.38.456-.252.906-.515 1.356-.778l.23-.135a59.37 59.37 0 0 0 1.267-.76c.151-.083.152-.083.305-.083zm-.562 3.95.032-.036c.022-.002.045-.006.07-.006-.035.013-.068.028-.102.042zm-14-.655.384-.153-.154-.076-.23.23zm-6.59-.842a8.742 8.742 0 0 0-.546.301l-.153.09c-.125.073-.25.148-.374.222v.153a3.96 3.96 0 0 0 .829-.43l.226-.147.171-.112-.154-.076zm6.974.613.23-.077-.153-.076-.077.154zm-3.702-.146-.218.088a.727.727 0 0 1 .218-.089v.002zm.003.023c0-.008 0-.015-.002-.023h.001l.001.023zm18.088-3.997-.01.226c-.07.324-.27.464-.537.649l-.202.124-.228.141-.243.149-.502.31-.25.155c-.304.19-.605.383-.906.579a143.863 143.863 0 0 1-1.626 1.044l-.177.112-.16.1c-.12.071-.121.072-.198.072-.007-.196-.008-.39-.006-.585l-.006-.165c.006-.261.027-.417.218-.603.182-.123.367-.23.56-.334l.192-.11c.205-.118.41-.234.617-.349.806-.45 1.604-.912 2.4-1.379l.205-.118.354-.209c.353-.207.354-.208.524-.208-.005.134-.012.269-.02.403zM29.31 44.605l.229-.078-.155-.076-.076.154zm2.222-.23.23-.077-.154-.077-.076.154zm-1.38-2.453c-.18.08-.18.08-.382.2l-.231.133-.245.141-.24.137-.666.385-.537.307.076.306.8-.507.226-.143c.453-.288.904-.58 1.35-.88l-.154-.078zm20.769-4.675c.013.744.014.745-.076.996-.208.155-.209.155-.464.292l-.257.14c-.066.035-.13.07-.199.105l.163-.084.211-.108c.07-.036.14-.07.21-.108.183-.083.183-.083.336-.083-.021.206-.044.412-.067.618l-.019.174c-.104.923-.104.923-.352 1.183l-.17.107-.21.135-.255.157-.314.2-.735.465c-.429.27-.858.543-1.287.816l-.204.13-.2.127c-.066.04-.13.082-.197.125l-.436.28-.23.15c-.07.046-.14.09-.21.137-.17.1-.171.1-.325.1-.007-.68.013-1.354.053-2.031l.013-.29.017-.277.013-.25c.092-.345.327-.452.617-.633l.183-.101.208-.118c.074-.04.148-.08.224-.123.648-.363 1.293-.731 1.934-1.107l.458-.269.217-.125c.281-.166.564-.33.848-.494l.249-.142c.14-.076.17-.093.213-.096a.755.755 0 0 1-.119.128.685.685 0 0 0 .125-.128h.036zm-23.144 5.21.077-.151H27.7l.076.152zm.077-.151.383-.154-.153-.077-.23.23zm2.452-.384.23-.076c-.05-.026-.1-.052-.153-.077l-.077.152zm.383-.23c.076-.025.153-.05.23-.077l-.153-.076-.077.152zm12.723-.153.23-.078-.153-.076-.076.153zm-14.025-1.38c-.196.09-.196.091-.417.227l-.25.147-.261.157c-.087.053-.174.104-.264.157-.216.127-.431.257-.646.385l.153.23 1.839-1.226c-.052-.025-.103-.05-.155-.077zm14.409 1.149c.075-.027.151-.052.23-.078l-.154-.077-.076.154zm.23-.23.153.075c.19-.085.359-.198.537-.306l-.078-.154-.613.383zM28.62 39.47c-.2.108-.392.219-.585.34l-.164.1a68.96 68.96 0 0 0-.4.25l.077.23 1.226-.844-.153-.076zm.919.69.23-.077-.154-.077-.077.153zm-.767-.69.23-.077-.154-.077-.077.154zm-.537-.92c-.225.11-.225.111-.469.264l-.255.153-.196.12.077.23.996-.69-.154-.077zm21.229.536.23-.076-.153-.077-.077.153zm-21.076-.536.23-.076-.154-.077-.077.153zm1.073-2.912c-.244 0-.43.146-.635.265l-.144.082-.299.172-.46.264c-.096.057-.194.112-.29.168l-.14.08c-.217.118-.217.119-.408.272a15.27 15.27 0 0 0 0 .538c.485-.315.948-.65 1.403-1.007l.183-.14c.279-.218.548-.432.79-.692zM48.008 37.4c.127-.05.254-.1.384-.153l-.153-.076-.232.23zm2.99-.382a.882.882 0 0 1-.114.23h-.004a.78.78 0 0 0 .12-.271l-.002.04zm-.738-1.112-.275.17a38.02 38.02 0 0 0-1.593 1.018l.154.077c.219-.1.219-.1.467-.25l.14-.08.295-.171c.149-.088.298-.173.447-.259.427-.245.848-.495 1.256-.772l-.076-.23-.814.498zm-2.788.652.383-.154-.153-.077-.23.23zm3.501-2.292-.36.227-.191.122c-.384.242-.768.483-1.154.72-.083.053-.168.105-.254.158l-.495.306-.23.14-.203.125c-.164.097-.165.097-.232.262.314-.096.585-.21.867-.378l.23-.136.24-.143c.081-.047.163-.094.246-.144.24-.14.479-.282.717-.424l.197-.119c.318-.19.636-.38.952-.572l-.077-.305c-.125.08-.126.08-.254.16zm-24.04 1.601.077.153.537-.382c-.05-.026-.102-.05-.154-.076l-.46.305zm2.53-.23.23-.076c-.052-.024-.102-.05-.154-.076-.027.05-.051.102-.077.154zm18.086-.306c.074-.024.15-.05.23-.075l-.154-.077-.077.153zm.382-.228.23-.078-.153-.076c-.027.05-.052.101-.078.154zm3.526-2.223c-.212-.001-.31.086-.487.201-.067.045-.135.089-.206.134l-.221.143-.458.294-.235.153c-.354.227-.71.451-1.065.675l-.363.23-.26.163.153.078c.168-.071.168-.072.355-.183l.22-.125.235-.137.24-.138.481-.28.636-.36.353-.2.33-.181c.125-.075.154-.125.268-.323l.025-.141zM27.393 34.18c-.172.076-.173.076-.354.186l-.19.11-.146.086.153.307.69-.612c-.05-.026-.102-.05-.154-.076zm16.018.382.23-.076-.153-.077-.076.154zm.384-.23.23-.076-.154-.076-.076.153zm-3.526-.152.23-.076-.153-.078-.077.154zm6.055-1.303c-.306-.023-.468.022-.724.19l-.19.12-.194.13-.193.124c-.335.217-.668.44-1 .661l.153.077c.184-.08.184-.08.388-.2l.235-.132c.08-.047.16-.095.244-.143l.243-.137c.368-.21.71-.42 1.036-.691zm-5.825 1.148.383-.153-.152-.076-.23.228zm1.993-1.15c-.425-.073-.694.186-1.02.423l-.172.122c-.14.099-.278.2-.417.3l.155.077c.16-.07.159-.07.333-.176l.198-.115.206-.123.208-.121c.258-.15.259-.151.51-.31v-.077zm-1.992.077c-.332-.154-.51.03-.785.226l-.25.175-.19.137.153.076a8.8 8.8 0 0 0 .545-.301l.155-.09.373-.222zm-1.84-.076c-.314-.136-.449-.01-.708.185-.069.05-.137.102-.207.154-.052.038-.104.078-.157.119.075.037.076.036.153.075.225-.111.225-.111.469-.264.083-.05.167-.1.254-.15l.195-.121zm10.193.535.232-.076-.154-.078-.077.153zm.692-.536c-.244.142-.244.142-.46.306l.153.076c.19-.086.358-.198.536-.307l-.228-.076zm-17.474.306.23-.078-.154-.076-.076.153zm.23-.154.46-.153-.307-.078-.152.23zm20.095-4.186c.214.047.214.047.395.226.158.256.157.414.144.712l-.007.262-.011.227c0 .183 0 .366.002.55l.003.374v.377l.003.168c-.01.14-.01.14-.086.294H52.3l.154-.46c-.131.098-.26.2-.384.307v.153h-1.945c.164-.047.23-.126.566-.537-.05-.027-.102-.052-.152-.077l-.155.068-.18.105a5.5 5.5 0 0 0-.661.441h-8.134c.093-.007.108-.022.163-.077.002-.052 0-.103 0-.154.387-.236.686-.516.997-.843l-.153-.077c-.226.11-.226.111-.47.263l-.254.153-.195.12.026.133c-.337-.142-.37-.115-1.098.48h-1.38c.248-.134.353-.279.46-.537-.349 0-.35 0-.996.536H36.82c.243-.25.516-.428.807-.62.202-.157.34-.328.496-.53l-.167.097-.743.435-.262.153c-.082.05-.164.097-.25.147l-.23.135c-.287.164-.438.193-.77.19h-.528l-.27-.003-.3-.003c.183-.041.276-.132.685-.538-.028-.015-.055-.028-.081-.04.131-.071.154-.084.31-.19l-.152-.078c-.201.107-.202.108-.384.23l.071.036-.074.033c-.062.037-.122.07-.182.105l-.038.021-.083-.04-.23.23.048-.02a1.9 1.9 0 0 0-.276.25h-1.778a.728.728 0 0 0 .264-.1l.158-.13c.095-.076.19-.152.283-.23-.025-.052-.05-.103-.076-.153a6.52 6.52 0 0 0-.574.35c.087-.062.174-.123.264-.182-.654.377-1.244.507-2.004.526h-.847a68.36 68.36 0 0 1-.917-.008 73.125 73.125 0 0 0-1.176-.006c-.302 0-.605 0-.907-.003-.144-.002-.29-.002-.434-.002-.202 0-.403-.004-.604-.008h-.18c-.166-.004-.166-.003-.438-.054-.236-.28-.257-.497-.245-.857l.007-.245.007-.202c0-.108 0-.217-.003-.326-.004-.48.001-.96.08-1.436.136-.135.33-.087.514-.087l.29-.001h.321a20126.096 20126.096 0 0 0 1.729-.004c-.214.097-.435.352-.94.935l.154.077.133-.058.158-.094.174-.102c.06-.038.12-.073.18-.11.323-.19.63-.357.886-.632l-.071-.018c.771-.002 1.543-.002 2.314-.003h.687l2.516-.004c-.178-.003-.267.079-.619.406l.153.078c.248-.13.47-.289.69-.46a1.82 1.82 0 0 0-.223-.025c.583-.002 1.166-.002 1.75-.003h1.237c1.327-.002 2.656-.003 3.984-.007l4.086-.006c.765 0 1.53 0 2.296-.003.651-.002 1.303-.002 1.955-.001l.999-.003c.303-.002.607-.002.91 0l.332-.001c.15-.002.3 0 .45 0h.251zm-2.41 3.225c-.085 0-.127 0-.182-.005l-.258-.029h.583c-.04.012-.086.024-.143.035zM34.6 32.038a2.03 2.03 0 0 1-.194.032l-.192-.034.387.001zm4.16.01-.254-.01h.536c-.144.006-.215.01-.283.01zm-6.27-.274zm8.918.263a3.707 3.707 0 0 1-.155.007l-.3-.002-.3-.002-.231-.002h.986zm-14.398-.46a2.16 2.16 0 0 0-.613.46h.767l.076-.384-.23-.076zm1.073-.46c-.053 0-.1.006-.143.016-.13.03-.23.098-.365.176l-.19.107-.145.084v.383l.292-.211.164-.12a2.03 2.03 0 0 0 .387-.436zm13.488.46c.003.077.001.153 0 .23l-.049-.25.05.02zm6.592.23.23-.076-.153-.078-.078.154zm-13.335-.154-.336.134c.083-.06.17-.115.266-.17l.07.036zm4.752-.076.075-.153h-.153l.077.153zm-4.374-.117c-.021.01-.045.024-.073.04l-.082-.042.083-.035.073.036zm7.361-.574.23-.076-.153-.077-.077.153zm-.076-1.992c-.383-.026-.796-.082-1.158.066-.21.16-.312.336-.377.547a.22.22 0 0 0-.053.008c-.129.034-.238.177-.332.26l-.17.15c-.043.04-.087.078-.132.118l.154.077c.246-.134.308-.168.407-.303.022-.031.046-.07.076-.116-.008.038-.017.075-.024.113.172 0 .172 0 .59-.234l.171-.098.17-.093c.055-.033.109-.063.162-.093a2.02 2.02 0 0 0 .516-.403zm4.446 0c-.573-.043-1.072-.125-1.487.322-.125.145-.125.145-.291.282a62.5 62.5 0 0 0-.331.275c-.116.116-.116.117-.116.27.23.076.23.077.405-.002l.204-.123.224-.134.233-.142c.396-.236.792-.464 1.156-.746zm-9.364-.02c-.253-.015-.347.004-.559.151l-.193.175-.205.18-.202.185-.36.325.154.077.147-.066.178-.102.194-.113.203-.12c.346-.2.689-.375.962-.671l-.136-.011-.184-.01zm2.13.015c-.267-.005-.41.002-.622.174l-.134.115-.146.124-.15.13-.527.456.153.077.146-.066.176-.102.194-.113.202-.12c.36-.21.714-.416 1.045-.671l-.147-.003-.19-.001zm-8.937 1h.154c-.027-.05-.052-.102-.079-.154l-.075.154zm1.84-.996c-.733-.113-1.392.209-1.686.92.256 0 .39-.078.61-.204l.146-.084c.332-.188.635-.385.928-.632zm8.343.747-.042.061c.015-.067.03-.132.049-.193h.003l-.01.134zm-15.395-.746c-.11.273-.18.483-.23.766l.344-.18.14-.074c.285-.148.513-.282.744-.512h-.997zm4.696.024c-.174-.024-.175-.024-.338.068l-.162.133a17.44 17.44 0 0 0-.287.233l.153.077.183-.093.208-.132.375-.234-.134-.052zm14.233-.024c-.465-.068-.465-.068-.996.46.052.025.103.05.153.076.302-.157.577-.324.843-.536zm4.139 0c-.372-.055-.373-.055-.843.382l.152.078a4.66 4.66 0 0 0 .69-.46zm1.471.026c-.21-.033-.21-.033-.628.356l.153.078.15-.077.166-.11c.1-.065.199-.13.297-.196l-.137-.05zm-22.143-.043c.165-.075.326-.053.61-.016.032.009.049.012.065.016h-.122c-.185.001-.369 0-.553 0zm12.094-4.223c.1.004.2.008.303.01.075.006.15.01.228.015v.228c-.127.125-.127.125-.302.258l-.188.144-.2.15-.2.151a73.07 73.07 0 0 1-.49.371l.2-.114c.19-.11.38-.218.571-.326.19-.107.377-.218.563-.332.702-.417 1.246-.472 2.037-.3a7.933 7.933 0 0 1-.914.805c-.34.262-.674.528-1.002.805l.176-.1.647-.374.28-.161.135-.08.135-.076.392-.226c.134-.077.268-.156.401-.236.418-.253.747-.27 1.218-.167.125.035.25.076.373.118-.284.3-.579.532-.92.766.145-.07.29-.142.436-.214l.245-.122c.236-.116.237-.116.436-.256.228-.119.327-.103.573-.043l.195.044c.184.055.184.054.49.208l-.536.46c.04-.029.082-.057.124-.086.375-.239.651-.356 1.095-.287.555.155 1.086.382 1.617.603a14.73 14.73 0 0 1-.752.714l-.184.161-.137.121.387-.21.234-.127a9.4 9.4 0 0 0 .514-.31c.3-.146.385-.123.704-.042.232.093.456.2.68.31.06.03.12.058.183.088.148.07.294.142.441.214.001.23.001.23-.1.353l-.128.122c-.064.06-.065.06-.13.123-.033.03-.067.06-.1.092l.134-.087c.482-.292.482-.29.78-.31.359.14.686.331 1.001.55v.077H26.09c.567-.701 1.342-1.04 2.16-1.384l.17-.072c.4-.161.4-.161.659-.075l-.614.536c.24-.08.435-.185.656-.31l.253-.142.264-.15.516-.293.231-.13c.333-.183.653-.36 1.02-.458l.184-.048.19-.05.195-.05a6.61 6.61 0 0 1 1.32-.208 7.92 7.92 0 0 1-.93.813 119.125 119.125 0 0 0-.408.315 4.22 4.22 0 0 0-.349.328l.8-.462.403-.232.265-.152.265-.152c.172-.1.342-.202.511-.305.423-.255.776-.45 1.264-.532l.292-.049c.299-.036.577-.05.877-.032-.242.338-.502.536-.843.766.472-.227.925-.472 1.37-.748.244-.142.44-.181.717-.18l.187.002.193.002h.196l.48.005-.168.132c-.205.164-.407.33-.609.498a23.15 23.15 0 0 1-1.293.978c.63-.341 1.257-.689 1.883-1.037l.17-.093c.115-.065.23-.133.344-.204.403-.244.662-.32 1.134-.299zm3.136 1.557.23-.075-.153-.077-.077.153zm-8.047-.382c.076-.025.153-.05.23-.077l-.152-.075-.076.153zm3.755-4.598.197-.096c.28-.061.317-.058.551.072.25.177.25.177.403.407l.075.076c.23.354.347.563.307.995v.154c-.027.455-.14.752-.46 1.072-.395.287-.747.36-1.227.307-.268-.116-.268-.116-.459-.23l.383-.538-.212.115c-.25.115-.25.116-.556.116-.37-.466-.42-.871-.415-1.454.064-.468.362-.729.698-1.034.256-.172.402-.196.713-.196v.23z" fill="white"/></svg>