<svg width="31" height="31" viewBox="0 0 31 31" fill="none" xmlns="http://www.w3.org/2000/svg">
<rect width="31" height="31" fill="#280037"/>
<path d="M7 15V4H10V15H7ZM2 3V0H15V3H2Z" fill="white"/>
<path d="M18 31V15.8163L22 15.8163V31H18ZM23.235 31V28.4947H23.3135C23.8632 28.4947 24.282 28.403 24.5699 28.2195C24.8578 28.036 25.0061 27.7735 25.0149 27.4318C25.041 26.7549 25.0585 26.0811 25.0672 25.4105C25.0847 24.7399 25.0934 24.0693 25.0934 23.3987C25.0934 22.7281 25.0847 22.0574 25.0672 21.3868C25.0585 20.7099 25.041 20.0361 25.0149 19.3655C25.0061 19.0302 24.8578 18.774 24.5699 18.5968C24.282 18.4134 23.8632 18.3216 23.3135 18.3216H23.235V15.8163H23.3135C25.2766 15.8163 26.6944 16.12 27.5669 16.7273C28.4481 17.3284 28.9062 18.3216 28.9411 19.7071C28.9673 20.5865 28.9847 21.4216 28.9935 22.2124C29.0022 23.0033 29.0022 23.7941 28.9935 24.5849C28.9847 25.3757 28.9673 26.2108 28.9411 27.0902C28.9062 28.482 28.4481 29.4816 27.5669 30.089C26.6944 30.6963 25.2766 31 23.3135 31H23.235Z" fill="white"/>
<path d="M22 2.53061C19.8783 2.53061 17.8434 3.19715 16.3431 4.38361C14.8429 5.57006 14 7.17924 14 8.85714C14 10.535 14.8429 12.1442 16.3431 13.3307C17.8434 14.5171 19.8783 15.1837 22 15.1837L22 12.8508C20.6606 12.8508 19.3761 12.4301 18.429 11.6811C17.482 10.9322 16.9499 9.91634 16.9499 8.85714C16.9499 7.79794 17.482 6.78213 18.429 6.03316C19.3761 5.2842 20.6606 4.86343 22 4.86343L22 2.53061Z" fill="white"/>
<path d="M23 2.53061C25.1217 2.53061 27.1566 3.19715 28.6569 4.38361C30.1571 5.57006 31 7.17924 31 8.85714C31 10.535 30.1571 12.1442 28.6569 13.3307C27.1566 14.5171 25.1217 15.1837 23 15.1837L23 12.8508C24.3394 12.8508 25.6239 12.4301 26.571 11.6811C27.518 10.9322 28.0501 9.91634 28.0501 8.85714C28.0501 7.79794 27.518 6.78213 26.571 6.03316C25.6239 5.2842 24.3394 4.86343 23 4.86343L23 2.53061Z" fill="#841795"/>
<path d="M9 15.8163C11.1217 15.8163 13.1566 16.4829 14.6569 17.6693C16.1571 18.8558 17 20.465 17 22.1429C17 23.8208 16.1571 25.4299 14.6569 26.6164C13.1566 27.8028 11.1217 28.4694 9 28.4694L9 26.1366C10.3394 26.1366 11.6239 25.7158 12.571 24.9668C13.518 24.2179 14.0501 23.202 14.0501 22.1429C14.0501 21.0837 13.518 20.0678 12.571 19.3189C11.6239 18.5699 10.3394 18.1491 9 18.1491L9 15.8163Z" fill="white"/>
<path d="M8 15.8163C5.87827 15.8163 3.84344 16.4829 2.34315 17.6693C0.842855 18.8558 1.85488e-07 20.465 0 22.1429C-1.85488e-07 23.8208 0.842854 25.4299 2.34315 26.6164C3.84344 27.8028 5.87827 28.4694 8 28.4694L8 26.1366C6.66063 26.1366 5.37611 25.7158 4.42904 24.9668C3.48196 24.2179 2.94989 23.202 2.94989 22.1429C2.9499 21.0837 3.48196 20.0678 4.42904 19.3189C5.37612 18.5699 6.66063 18.1491 8 18.1491L8 15.8163Z" fill="#841795"/>
</svg>
